<svg width="40" height="40" viewBox="0 0 40 40" fill="none" xmlns="http://www.w3.org/2000/svg">
<path d="M39.5 20C39.5 30.7696 30.7696 39.5 20 39.5C9.23045 39.5 0.5 30.7696 0.5 20C0.5 9.23045 9.23045 0.5 20 0.5C30.7696 0.5 39.5 9.23045 39.5 20Z" fill="#151147" stroke="url(#paint0_linear_8141_17777)"/>
<g clip-path="url(#clip0_8141_17777)">
<path d="M21 17C21 14.79 19.21 13 17 13C14.79 13 13 14.79 13 17C13 19.21 14.79 21 17 21C19.21 21 21 19.21 21 17ZM23 19V21H26V24H28V21H31V19H28V16H26V19H23ZM9 27V29H25V27C25 24.34 19.67 23 17 23C14.33 23 9 24.34 9 27Z" fill="white"/>
</g>
<defs>
<linearGradient id="paint0_linear_8141_17777" x1="0" y1="0" x2="42.7388" y2="3.17892" gradientUnits="userSpaceOnUse">
<stop stop-color="#2B59FF"/>
<stop offset="1" stop-color="#BB2BFF"/>
</linearGradient>
<clipPath id="clip0_8141_17777">
<rect width="24" height="24" fill="white" transform="translate(8 9)"/>
</clipPath>
</defs>
</svg>
