<svg width="40" height="40" viewBox="0 0 40 40" fill="none" xmlns="http://www.w3.org/2000/svg">
<g id="chain 1" clip-path="url(#clip0_8111_14666)">
<g id="Layer 2">
<g id="chain">
<path id="background" d="M39.5 20C39.5 30.7696 30.7696 39.5 20 39.5C9.23045 39.5 0.5 30.7696 0.5 20C0.5 9.23045 9.23045 0.5 20 0.5C30.7696 0.5 39.5 9.23045 39.5 20Z" fill="#151147" stroke="url(#paint0_linear_8111_14666)"/>
<g id="Group">
<path id="Vector" d="M15.1336 30.9375C9.92186 31.0234 7.01249 24.375 10.7765 20.625C11.7672 19.6 12.8601 18.507 14.214 17.1875C16.418 14.9148 20.464 14.9257 22.6734 17.1875C23.8156 18.2031 23.057 20.1375 21.5695 20.1148C20.293 20.1015 20.0226 18.7984 18.439 18.8335C17.7312 18.8335 17.0406 19.132 16.4953 19.6742C15.343 20.8179 14.3039 21.8515 13.2531 22.9171C11.6633 24.3695 12.525 27.214 14.6594 27.5046C15.9969 27.8023 16.925 26.9578 17.7844 26.0203C18.3008 25.4921 18.8672 24.8187 19.6726 24.8554C21.064 24.8046 21.8914 26.6593 20.918 27.6281C19.4351 29.3242 17.5258 31.0203 15.1336 30.9375Z" fill="white"/>
<path id="Vector_2" d="M21.7469 24.5109C19.8969 24.5703 16.5797 23.3805 16.7695 21.2961C16.8086 21.0325 16.9099 20.7819 17.0651 20.5652C17.2202 20.3486 17.4247 20.1719 17.6617 20.05C18.3117 19.7023 19.1031 19.8477 19.6445 20.3625C20.1859 20.8773 20.7883 21.1258 21.4906 21.1375C22.2328 21.1508 22.8836 20.9031 23.3898 20.4016C24.4195 19.3906 25.6305 18.193 26.8102 16.9805C27.818 15.9453 27.7961 14.2586 26.7609 13.2195C26.5111 12.9678 26.2137 12.7682 25.8861 12.6323C25.5584 12.4964 25.207 12.427 24.8523 12.4281C23.407 12.3789 22.55 13.6695 21.607 14.5562C20.9352 15.2508 19.8312 15.332 19.15 14.643C18.4469 13.9719 18.5172 12.8539 19.2078 12.1836C19.682 11.7039 20.1406 11.2195 20.6453 10.7562C24.0648 7.31093 30.2922 9.43671 30.8484 14.2297C31.1492 16.1148 30.625 17.8367 29.332 19.2094C28.275 20.3312 27.0945 21.5125 25.6164 22.9273C24.5769 23.9311 23.1919 24.4979 21.7469 24.5109Z" fill="white"/>
</g>
</g>
</g>
</g>
<defs>
<linearGradient id="paint0_linear_8111_14666" x1="0" y1="0" x2="42.7388" y2="3.17892" gradientUnits="userSpaceOnUse">
<stop stop-color="#2B59FF"/>
<stop offset="1" stop-color="#BB2BFF"/>
</linearGradient>
<clipPath id="clip0_8111_14666">
<rect width="40" height="40" fill="white"/>
</clipPath>
</defs>
</svg>
