<svg width="174" height="52" viewBox="0 0 174 52" fill="none" xmlns="http://www.w3.org/2000/svg">
<g clip-path="url(#clip0_8043_1475)">
<path d="M167.583 51.7429H6.08694C2.73134 51.7429 0 49.0038 0 45.6508V6.33991C0 2.9856 2.73134 0.256836 6.08694 0.256836H167.583C170.938 0.256836 173.765 2.9856 173.765 6.33991V45.6508C173.765 49.0038 170.938 51.7429 167.583 51.7429Z" fill="#A6A6A6"/>
<path d="M172.52 45.654C172.52 48.3776 170.314 50.5838 167.585 50.5838H6.08786C3.36038 50.5838 1.14648 48.3776 1.14648 45.654V6.34052C1.14648 3.6182 3.36038 1.4043 6.08786 1.4043H167.584C170.314 1.4043 172.519 3.6182 172.519 6.34052L172.52 45.654Z" fill="black"/>
<path d="M38.779 25.7215C38.7417 21.573 42.1758 19.5547 42.3328 19.4608C40.388 16.6252 37.3735 16.2377 36.3141 16.2069C33.7823 15.9404 31.3264 17.7218 30.0367 17.7218C28.7212 17.7218 26.7351 16.2326 24.5946 16.2764C21.8401 16.3188 19.2632 17.9136 17.8499 20.3901C14.9333 25.4396 17.1085 32.86 19.9029 36.9416C21.3008 38.9405 22.9342 41.1724 25.0721 41.0939C27.1638 41.0077 27.9451 39.7604 30.4692 39.7604C32.9701 39.7604 33.7038 41.0939 35.8842 41.0437C38.129 41.0077 39.5423 39.0358 40.8912 37.0188C42.5066 34.7277 43.1553 32.4713 43.1811 32.3554C43.1283 32.3374 38.8215 30.6937 38.779 25.7215Z" fill="white"/>
<path d="M34.6612 13.522C35.7861 12.1151 36.5559 10.2011 36.3422 8.25879C34.7139 8.33087 32.6777 9.38505 31.5051 10.761C30.4676 11.9735 29.5409 13.9609 29.7803 15.8298C31.6093 15.9663 33.4873 14.9069 34.6612 13.522Z" fill="white"/>
<path d="M69.0471 40.8071H66.124L64.5227 35.7757H58.9571L57.4318 40.8071H54.5859L60.1001 23.6777H63.5059L69.0471 40.8071ZM64.0401 33.6647L62.592 29.1919C62.4389 28.735 62.1518 27.6589 61.7283 25.965H61.6769C61.5082 26.6935 61.2366 27.7696 60.8634 29.1919L59.4411 33.6647H64.0401Z" fill="white"/>
<path d="M83.2266 34.4796C83.2266 36.5802 82.659 38.2406 81.5237 39.4596C80.5068 40.5446 79.2441 41.0865 77.7369 41.0865C76.1099 41.0865 74.9412 40.5022 74.2294 39.3334H74.1779V45.84H71.4337V32.5218C71.4337 31.2012 71.399 29.8458 71.332 28.4557H73.7454L73.8986 30.4135H73.9501C74.8653 28.9384 76.2541 28.2021 78.1179 28.2021C79.5749 28.2021 80.7913 28.7775 81.7644 29.9295C82.74 31.0828 83.2266 32.5991 83.2266 34.4796ZM80.4309 34.58C80.4309 33.3778 80.1606 32.3867 79.6174 31.6067C79.024 30.7932 78.2273 30.3864 77.2285 30.3864C76.5514 30.3864 75.9362 30.613 75.3866 31.0596C74.8357 31.5101 74.4753 32.0984 74.3066 32.8269C74.2217 33.1667 74.1792 33.4447 74.1792 33.6635V35.723C74.1792 36.6214 74.4547 37.3795 75.0056 37.9987C75.5565 38.6178 76.2721 38.9267 77.1525 38.9267C78.1861 38.9267 78.9906 38.5277 79.5659 37.7322C80.1426 36.9355 80.4309 35.8852 80.4309 34.58Z" fill="white"/>
<path d="M97.4343 34.4796C97.4343 36.5802 96.8667 38.2406 95.7301 39.4596C94.7145 40.5446 93.4518 41.0865 91.9446 41.0865C90.3176 41.0865 89.1489 40.5022 88.4384 39.3334H88.3869V45.84H85.6427V32.5218C85.6427 31.2012 85.6079 29.8458 85.541 28.4557H87.9544L88.1076 30.4135H88.1591C89.073 28.9384 90.4618 28.2021 92.3269 28.2021C93.7826 28.2021 94.999 28.7775 95.9747 29.9295C96.9465 31.0828 97.4343 32.5991 97.4343 34.4796ZM94.6386 34.58C94.6386 33.3778 94.367 32.3867 93.8238 31.6067C93.2305 30.7932 92.4363 30.3864 91.4362 30.3864C90.7578 30.3864 90.1439 30.613 89.593 31.0596C89.0421 31.5101 88.6829 32.0984 88.5143 32.8269C88.4307 33.1667 88.3869 33.4447 88.3869 33.6635V35.723C88.3869 36.6214 88.6624 37.3795 89.2107 37.9987C89.7616 38.6165 90.4772 38.9267 91.3602 38.9267C92.3938 38.9267 93.1983 38.5277 93.7736 37.7322C94.3503 36.9355 94.6386 35.8852 94.6386 34.58Z" fill="white"/>
<path d="M113.316 36.0035C113.316 37.4606 112.81 38.646 111.795 39.5612C110.679 40.5613 109.125 41.0607 107.129 41.0607C105.286 41.0607 103.808 40.7055 102.689 39.9937L103.325 37.7064C104.53 38.4349 105.852 38.8005 107.292 38.8005C108.326 38.8005 109.13 38.5662 109.708 38.1003C110.284 37.6343 110.571 37.0088 110.571 36.2288C110.571 35.5337 110.334 34.948 109.859 34.4731C109.386 33.9981 108.597 33.5566 107.496 33.1486C104.497 32.0301 102.998 30.3915 102.998 28.2368C102.998 26.8287 103.524 25.6741 104.575 24.7757C105.623 23.876 107.021 23.4268 108.769 23.4268C110.327 23.4268 111.622 23.6983 112.656 24.2402L111.97 26.4773C111.004 25.9521 109.913 25.6896 108.691 25.6896C107.726 25.6896 106.972 25.9277 106.431 26.4014C105.974 26.8248 105.745 27.341 105.745 27.9524C105.745 28.6294 106.006 29.1893 106.532 29.6295C106.989 30.0363 107.819 30.4765 109.024 30.9514C110.497 31.5448 111.58 32.2386 112.276 33.0341C112.97 33.8269 113.316 34.8193 113.316 36.0035Z" fill="white"/>
<path d="M122.389 30.515H119.364V36.5118C119.364 38.0371 119.897 38.7991 120.966 38.7991C121.456 38.7991 121.863 38.7566 122.185 38.6716L122.261 40.7555C121.72 40.9576 121.008 41.0593 120.126 41.0593C119.043 41.0593 118.196 40.7285 117.584 40.0682C116.976 39.4066 116.669 38.2971 116.669 36.7383V30.5124H114.867V28.4529H116.669V26.1914L119.364 25.3779V28.4529H122.389V30.515Z" fill="white"/>
<path d="M136.037 34.5285C136.037 36.427 135.494 37.9858 134.41 39.2047C133.274 40.4597 131.765 41.0852 129.885 41.0852C128.072 41.0852 126.63 40.4841 125.554 39.2819C124.477 38.0797 123.939 36.5622 123.939 34.7332C123.939 32.8192 124.493 31.2514 125.604 30.0325C126.712 28.8123 128.208 28.2021 130.088 28.2021C131.9 28.2021 133.359 28.8032 134.459 30.0067C135.512 31.1742 136.037 32.6814 136.037 34.5285ZM133.19 34.6173C133.19 33.4782 132.947 32.5012 132.454 31.6865C131.879 30.7005 131.056 30.2088 129.99 30.2088C128.887 30.2088 128.049 30.7018 127.474 31.6865C126.981 32.5025 126.738 33.4949 126.738 34.6688C126.738 35.8079 126.981 36.7849 127.474 37.5984C128.067 38.5843 128.896 39.076 129.966 39.076C131.014 39.076 131.836 38.574 132.429 37.5726C132.935 36.7424 133.19 35.7552 133.19 34.6173Z" fill="white"/>
<path d="M144.958 30.8691C144.686 30.8189 144.397 30.7932 144.093 30.7932C143.128 30.7932 142.381 31.1574 141.856 31.8873C141.399 32.5308 141.17 33.3443 141.17 34.3264V40.8072H138.427L138.453 32.3455C138.453 30.9219 138.418 29.6257 138.35 28.457H140.74L140.84 30.8202H140.916C141.206 30.008 141.663 29.3541 142.288 28.8637C142.9 28.4223 143.56 28.2021 144.272 28.2021C144.525 28.2021 144.754 28.2202 144.958 28.2523V30.8691Z" fill="white"/>
<path d="M157.231 34.0459C157.231 34.5375 157.199 34.952 157.13 35.2905H148.898C148.93 36.5108 149.328 37.4439 150.092 38.0875C150.786 38.6629 151.683 38.9512 152.785 38.9512C154.004 38.9512 155.116 38.7568 156.116 38.3668L156.546 40.2718C155.377 40.7815 153.997 41.0351 152.405 41.0351C150.49 41.0351 148.987 40.4713 147.892 39.3451C146.801 38.2188 146.254 36.7064 146.254 34.8091C146.254 32.9466 146.762 31.3956 147.78 30.1587C148.846 28.838 150.287 28.1777 152.099 28.1777C153.879 28.1777 155.227 28.838 156.142 30.1587C156.866 31.2077 157.231 32.5051 157.231 34.0459ZM154.614 33.3341C154.632 32.5206 154.453 31.8178 154.081 31.2244C153.606 30.4611 152.876 30.0801 151.894 30.0801C150.997 30.0801 150.267 30.4521 149.71 31.1987C149.253 31.7921 148.981 32.5038 148.898 33.3328H154.614V33.3341Z" fill="white"/>
<path d="M63.132 13.1386C63.132 14.6536 62.6776 15.794 61.7702 16.5599C60.9297 17.2665 59.7352 17.6205 58.188 17.6205C57.4209 17.6205 56.7645 17.587 56.2148 17.5201V9.24243C56.9318 9.12659 57.7041 9.06738 58.5382 9.06738C60.0119 9.06738 61.1228 9.38788 61.8719 10.0289C62.7111 10.7536 63.132 11.7897 63.132 13.1386ZM61.7097 13.176C61.7097 12.1939 61.4497 11.4409 60.9297 10.9157C60.4097 10.3919 59.6503 10.1293 58.6501 10.1293C58.2254 10.1293 57.8637 10.1576 57.5638 10.2168V16.5097C57.7298 16.5354 58.0336 16.547 58.4751 16.547C59.5074 16.547 60.3041 16.26 60.8653 15.6859C61.4265 15.1118 61.7097 14.2752 61.7097 13.176Z" fill="white"/>
<path d="M70.6733 14.4627C70.6733 15.3958 70.4068 16.1604 69.8739 16.7602C69.3153 17.3768 68.5752 17.6844 67.651 17.6844C66.7603 17.6844 66.0511 17.3896 65.5221 16.7975C64.9943 16.2067 64.7305 15.4615 64.7305 14.563C64.7305 13.6234 65.0021 12.8524 65.5478 12.2539C66.0936 11.6554 66.8272 11.3555 67.7514 11.3555C68.6421 11.3555 69.3578 11.6502 69.8997 12.241C70.4145 12.8151 70.6733 13.5565 70.6733 14.4627ZM69.2741 14.5064C69.2741 13.9465 69.1531 13.4664 68.9124 13.0661C68.6293 12.5821 68.2264 12.3401 67.7025 12.3401C67.1606 12.3401 66.7487 12.5821 66.4655 13.0661C66.2236 13.4664 66.1039 13.9542 66.1039 14.5309C66.1039 15.0908 66.2249 15.5709 66.4655 15.9712C66.7577 16.4552 67.1645 16.6971 67.6896 16.6971C68.2045 16.6971 68.6087 16.4513 68.8996 15.9583C69.1493 15.5503 69.2741 15.0663 69.2741 14.5064Z" fill="white"/>
<path d="M80.7873 11.4775L78.8888 17.5452H77.6531L76.8667 14.9104C76.6672 14.2526 76.505 13.5988 76.3788 12.95H76.3544C76.2373 13.6168 76.0751 14.2694 75.8666 14.9104L75.0312 17.5452H73.7814L71.9961 11.4775H73.3824L74.0684 14.362C74.2344 15.0442 74.3709 15.6942 74.4803 16.3095H74.5047C74.6051 15.8024 74.7712 15.1562 75.0055 14.3749L75.8666 11.4788H76.9658L77.7908 14.3131C77.9904 15.0043 78.1525 15.6698 78.2774 16.3108H78.3147C78.4061 15.6865 78.5438 15.0211 78.7266 14.3131L79.4629 11.4788H80.7873V11.4775Z" fill="white"/>
<path d="M87.7794 17.5466H86.4305V14.0713C86.4305 13.0004 86.0238 12.4649 85.2077 12.4649C84.8074 12.4649 84.4843 12.6117 84.2333 12.9064C83.9849 13.2012 83.8588 13.5487 83.8588 13.9465V17.5453H82.5098V13.2128C82.5098 12.6799 82.4931 12.102 82.4609 11.4764H83.6464L83.7095 12.425H83.7468C83.9038 12.1303 84.1381 11.887 84.4457 11.6927C84.8113 11.4661 85.2206 11.3516 85.6685 11.3516C86.2349 11.3516 86.706 11.5343 87.0805 11.9012C87.5465 12.3504 87.7794 13.021 87.7794 13.9117V17.5466Z" fill="white"/>
<path d="M91.498 17.5461H90.1504V8.69434H91.498V17.5461Z" fill="white"/>
<path d="M99.4389 14.4627C99.4389 15.3958 99.1724 16.1604 98.6396 16.7602C98.0809 17.3768 97.3395 17.6844 96.4166 17.6844C95.5247 17.6844 94.8154 17.3896 94.2877 16.7975C93.76 16.2067 93.4961 15.4615 93.4961 14.563C93.4961 13.6234 93.7677 12.8524 94.3134 12.2539C94.8592 11.6554 95.5929 11.3555 96.5158 11.3555C97.4078 11.3555 98.1221 11.6502 98.6653 12.241C99.1802 12.8151 99.4389 13.5565 99.4389 14.4627ZM98.0385 14.5064C98.0385 13.9465 97.9175 13.4664 97.6768 13.0661C97.3949 12.5821 96.9907 12.3401 96.4681 12.3401C95.9249 12.3401 95.5131 12.5821 95.2312 13.0661C94.9892 13.4664 94.8695 13.9542 94.8695 14.5309C94.8695 15.0908 94.9905 15.5709 95.2312 15.9712C95.5234 16.4552 95.9301 16.6971 96.4553 16.6971C96.9701 16.6971 97.373 16.4513 97.6639 15.9583C97.9149 15.5503 98.0385 15.0663 98.0385 14.5064Z" fill="white"/>
<path d="M105.97 17.5467H104.758L104.658 16.8477H104.621C104.206 17.4051 103.615 17.6844 102.848 17.6844C102.275 17.6844 101.812 17.5003 101.463 17.1348C101.147 16.8027 100.988 16.3895 100.988 15.8991C100.988 15.1577 101.297 14.5927 101.919 14.2014C102.539 13.8101 103.412 13.6183 104.536 13.6273V13.514C104.536 12.7147 104.116 12.3157 103.276 12.3157C102.677 12.3157 102.149 12.4663 101.694 12.7649L101.419 11.8793C101.983 11.5305 102.68 11.3555 103.501 11.3555C105.087 11.3555 105.882 12.1921 105.882 13.8654V16.0999C105.882 16.7062 105.912 17.1888 105.97 17.5467ZM104.569 15.4615V14.5257C103.081 14.5 102.337 14.908 102.337 15.7485C102.337 16.0652 102.422 16.302 102.596 16.4603C102.77 16.6186 102.991 16.6971 103.255 16.6971C103.551 16.6971 103.828 16.6032 104.08 16.4165C104.334 16.2286 104.489 15.9905 104.547 15.6983C104.561 15.6327 104.569 15.5529 104.569 15.4615Z" fill="white"/>
<path d="M113.634 17.5461H112.437L112.374 16.5717H112.337C111.954 17.3131 111.303 17.6838 110.388 17.6838C109.657 17.6838 109.048 17.3968 108.565 16.8227C108.082 16.2486 107.842 15.5034 107.842 14.5882C107.842 13.6061 108.103 12.8106 108.628 12.2031C109.137 11.6368 109.76 11.3536 110.501 11.3536C111.316 11.3536 111.886 11.6278 112.21 12.1774H112.236V8.69434H113.586V15.9114C113.586 16.5022 113.602 17.0467 113.634 17.5461ZM112.236 14.9872V13.9755C112.236 13.8005 112.223 13.6589 112.199 13.5508C112.123 13.2264 111.959 12.9535 111.711 12.7334C111.46 12.5133 111.157 12.4026 110.809 12.4026C110.305 12.4026 109.912 12.6021 109.622 13.0024C109.335 13.4027 109.189 13.9137 109.189 14.538C109.189 15.1378 109.327 15.6244 109.604 15.9989C109.896 16.3979 110.29 16.5974 110.783 16.5974C111.226 16.5974 111.58 16.4314 111.849 16.098C112.109 15.7904 112.236 15.4197 112.236 14.9872Z" fill="white"/>
<path d="M125.171 14.4627C125.171 15.3958 124.905 16.1604 124.372 16.7602C123.813 17.3768 123.075 17.6844 122.149 17.6844C121.26 17.6844 120.55 17.3896 120.02 16.7975C119.492 16.2067 119.229 15.4615 119.229 14.563C119.229 13.6234 119.5 12.8524 120.046 12.2539C120.592 11.6554 121.325 11.3555 122.251 11.3555C123.14 11.3555 123.857 11.6502 124.398 12.241C124.913 12.8151 125.171 13.5565 125.171 14.4627ZM123.773 14.5064C123.773 13.9465 123.652 13.4664 123.412 13.0661C123.127 12.5821 122.726 12.3401 122.201 12.3401C121.66 12.3401 121.248 12.5821 120.964 13.0661C120.722 13.4664 120.602 13.9542 120.602 14.5309C120.602 15.0908 120.723 15.5709 120.964 15.9712C121.256 16.4552 121.663 16.6971 122.188 16.6971C122.703 16.6971 123.108 16.4513 123.399 15.9583C123.647 15.5503 123.773 15.0663 123.773 14.5064Z" fill="white"/>
<path d="M132.423 17.5466H131.075V14.0713C131.075 13.0004 130.668 12.4649 129.851 12.4649C129.451 12.4649 129.128 12.6117 128.878 12.9064C128.628 13.2012 128.503 13.5487 128.503 13.9465V17.5453H127.153V13.2128C127.153 12.6799 127.138 12.102 127.105 11.4764H128.29L128.353 12.425H128.39C128.548 12.1303 128.783 11.887 129.089 11.6927C129.456 11.4661 129.864 11.3516 130.313 11.3516C130.878 11.3516 131.349 11.5343 131.724 11.9012C132.191 12.3504 132.423 13.021 132.423 13.9117V17.5466Z" fill="white"/>
<path d="M141.502 12.4883H140.017V15.4359C140.017 16.185 140.281 16.5596 140.803 16.5596C141.045 16.5596 141.246 16.539 141.404 16.4965L141.439 17.5198C141.173 17.6202 140.822 17.6704 140.391 17.6704C139.858 17.6704 139.444 17.5082 139.144 17.1839C138.843 16.8595 138.693 16.3137 138.693 15.5479V12.4883H137.807V11.4779H138.693V10.3658L140.015 9.9668V11.4766H141.501V12.4883H141.502Z" fill="white"/>
<path d="M148.641 17.5461H147.29V14.0965C147.29 13.0089 146.884 12.4644 146.069 12.4644C145.443 12.4644 145.016 12.7798 144.782 13.4105C144.742 13.543 144.719 13.7052 144.719 13.8957V17.5448H143.371V8.69434H144.719V12.3511H144.744C145.169 11.6857 145.778 11.3536 146.567 11.3536C147.126 11.3536 147.588 11.5364 147.955 11.9032C148.412 12.3601 148.641 13.0398 148.641 13.9382V17.5461Z" fill="white"/>
<path d="M156.01 14.2267C156.01 14.4686 155.992 14.672 155.959 14.8381H151.914C151.932 15.4379 152.125 15.8948 152.5 16.2114C152.842 16.4946 153.283 16.6362 153.824 16.6362C154.423 16.6362 154.968 16.541 155.46 16.3492L155.671 17.2862C155.096 17.5359 154.419 17.6608 153.635 17.6608C152.695 17.6608 151.955 17.384 151.42 16.8306C150.882 16.2771 150.615 15.5344 150.615 14.6025C150.615 13.6873 150.864 12.9253 151.364 12.3178C151.887 11.6691 152.594 11.3447 153.486 11.3447C154.358 11.3447 155.021 11.6691 155.469 12.3178C155.831 12.8327 156.01 13.4698 156.01 14.2267ZM154.723 13.8778C154.733 13.4775 154.644 13.1326 154.461 12.8417C154.227 12.4671 153.87 12.2792 153.388 12.2792C152.948 12.2792 152.588 12.462 152.314 12.8288C152.09 13.121 151.958 13.4698 151.914 13.8778H154.723Z" fill="white"/>
</g>
<defs>
<clipPath id="clip0_8043_1475">
<rect width="173.765" height="51.4861" fill="white" transform="translate(0 0.256836)"/>
</clipPath>
</defs>
</svg>
