<svg width="175" height="52" viewBox="0 0 175 52" fill="none" xmlns="http://www.w3.org/2000/svg">
<g clip-path="url(#clip0_8043_1507)">
<path fill-rule="evenodd" clip-rule="evenodd" d="M168.093 51.6371H7.20375C3.65543 51.6371 0.765625 48.7473 0.765625 45.2278V6.77166C0.765625 3.23932 3.65543 0.362305 7.20375 0.362305H168.093C171.638 0.362305 174.531 3.23932 174.531 6.77166V45.2278C174.531 48.7473 171.638 51.6371 168.093 51.6371Z" fill="black"/>
<path fill-rule="evenodd" clip-rule="evenodd" d="M168.093 1.38844C171.069 1.38844 173.505 3.80833 173.505 6.77166V45.2278C173.505 48.1911 171.085 50.611 168.093 50.611H7.20375C4.22764 50.611 1.79176 48.1911 1.79176 45.2278V6.77166C1.79176 3.80833 4.21165 1.38844 7.20375 1.38844H168.093ZM168.093 0.362305H7.20375C3.65543 0.362305 0.765625 3.25211 0.765625 6.77166V45.2278C0.765625 48.7601 3.65543 51.6371 7.20375 51.6371H168.093C171.638 51.6371 174.531 48.7601 174.531 45.2278V6.77166C174.531 3.25211 171.638 0.362305 168.093 0.362305Z" fill="#A6A6A6"/>
<path d="M92.3057 17.3222C91.1453 17.3222 90.1671 16.9162 89.3936 16.1171C88.6264 15.3403 88.198 14.2694 88.2172 13.1761C88.2172 12.0093 88.6136 11.0215 89.3936 10.2384C90.1639 9.43918 91.1421 9.0332 92.3025 9.0332C93.4501 9.0332 94.4283 9.43918 95.2147 10.2384C95.9947 11.0471 96.391 12.0349 96.391 13.1761C96.3783 14.3461 95.9819 15.3339 95.2147 16.1139C94.4443 16.9194 93.4661 17.3222 92.3057 17.3222ZM57.7785 17.3222C56.6437 17.3222 55.6591 16.9226 54.8536 16.133C54.0544 15.3467 53.6484 14.3525 53.6484 13.1793C53.6484 12.0061 54.0544 11.012 54.8536 10.2256C55.6432 9.43599 56.6277 9.0364 57.7785 9.0364C58.3411 9.0364 58.8878 9.14828 59.412 9.37525C59.9267 9.59582 60.3455 9.89631 60.6555 10.2639L60.7322 10.3566L59.866 11.2069L59.7764 11.1015C59.2874 10.5197 58.632 10.2352 57.7657 10.2352C56.9921 10.2352 56.3177 10.5101 55.7614 11.0535C55.202 11.6001 54.9175 12.3162 54.9175 13.1825C54.9175 14.0488 55.202 14.7649 55.7614 15.3115C56.3177 15.8549 56.9921 16.1298 57.7657 16.1298C58.5905 16.1298 59.2842 15.8549 59.8244 15.3115C60.1441 14.9918 60.3423 14.5443 60.4126 13.9785H57.6347V12.7829H61.6049L61.6209 12.8916C61.6497 13.093 61.6785 13.3008 61.6785 13.4926C61.6785 14.5954 61.346 15.4873 60.6875 16.1458C59.9395 16.9258 58.9613 17.3222 57.7785 17.3222ZM103.686 17.1528H102.462L98.7118 11.1526L98.7438 12.2331V17.1496H97.5195V9.20582H98.9164L98.9548 9.26656L102.481 14.9183L102.449 13.841V9.20582H103.686V17.1528ZM83.1057 17.1528H81.8654V10.4014H79.714V9.20582H85.2539V10.4014H83.1025V17.1528H83.1057ZM78.7039 17.1528H77.4668V9.20582H78.7039V17.1528ZM71.7512 17.1528H70.514V10.4014H68.3627V9.20582H73.9025V10.4014H71.7512V17.1528ZM67.5795 17.14H62.8357V9.20582H67.5795V10.4014H64.076V12.5815H67.2375V13.7643H64.076V15.9444H67.5795V17.14ZM90.3014 15.2955C90.8544 15.8485 91.5257 16.1267 92.3057 16.1267C93.1081 16.1267 93.7634 15.8549 94.31 15.2955C94.8535 14.7521 95.1284 14.0392 95.1284 13.1793C95.1284 12.3194 94.8535 11.6033 94.3132 11.0631C93.7602 10.5101 93.0857 10.232 92.3089 10.232C91.5065 10.232 90.8512 10.5037 90.3078 11.0631C89.7644 11.6065 89.4895 12.3194 89.4895 13.1793C89.4895 14.0392 89.7612 14.7553 90.3014 15.2955Z" fill="white"/>
<path fill-rule="evenodd" clip-rule="evenodd" d="M88.1012 28.2498C85.0803 28.2498 82.6316 30.5419 82.6316 33.7034C82.6316 36.8361 85.0963 39.1569 88.1012 39.1569C91.1221 39.1569 93.5707 36.8489 93.5707 33.7034C93.5707 30.5419 91.1221 28.2498 88.1012 28.2498ZM88.1012 36.996C86.4485 36.996 85.026 35.6278 85.026 33.6906C85.026 31.7246 86.4517 30.3852 88.1012 30.3852C89.7539 30.3852 91.1764 31.7246 91.1764 33.6906C91.1796 35.6406 89.7539 36.996 88.1012 36.996ZM76.1679 28.2498C73.1471 28.2498 70.6984 30.5419 70.6984 33.7034C70.6984 36.8361 73.163 39.1569 76.1679 39.1569C79.1888 39.1569 81.6375 36.8489 81.6375 33.7034C81.6375 30.5419 79.1856 28.2498 76.1679 28.2498ZM76.1679 36.996C74.5152 36.996 73.0927 35.6278 73.0927 33.6906C73.0927 31.7246 74.5184 30.3852 76.1679 30.3852C77.8206 30.3852 79.2431 31.7246 79.2431 33.6906C79.2431 35.6406 77.8206 36.996 76.1679 36.996ZM61.9682 29.9153V32.2233H67.5081C67.3387 33.518 66.9103 34.4738 66.255 35.1291C65.443 35.9411 64.1899 36.8233 61.981 36.8233C58.5765 36.8233 55.9137 34.0742 55.9137 30.6697C55.9137 27.2653 58.5765 24.5161 61.981 24.5161C63.8191 24.5161 65.1585 25.2418 66.1527 26.1688L67.7894 24.5321C66.4084 23.2087 64.5703 22.1953 61.9938 22.1953C57.3234 22.1953 53.4043 25.9994 53.4043 30.6569C53.4043 35.3273 57.3202 39.1186 61.9938 39.1186C64.516 39.1186 66.4084 38.2938 67.9045 36.7402C69.4293 35.2154 69.912 33.064 69.912 31.3282C69.912 30.788 69.8705 30.3021 69.7841 29.8897H61.965C61.9682 29.8865 61.9682 29.9153 61.9682 29.9153ZM120.049 31.7118C119.592 30.4875 118.211 28.237 115.379 28.237C112.572 28.237 110.238 30.446 110.238 33.6906C110.238 36.753 112.546 39.1441 115.65 39.1441C118.144 39.1441 119.595 37.6193 120.193 36.7242L118.342 35.4839C117.728 36.395 116.875 36.9928 115.663 36.9928C114.439 36.9928 113.582 36.4365 113.013 35.3401L120.305 32.3192C120.305 32.3224 120.049 31.7118 120.049 31.7118ZM112.613 33.534C112.556 31.4273 114.25 30.3565 115.462 30.3565C116.417 30.3565 117.213 30.8264 117.485 31.5105L112.613 33.534ZM106.69 38.8181H109.084V22.7963H106.69V38.8181ZM102.758 29.4614H102.672C102.131 28.8188 101.105 28.237 99.7947 28.237C97.0743 28.237 94.5681 30.6314 94.5681 33.7066C94.5681 36.769 97.0615 39.1346 99.7947 39.1346C101.089 39.1346 102.131 38.5496 102.672 37.8942H102.758V38.6774C102.758 40.7585 101.646 41.8805 99.8522 41.8805C98.3849 41.8805 97.4739 40.8256 97.1031 39.9433L95.022 40.8128C95.6198 42.2513 97.2149 44.0319 99.849 44.0319C102.656 44.0319 105.034 42.3792 105.034 38.3482V28.5631H102.771V29.4614C102.774 29.4614 102.758 29.4614 102.758 29.4614ZM100.009 36.996C98.3562 36.996 96.9752 35.615 96.9752 33.7066C96.9752 31.7822 98.3562 30.3884 100.009 30.3884C101.646 30.3884 102.915 31.7982 102.915 33.7066C102.931 35.615 101.649 36.996 100.009 36.996ZM131.26 22.7963H125.534V38.8181H127.929V32.7508H131.263C133.913 32.7508 136.518 30.8296 136.518 27.7799C136.518 24.7303 133.923 22.7963 131.26 22.7963ZM131.33 30.5131H127.926V25.0148H131.33C133.123 25.0148 134.137 26.4949 134.137 27.7639C134.137 29.0202 133.111 30.5131 131.33 30.5131ZM146.115 28.2211C144.376 28.2211 142.582 28.9915 141.841 30.6697L143.963 31.552C144.42 30.6697 145.258 30.3692 146.143 30.3692C147.384 30.3692 148.637 31.1109 148.666 32.4343V32.6037C148.237 32.3608 147.298 31.99 146.172 31.99C143.88 31.99 141.556 33.2431 141.556 35.5926C141.556 37.744 143.436 39.125 145.53 39.125C147.138 39.125 148.023 38.3993 148.576 37.5586H148.662V38.7989H150.97V32.6613C150.97 29.8034 148.848 28.2211 146.115 28.2211ZM145.814 36.996C145.031 36.996 143.935 36.6124 143.935 35.6278C143.935 34.3875 145.303 33.9176 146.47 33.9176C147.524 33.9176 148.023 34.1445 148.65 34.4578C148.477 35.8963 147.262 36.9832 145.814 36.996ZM159.391 28.5631L156.641 35.5127H156.555L153.707 28.5631H151.13L155.404 38.2778L152.968 43.677H155.462L162.037 28.5631H159.391ZM137.838 38.8181H140.233V22.7963H137.838V38.8181Z" fill="white"/>
<path fill-rule="evenodd" clip-rule="evenodd" d="M14.1397 10.0189C13.7689 10.4185 13.5547 11.0291 13.5547 11.8283V40.1732C13.5547 40.9724 13.7689 41.583 14.1525 41.9666L14.2516 42.0529L30.1328 26.1718V25.8169L14.2388 9.93262L14.1397 10.0189Z" fill="url(#paint0_linear_8043_1507)"/>
<path fill-rule="evenodd" clip-rule="evenodd" d="M35.4199 31.4832L30.123 26.1863V25.8155L35.4199 20.5186L35.535 20.5889L41.8005 24.15C43.5938 25.1601 43.5938 26.8288 41.8005 27.8518L35.535 31.4129L35.4199 31.4832Z" fill="url(#paint1_linear_8043_1507)"/>
<path fill-rule="evenodd" clip-rule="evenodd" d="M35.5328 31.411L30.1209 25.999L14.1406 41.9793C14.7256 42.6058 15.707 42.6761 16.8035 42.0656L35.5328 31.411Z" fill="url(#paint2_linear_8043_1507)"/>
<path fill-rule="evenodd" clip-rule="evenodd" d="M35.5328 20.5861L16.8035 9.94753C15.707 9.32098 14.7224 9.40729 14.1406 10.0338L30.1209 25.9981L35.5328 20.5861Z" fill="url(#paint3_linear_8043_1507)"/>
<path opacity="0.2" fill-rule="evenodd" clip-rule="evenodd" d="M35.4147 31.2969L16.8132 41.8652C15.7743 42.463 14.8473 42.4215 14.2495 41.878L14.1504 41.9771L14.2495 42.0634C14.8473 42.6037 15.7743 42.6484 16.8132 42.0506L35.5426 31.412L35.4147 31.2969Z" fill="black"/>
<path opacity="0.12" fill-rule="evenodd" clip-rule="evenodd" d="M41.7989 27.6645L35.4023 31.2959L35.5174 31.411L41.7829 27.8499C42.6812 27.3384 43.1223 26.6671 43.1223 25.999C43.068 26.6128 42.6109 27.1946 41.7989 27.6645Z" fill="black"/>
<path opacity="0.25" fill-rule="evenodd" clip-rule="evenodd" d="M16.8025 10.1356L41.7975 24.3353C42.6094 24.7924 43.0666 25.3902 43.1369 26.0008C43.1369 25.3327 42.6957 24.6614 41.7975 24.1499L16.8025 9.95019C15.0092 8.92405 13.5547 9.78077 13.5547 11.8298V12.0153C13.5547 9.96298 15.0092 9.12225 16.8025 10.1356Z" fill="white"/>
</g>
<defs>
<linearGradient id="paint0_linear_8043_1507" x1="28.7083" y1="11.5224" x2="3.26933" y2="18.3007" gradientUnits="userSpaceOnUse">
<stop stop-color="#00A0FF"/>
<stop offset="0.00657" stop-color="#00A1FF"/>
<stop offset="0.2601" stop-color="#00BEFF"/>
<stop offset="0.5122" stop-color="#00D2FF"/>
<stop offset="0.7604" stop-color="#00DFFF"/>
<stop offset="1" stop-color="#00E3FF"/>
</linearGradient>
<linearGradient id="paint1_linear_8043_1507" x1="44.1391" y1="26.0009" x2="13.1221" y2="26.0009" gradientUnits="userSpaceOnUse">
<stop stop-color="#FFE000"/>
<stop offset="0.4087" stop-color="#FFBD00"/>
<stop offset="0.7754" stop-color="#FFA500"/>
<stop offset="1" stop-color="#FF9C00"/>
</linearGradient>
<linearGradient id="paint2_linear_8043_1507" x1="32.59" y1="28.9439" x2="12.1678" y2="63.3161" gradientUnits="userSpaceOnUse">
<stop stop-color="#FF3A44"/>
<stop offset="1" stop-color="#C31162"/>
</linearGradient>
<linearGradient id="paint3_linear_8043_1507" x1="10.1166" y1="0.589861" x2="19.2278" y2="15.941" gradientUnits="userSpaceOnUse">
<stop stop-color="#32A071"/>
<stop offset="0.0685" stop-color="#2DA771"/>
<stop offset="0.4762" stop-color="#15CF74"/>
<stop offset="0.8009" stop-color="#06E775"/>
<stop offset="1" stop-color="#00F076"/>
</linearGradient>
<clipPath id="clip0_8043_1507">
<rect width="173.765" height="51.2748" fill="white" transform="translate(0.765625 0.362305)"/>
</clipPath>
</defs>
</svg>
