<svg width="16" height="16" viewBox="0 0 16 16" fill="none" xmlns="http://www.w3.org/2000/svg">
<path d="M1.60001 7.28882C1.60001 10.8444 4.44445 13.6888 8.00001 13.6888C11.5111 13.6888 14.4 10.8444 14.4 7.28882V8.71104C14.4 12.2666 11.5556 15.111 8.00001 15.111C4.48889 15.111 1.60001 12.2666 1.60001 8.71104V7.28882Z" fill="#FFB961"/>
<path d="M1.60001 7.28882C1.60001 10.8444 4.44445 13.6888 8.00001 13.6888C11.5111 13.6888 14.4 10.8444 14.4 7.28882V8.71104C14.4 12.2666 11.5556 15.111 8.00001 15.111C4.48889 15.111 1.60001 12.2666 1.60001 8.71104V7.28882Z" fill="#F3A250"/>
<g opacity="0.6">
<path d="M8 13.6888C6.71111 13.6888 5.46667 13.2888 4.48889 12.6222V14.0444C5.51111 14.711 6.71111 15.111 8 15.111C11.5111 15.111 14.4 12.2666 14.4 8.71104V7.28882C14.4 10.7999 11.5111 13.6888 8 13.6888Z" fill="#EF7B56"/>
</g>
<path d="M9.11111 13.5555V14.9777C12.0889 14.4444 14.4 11.8222 14.4 8.66661V7.24438C14.4 10.4444 12.1333 13.0222 9.11111 13.5555Z" fill="#F3A250"/>
<g opacity="0.6">
<path d="M12.7111 11.5999V13.0222C13.7778 11.8666 14.4 10.3555 14.4 8.71104V7.28882C14.4 8.93326 13.7333 10.4444 12.7111 11.5999Z" fill="#EF7B56"/>
</g>
<path d="M14.4 7.28892C14.4 10.8445 11.5556 13.6889 8.00001 13.6889C4.80001 13.6889 2.17779 11.3778 1.6889 8.31114C1.06668 4.48892 4.00001 0.888916 8.00001 0.888916C10.7111 0.888916 13.0667 2.57781 13.9556 5.02225C14.2667 5.68892 14.4 6.48892 14.4 7.28892Z" fill="#F9CF6B"/>
<g opacity="0.4">
<path d="M3.15556 10.5335C4.44445 12.089 6.22223 12.889 8.00001 12.889C9.77779 12.889 11.5556 12.089 12.8445 10.489C11.9556 12.089 10.1778 13.2446 8.00001 13.289C5.86667 13.289 4.04445 12.089 3.15556 10.5335Z" fill="white"/>
</g>
<g opacity="0.2">
<path d="M13.4222 4.9333C12.3111 2.79996 10.2222 1.55552 8.00001 1.55552C5.77779 1.55552 3.6889 2.79996 2.57779 4.88885C3.2889 2.84441 5.42223 1.19996 8.00001 1.15552C10.5778 1.19996 12.6667 2.84441 13.4222 4.9333Z" fill="white"/>
</g>
<g opacity="0.4">
<path d="M3.15556 10.5335C4.44445 12.089 6.22223 12.889 8.00001 12.889C9.77779 12.889 11.5556 12.089 12.8445 10.489C11.9556 12.089 10.1778 13.2446 8.00001 13.289C5.86667 13.289 4.04445 12.089 3.15556 10.5335Z" fill="white"/>
</g>
<path d="M12.8445 7.28902C12.8445 9.95569 10.6667 12.1335 8.00001 12.1335C5.33334 12.1335 3.15556 9.95569 3.15556 7.28902C3.15556 4.62236 5.33334 2.44458 8.00001 2.44458C10.6667 2.44458 12.8445 4.62236 12.8445 7.28902Z" fill="#F3A250"/>
<path d="M9.6 7.99992L9.86667 9.68881C9.91111 9.95547 9.64445 10.1333 9.42223 10.0444L7.91111 9.24436C7.82223 9.19992 7.68889 9.19992 7.6 9.24436L6.08889 10.0444C5.86667 10.1777 5.6 9.95547 5.64445 9.68881L5.91111 7.99992C5.91111 7.91103 5.91111 7.7777 5.82223 7.73325L4.57778 6.53325C4.4 6.35547 4.48889 6.04436 4.75556 5.99992L6.44445 5.73325C6.53334 5.73325 6.62223 5.64436 6.66667 5.55547L7.46667 3.99992C7.6 3.7777 7.91111 3.7777 8.04445 3.99992L8.8 5.55547C8.84445 5.64436 8.93334 5.73325 9.02223 5.73325L10.7111 5.99992C10.9778 6.04436 11.0667 6.35547 10.8889 6.53325L9.64445 7.73325C9.6 7.7777 9.55556 7.91103 9.6 7.99992Z" fill="#EF7B56"/>
<path d="M12.3556 9.37791C13.6444 6.31125 11.3778 2.84458 8.00001 2.84458C4.66667 2.84458 2.35556 6.22236 3.60001 9.33347C2.13334 6.13347 4.44445 2.44458 8.00001 2.44458C11.6 2.44458 13.9111 6.22236 12.3556 9.37791Z" fill="#EF7B56"/>
<path d="M9.86667 8.26676L10.1333 9.95565C10.1778 10.2223 9.91111 10.4001 9.68889 10.3112L8.17778 9.51121C8.08889 9.46676 7.95555 9.46676 7.86667 9.51121L6.35555 10.3112C6.13333 10.4445 5.86667 10.2223 5.91111 9.95565L6.17778 8.26676C6.17778 8.17788 6.17778 8.04454 6.08889 8.0001L4.84444 6.8001C4.66667 6.62232 4.75555 6.31121 5.02222 6.26676L6.71111 6.0001C6.8 6.0001 6.88889 5.91121 6.93333 5.82232L7.68889 4.26676C7.82222 4.04454 8.13333 4.04454 8.26667 4.26676L9.02222 5.82232C9.06667 5.91121 9.15555 6.0001 9.24444 6.0001L10.9333 6.26676C11.2 6.31121 11.2889 6.62232 11.1111 6.8001L9.95555 8.0001C9.86667 8.04454 9.82222 8.17788 9.86667 8.26676Z" fill="#F9CF6B"/>
<g opacity="0.5">
<path d="M5.15556 6.84446C4.97778 6.66668 5.06667 6.40001 5.33333 6.35557L6.84444 6.13334C6.93333 6.13334 7.02222 6.04446 7.06667 6.00001L7.73333 4.62223C7.82222 4.40001 8.13333 4.40001 8.22222 4.62223L8.88889 6.00001C8.93333 6.0889 9.02222 6.13334 9.11111 6.13334L10.6222 6.35557C10.8444 6.40001 10.9333 6.66668 10.8 6.84446C10.8 6.84446 9.82222 7.91112 7.91111 7.91112C6.44444 7.91112 5.15556 6.84446 5.15556 6.84446Z" fill="white"/>
</g>
<g opacity="0.7">
<path d="M8.04445 5.55563C7.91112 5.86674 7.68889 6.08896 7.6 6.04452C7.51112 6.00008 7.46667 5.68896 7.6 5.37785C7.73334 5.06674 7.95556 4.84452 8.04445 4.88896C8.13334 4.93341 8.17778 5.24452 8.04445 5.55563Z" fill="white"/>
</g>
<path d="M5.55557 4.13343C5.42224 4.13343 5.33335 4.17787 5.24446 4.22231C5.2889 4.26676 5.64446 4.62231 5.60001 4.66676C5.55557 4.7112 5.20001 4.35565 5.15557 4.3112C5.11112 4.40009 5.06668 4.48898 5.06668 4.62231C5.06668 5.1112 5.02224 5.42231 4.93335 5.42231C4.8889 5.42231 4.84446 5.1112 4.80001 4.62231C4.80001 4.48898 4.75557 4.40009 4.71112 4.3112C4.66668 4.35565 4.31112 4.7112 4.26668 4.66676C4.22224 4.62231 4.57779 4.26676 4.62223 4.22231C4.53335 4.17787 4.44446 4.13343 4.31112 4.13343C3.24446 4.08898 3.24446 3.95565 4.31112 3.9112C4.40001 3.9112 4.53335 3.86676 4.62223 3.82231C4.57779 3.77787 4.22224 3.42231 4.26668 3.37787C4.31112 3.33343 4.66668 3.68898 4.71112 3.73343C4.75557 3.64454 4.80001 3.55565 4.80001 3.42231C4.84446 2.35565 4.97779 2.35565 5.02224 3.42231C5.02224 3.5112 5.06668 3.64454 5.11112 3.73343C5.15557 3.68898 5.51112 3.33343 5.55557 3.37787C5.60001 3.42231 5.46668 3.60009 5.24446 3.82231V3.86676C5.33335 3.9112 5.42224 3.95565 5.55557 3.95565C6.04446 3.95565 6.35557 4.00009 6.35557 4.08898C6.35557 4.08898 6.04446 4.13343 5.55557 4.13343Z" fill="white"/>
<g opacity="0.2">
<path d="M13.4222 4.9333C12.3111 2.79996 10.2222 1.55552 8.00001 1.55552C5.77779 1.55552 3.6889 2.79996 2.57779 4.88885C3.2889 2.84441 5.42223 1.19996 8.00001 1.15552C10.5778 1.19996 12.6667 2.84441 13.4222 4.9333Z" fill="white"/>
</g>
</svg>
