<svg width="16" height="16" viewBox="0 0 16 16" fill="none" xmlns="http://www.w3.org/2000/svg">
<path d="M8.23021 14.0184C10.0656 14.0184 11.5535 13.6058 11.5535 13.097C11.5535 12.5881 10.0656 12.1755 8.23021 12.1755C6.3948 12.1755 4.90691 12.5881 4.90691 13.097C4.90691 13.6058 6.3948 14.0184 8.23021 14.0184Z" fill="#151147"/>
<path fill-rule="evenodd" clip-rule="evenodd" d="M4 5.23018C4 2.89391 5.89391 1 8.23018 1C10.5664 1 12.4604 2.89391 12.4604 5.23018C12.4604 6.01335 12.2358 6.78009 11.8134 7.43952L8.23018 13.0328L4.647 7.43952C4.22453 6.78006 4 6.01331 4 5.23018Z" fill="#F44336"/>
<path d="M8.59246 6.98398C9.55922 6.78569 10.1822 5.84123 9.98391 4.87447C9.78563 3.9077 8.84117 3.28473 7.87441 3.48301C6.90764 3.6813 6.28467 4.62576 6.48295 5.59252C6.68124 6.55929 7.6257 7.18226 8.59246 6.98398Z" fill="#C62828"/>
</svg>
