<svg width="20" height="20" viewBox="0 0 20 20" fill="none" xmlns="http://www.w3.org/2000/svg">
<g id="arrowhead 1">
<g id="Arrow-23">
<path id="Vector" d="M7.57524 10.6338C7.66437 10.4337 7.71043 10.2171 7.71043 9.99804C7.71043 9.77898 7.66437 9.56238 7.57524 9.36228L4.79772 3.12659C4.0337 1.63414 5.616 0.775821 6.58284 1.5267C8.37699 2.92008 12.9227 7.11354 14.981 9.02707C15.1145 9.15114 15.221 9.30139 15.2938 9.46846C15.3666 9.63552 15.4042 9.8158 15.4042 9.99804C15.4042 10.1803 15.3666 10.3606 15.2938 10.5276C15.221 10.6947 15.1145 10.8449 14.981 10.969C12.9227 12.8825 8.37699 17.076 6.58284 18.4694C5.59206 19.2388 4.04795 18.3341 4.79772 16.8695L7.57524 10.6338Z" fill="url(#paint0_linear_8430_624)"/>
</g>
</g>
<defs>
<linearGradient id="paint0_linear_8430_624" x1="4.59584" y1="1.25" x2="16.1836" y2="1.78233" gradientUnits="userSpaceOnUse">
<stop stop-color="#2B59FF"/>
<stop offset="1" stop-color="#BB2BFF"/>
</linearGradient>
</defs>
</svg>
