<svg width="36" height="36" viewBox="0 0 36 36" fill="none" xmlns="http://www.w3.org/2000/svg">
<g id="dollar 1" clip-path="url(#clip0_8430_376)">
<g id="Currency">
<g id="Dollar">
<g id="Coin">
<g id="Bottom">
<path id="Vector" d="M18 36C27.514 36 35.2266 27.9411 35.2266 18C35.2266 8.05887 27.514 0 18 0C8.48603 0 0.773438 8.05887 0.773438 18C0.773438 27.9411 8.48603 36 18 36Z" fill="#E88102"/>
<path id="Vector_2" d="M18 34.1016C27.4169 34.1016 35.0508 26.4677 35.0508 17.0508C35.0508 7.63389 27.4169 0 18 0C8.58311 0 0.949219 7.63389 0.949219 17.0508C0.949219 26.4677 8.58311 34.1016 18 34.1016Z" fill="#FDD835"/>
</g>
<g id="Shade">
<path id="Vector_3" opacity="0.5" d="M24.8063 1.41333L2.36251 23.85C1.61016 22.1274 1.13907 20.2571 0.998444 18.2954L19.2445 0.0422363C21.2063 0.189893 23.0766 0.660986 24.8063 1.41333Z" fill="white"/>
<path id="Vector_4" opacity="0.5" d="M32.857 8.68359L9.63281 31.9078C8.18438 31.0922 6.87656 30.0727 5.73047 28.8844L29.8406 4.78125C31.0219 5.92031 32.0414 7.23516 32.857 8.68359Z" fill="white"/>
<path id="Vector_5" opacity="0.5" d="M29.1445 4.14131L5.09765 28.1882C4.725 27.7522 4.3664 27.2952 4.03593 26.8241L27.7805 3.07959C28.2516 3.41006 28.7086 3.76865 29.1445 4.14131Z" fill="white"/>
<path id="Vector_6" opacity="0.5" d="M34.5164 12.7968L13.7461 33.5671C13.1203 33.4054 12.5086 33.2085 11.9109 32.9835L33.9328 10.9617C34.1578 11.5593 34.3547 12.171 34.5164 12.7968Z" fill="white"/>
<path id="Vector_7" opacity="0.5" d="M35.0508 17.0508C35.0508 17.1703 35.0508 17.2828 35.0438 17.4023C34.8609 8.14922 27.3023 0.703125 18 0.703125C8.69766 0.703125 1.13906 8.14922 0.95625 17.4023C0.95625 17.2828 0.949219 17.1703 0.949219 17.0508C0.949219 7.63594 8.58516 0 18 0C27.4148 0 35.0508 7.63594 35.0508 17.0508Z" fill="white"/>
<path id="Vector_8" opacity="0.5" d="M31.8516 17.7891C31.8516 25.1648 25.868 31.1484 18.4922 31.1484C14.3508 31.1484 10.6453 29.257 8.19141 26.2969C10.6313 28.9336 14.1188 30.5859 18 30.5859C25.3758 30.5859 31.3594 24.6023 31.3594 17.2266C31.3594 13.9922 30.2133 11.032 28.3008 8.71875C30.5016 11.1023 31.8516 14.2875 31.8516 17.7891Z" fill="white"/>
</g>
<g id="Top">
<path id="Vector_9" d="M18 30.5859C25.3782 30.5859 31.3594 24.6047 31.3594 17.2266C31.3594 9.84838 25.3782 3.86719 18 3.86719C10.6218 3.86719 4.64062 9.84838 4.64062 17.2266C4.64062 24.6047 10.6218 30.5859 18 30.5859Z" fill="#F39E09"/>
<path id="Vector_10" d="M28.125 8.50781C25.7836 6.48984 22.7391 5.27344 19.4062 5.27344C12.0305 5.27344 6.04688 11.257 6.04688 18.6328C6.04688 21.9656 7.26328 25.0102 9.28125 27.3516C6.44062 24.8977 4.64062 21.2766 4.64062 17.2266C4.64062 9.85078 10.6242 3.86719 18 3.86719C22.043 3.86719 25.6711 5.66719 28.125 8.50781Z" fill="#E88102"/>
</g>
</g>
<g id="Icon">
<path id="Bottom-2" d="M17.1633 13.8234C16.9242 14.0977 16.7977 14.4773 16.7977 14.9625C16.7977 15.4477 16.9383 15.8484 17.2195 16.1367C17.5008 16.425 17.9508 16.6992 18.5695 16.9664C19.1883 17.2266 19.7719 17.5008 20.3203 17.782C20.8687 18.0633 21.3398 18.3867 21.7406 18.7453C22.1414 19.1039 22.4508 19.5258 22.6758 20.0039C22.7602 20.1867 23.0133 20.5312 23.0133 20.5312C23.0133 20.5312 23.0133 21.6984 23.0133 21.7336C23.0133 22.8727 22.6547 23.8008 21.9305 24.518C21.2062 25.2352 20.2289 25.657 18.9844 25.7766V27.7734H17.3953V25.7555C15.9469 25.6008 14.8359 25.1086 14.0555 24.2648C13.282 23.4211 12.8953 22.3172 12.8953 20.9391V19.8844L16.2562 20.9391C16.2562 21.6984 16.425 22.275 16.7625 22.6687C17.1 23.0625 17.5781 23.2594 18.1969 23.2594C18.6469 23.2594 19.0055 23.1258 19.2656 22.8516C19.5258 22.5773 19.6523 22.2117 19.6523 21.7406C19.6523 21.2133 19.5258 20.8055 19.2656 20.5031C19.0055 20.2008 18.5484 19.9195 17.9016 19.6523C17.2477 19.3852 16.65 19.118 16.0945 18.8438C15.5391 18.5695 15.068 18.2531 14.6672 17.8945C14.2664 17.5359 13.9641 17.1211 13.7461 16.65C13.5352 16.1789 13.4297 15.6094 13.4297 14.9344V13.8164C13.4297 13.8164 14.0555 12.6422 14.5687 12.157C15.3281 11.4258 16.3406 11.0039 17.5992 10.8844V8.78906H19.1883V10.9336C20.4047 11.1164 21.3609 11.6156 22.057 12.4383C22.5352 13.0008 23.0977 14.5125 23.0977 14.5125V15.5672H19.7227C19.7227 14.8781 19.5891 14.3438 19.3219 13.9711C19.0547 13.5984 18.675 13.4156 18.1828 13.4156C17.7469 13.4086 17.4094 13.5492 17.1633 13.8234Z" fill="#DB6704"/>
<path id="Top-2" d="M19.6523 20.693C19.6523 20.1656 19.5258 19.7578 19.2656 19.4555C19.0055 19.1531 18.5484 18.8719 17.9016 18.6047C17.2477 18.3375 16.65 18.0703 16.0945 17.7961C15.5391 17.5219 15.068 17.2055 14.6672 16.8469C14.2664 16.4883 13.9641 16.0734 13.7461 15.6023C13.5351 15.1312 13.4297 14.5547 13.4297 13.8867C13.4297 12.7617 13.8094 11.8336 14.5687 11.1094C15.3281 10.3852 16.3406 9.95625 17.5992 9.83672V7.73438H19.1883V9.87891C20.4047 10.0617 21.3609 10.5609 22.057 11.3836C22.7531 12.2062 23.0976 13.2469 23.0976 14.5125H19.7227C19.7227 13.8234 19.5891 13.2891 19.3219 12.9164C19.0547 12.5437 18.675 12.3609 18.1828 12.3609C17.7469 12.3609 17.4023 12.5016 17.1633 12.7758C16.9242 13.05 16.7976 13.4297 16.7976 13.9148C16.7976 14.4 16.9383 14.8008 17.2195 15.0891C17.5008 15.3773 17.9508 15.6516 18.5625 15.9187C19.1812 16.1789 19.7648 16.4531 20.3133 16.7344C20.8617 17.0156 21.3328 17.3391 21.7336 17.6977C22.1344 18.0562 22.4437 18.4781 22.6687 18.9563C22.8937 19.4344 23.0062 20.0109 23.0062 20.6789C23.0062 21.818 22.6476 22.7461 21.9234 23.4633C21.1992 24.1805 20.2219 24.6023 18.9773 24.7219V26.7188H17.3883V24.7008C15.9398 24.5461 14.8289 24.0539 14.0484 23.2102C13.275 22.3664 12.8883 21.2625 12.8883 19.8844H16.2492C16.2492 20.6437 16.418 21.2203 16.7555 21.6141C17.093 22.0078 17.5711 22.2047 18.1898 22.2047C18.6398 22.2047 18.9984 22.0711 19.2586 21.7969C19.5187 21.5227 19.6523 21.1641 19.6523 20.693Z" fill="#FDD835"/>
<g id="Shade-2">
<path id="Vector_11" opacity="0.5" d="M14.5687 11.1094C14.9766 10.7156 15.4617 10.4133 16.0172 10.1953L13.6336 12.5859C13.8164 12.0234 14.1258 11.5383 14.5687 11.1094Z" fill="white"/>
<path id="Vector_12" opacity="0.5" d="M18.4781 7.73438L17.5992 8.61328V7.73438H18.4781Z" fill="white"/>
<path id="Vector_13" opacity="0.5" d="M22.6477 18.8929L16.9031 24.6374C15.6937 24.4335 14.7445 23.9554 14.0625 23.2171C13.6195 22.7319 13.3031 22.1624 13.1133 21.5085L14.7305 19.8913H16.2633C16.2633 20.6507 16.432 21.2272 16.7695 21.621C17.107 22.0147 17.5852 22.2116 18.2039 22.2116C18.6539 22.2116 19.0125 22.078 19.2727 21.8038C19.5328 21.5296 19.6594 21.164 19.6594 20.6929C19.6594 20.1655 19.5328 19.7577 19.2727 19.4554C19.0125 19.153 18.5555 18.8718 17.9086 18.6046C17.4445 18.4147 17.0086 18.2249 16.5938 18.028L18.675 15.9468C19.2586 16.1999 19.807 16.453 20.3273 16.7202C20.8758 17.0015 21.3469 17.3249 21.7477 17.6835C22.1273 18.0351 22.4297 18.4358 22.6477 18.8929Z" fill="white"/>
<path id="Vector_14" opacity="0.5" d="M23.0977 14.5054H20.1094L22.5352 12.0796C22.9078 12.7687 23.0977 13.5772 23.0977 14.5054Z" fill="white"/>
<path id="Vector_15" opacity="0.5" d="M12.9023 19.8843H13.4016L12.9234 20.3624C12.9094 20.2077 12.9023 20.046 12.9023 19.8843Z" fill="white"/>
<path id="Vector_16" opacity="0.5" d="M17.2195 15.082C17.3602 15.2296 17.543 15.3703 17.775 15.5109L15.6937 17.5921C15.307 17.3742 14.9625 17.1281 14.6672 16.8539C14.5477 16.7484 14.4422 16.6359 14.3438 16.5234L16.8117 14.0554C16.8328 14.4773 16.9734 14.8218 17.2195 15.082Z" fill="white"/>
<path id="Vector_17" opacity="0.5" d="M21.9867 11.2993L19.6383 13.6478C19.575 13.3595 19.4695 13.1134 19.3289 12.9165C19.118 12.6212 18.8367 12.4454 18.4852 12.3821L20.5875 10.2798C21.1289 10.5259 21.593 10.8634 21.9867 11.2993Z" fill="white"/>
<path id="Vector_18" opacity="0.5" d="M18.1687 26.7187L18.9844 25.9031V26.7187H18.1687Z" fill="white"/>
<path id="Vector_19" opacity="0.5" d="M22.7953 22.0923C22.6195 22.6126 22.3312 23.0626 21.9375 23.4563C21.5437 23.8501 21.0727 24.1524 20.5242 24.3634L22.7953 22.0923Z" fill="white"/>
<path id="Vector_20" opacity="0.25" d="M29.1445 9.85078C20.4961 12.8883 13.5492 19.5609 10.1461 28.0336C9.85078 27.8156 9.5625 27.5906 9.28125 27.3445C7.26328 25.0031 6.04688 21.9586 6.04688 18.6328C6.04688 11.257 12.0305 5.27344 19.4062 5.27344C22.7391 5.27344 25.7836 6.48984 28.118 8.50781C28.4906 8.93672 28.8281 9.38672 29.1445 9.85078Z" fill="white"/>
</g>
</g>
</g>
</g>
</g>
<defs>
<clipPath id="clip0_8430_376">
<rect width="36" height="36" fill="white"/>
</clipPath>
</defs>
</svg>
