<svg width="25" height="24" viewBox="0 0 25 24" fill="none" xmlns="http://www.w3.org/2000/svg">
<g id="badge 1">
<g id="Group">
<g id="Group_2">
<g id="Group_3">
<path id="Vector" d="M1.28909 10.1091C1.15455 9.95639 1.26364 9.71639 1.46727 9.71639H6.46364V14.28H1.46364C1.26 14.28 1.15091 14.04 1.28546 13.8873L2.84182 12.16C2.92546 12.0691 2.92546 11.9346 2.84182 11.8437L1.28909 10.1091Z" fill="#FF8D6B"/>
</g>
<g id="Group_4">
<path id="Vector_2" d="M1.46364 9.71636H6.46364V12H2.90364C2.90364 11.9418 2.88182 11.8873 2.83818 11.8436L1.28182 10.1127C1.15091 9.95636 1.26 9.71636 1.46364 9.71636Z" fill="#FF7146"/>
</g>
<g id="Group_5">
<path id="Vector_3" d="M6.46364 11.9927H4.96546V9.71631H6.46364V11.9927Z" fill="#E5653F"/>
</g>
<g id="Group_6">
<path id="Vector_4" d="M6.46364 14.28H4.96546V11.9928H6.46364V14.28Z" fill="#FF7146"/>
</g>
</g>
<g id="Group_7">
<g id="Group_8">
<path id="Vector_5" d="M23.7109 10.1091C23.8455 9.95639 23.7364 9.71639 23.5327 9.71639H18.5364V14.28H23.5364C23.74 14.28 23.8491 14.04 23.7145 13.8873L22.1582 12.16C22.0745 12.0691 22.0745 11.9346 22.1582 11.8437L23.7109 10.1091Z" fill="#FF8D6B"/>
</g>
<g id="Group_9">
<path id="Vector_6" d="M23.5364 9.71636H18.5364V12H22.0927C22.0927 11.9418 22.1145 11.8873 22.1582 11.8436L23.7109 10.1091C23.8491 9.95636 23.74 9.71636 23.5364 9.71636Z" fill="#FF7146"/>
</g>
<g id="Group_10">
<path id="Vector_7" d="M20.0345 11.9927H18.5364V9.71631H20.0345V11.9927Z" fill="#E5653F"/>
</g>
<g id="Group_11">
<path id="Vector_8" d="M20.0345 14.28H18.5364V11.9928H20.0345V14.28Z" fill="#FF7146"/>
</g>
</g>
<g id="Group_12">
<path id="Vector_9" d="M5.7509 14.6836V9.31628C5.7509 8.56355 6.15454 7.86901 6.80545 7.49446L11.4454 4.8181C12.0964 4.44356 12.8964 4.44356 13.5473 4.8181L18.1945 7.49446C18.8454 7.86901 19.2491 8.56355 19.2491 9.31628V14.6836C19.2491 15.4363 18.8454 16.1308 18.1945 16.5054L13.5473 19.1817C12.8964 19.5563 12.0964 19.5563 11.4491 19.1817L6.80545 16.5054C6.1509 16.1308 5.7509 15.4363 5.7509 14.6836Z" fill="#FFD683"/>
</g>
<g id="Group_13">
<path id="Vector_10" d="M7.54002 13.9709V10.0255C7.54002 9.47273 7.8382 8.96364 8.31456 8.68728L11.7255 6.72001C12.2055 6.44364 12.7909 6.44364 13.2709 6.72001L16.6891 8.68728C17.1691 8.96364 17.4637 9.47273 17.4637 10.0255V13.9709C17.4637 14.5236 17.1655 15.0327 16.6891 15.3091L13.2709 17.2764C12.7909 17.5527 12.2055 17.5527 11.7291 17.2764L8.31456 15.3091C7.83456 15.0364 7.54002 14.5273 7.54002 13.9709Z" fill="#FFC040"/>
</g>
<g id="Group_14">
<path id="Vector_11" d="M15.1764 14.96C15.2964 14.96 15.4164 15.0218 15.4818 15.1381C15.58 15.3054 15.5218 15.5236 15.3509 15.6181L14.2055 16.28C14.0382 16.3781 13.82 16.32 13.7255 16.149C13.6273 15.9818 13.6855 15.7636 13.8564 15.669L15.0018 15.0072C15.0564 14.9745 15.1182 14.96 15.1764 14.96Z" fill="#FFD683"/>
</g>
<g id="Group_15">
<g id="Group_16">
<path id="Vector_12" d="M10.6236 11.1491V11.1454C10.6236 11.1273 10.6236 11.1127 10.62 11.0982L10.3 9.23271C10.2855 9.13816 10.3146 9.05452 10.3727 8.99271C10.4527 8.90907 10.58 8.87998 10.6927 8.9418L12.3691 9.82543C12.4127 9.84725 12.4564 9.85816 12.5036 9.85816C12.5473 9.85816 12.5909 9.85089 12.6273 9.82543L14.3036 8.9418C14.4127 8.88362 14.5327 8.90907 14.6127 8.98543C14.6782 9.03998 14.7146 9.13089 14.7 9.23271L14.38 11.0982C14.3727 11.1527 14.3764 11.2036 14.3946 11.2509C14.4091 11.2873 14.4309 11.3127 14.4564 11.3418L15.8164 12.6618C15.9 12.7454 15.9182 12.8509 15.8891 12.9418C15.8564 13.0363 15.78 13.1091 15.6673 13.1309L13.7909 13.4036C13.7473 13.4109 13.7073 13.4254 13.6746 13.4545C13.6382 13.4763 13.6091 13.5127 13.5873 13.5563L12.7436 15.2582C12.6927 15.36 12.5982 15.4109 12.5 15.4109C12.4018 15.4109 12.3 15.36 12.2491 15.2582L11.4091 13.56C11.38 13.5054 11.34 13.4618 11.2891 13.44C11.2673 13.4254 11.2346 13.4109 11.2055 13.4073L9.3291 13.1345C9.22001 13.1163 9.14001 13.0436 9.11092 12.9563C9.07819 12.8618 9.09637 12.7491 9.18001 12.6654L10.54 11.3454C10.5946 11.2909 10.6236 11.2218 10.6236 11.1491Z" fill="#F6F0F5"/>
</g>
<g id="Group_17">
<path id="Vector_13" d="M11.2891 13.4363L12.5036 11.9927V15.4109C12.4054 15.4109 12.3036 15.36 12.2527 15.2582L11.4091 13.56C11.38 13.5054 11.34 13.4618 11.2891 13.4363Z" fill="#E1D9E1"/>
</g>
<g id="Group_18">
<path id="Vector_14" d="M9.18 12.6617L10.54 11.3417C10.5945 11.2908 10.6236 11.2217 10.6236 11.149L12.5036 11.9926L9.1109 12.949C9.07818 12.8581 9.09272 12.7453 9.18 12.6617Z" fill="#E1D9E1"/>
</g>
<g id="Group_19">
<path id="Vector_15" d="M10.3727 8.99634C10.4527 8.9127 10.58 8.88361 10.6927 8.94543L12.3691 9.82906C12.4127 9.85088 12.4564 9.86179 12.5036 9.86179V11.9963L10.3727 8.99634Z" fill="#E1D9E1"/>
</g>
<g id="Group_20">
<path id="Vector_16" d="M12.5036 11.9927L14.6164 8.9854C14.6818 9.03995 14.7182 9.13086 14.7036 9.23268L14.3836 11.0981C14.3764 11.1527 14.38 11.2036 14.3982 11.2509L12.5036 11.9927Z" fill="#E1D9E1"/>
</g>
<g id="Group_21">
<path id="Vector_17" d="M12.5036 11.9928L15.8927 12.9419C15.86 13.0364 15.7836 13.1091 15.6709 13.131L13.7945 13.4037C13.7509 13.411 13.7109 13.4255 13.6782 13.4546L12.5036 11.9928Z" fill="#E1D9E1"/>
</g>
</g>
</g>
</g>
</svg>
