<svg width="25" height="24" viewBox="0 0 25 24" fill="none" xmlns="http://www.w3.org/2000/svg">
<g clip-path="url(#clip0_8049_183)">
<path d="M12.8047 2C8.93469 2 5.80469 5.13 5.80469 9C5.80469 10.74 6.30469 12.37 7.21469 13.84C8.16469 15.38 9.41469 16.7 10.3747 18.24C10.8447 18.99 11.1847 19.69 11.5447 20.5C11.8047 21.05 12.0147 22 12.8047 22C13.5947 22 13.8047 21.05 14.0547 20.5C14.4247 19.69 14.7547 18.99 15.2247 18.24C16.1847 16.71 17.4347 15.39 18.3847 13.84C19.3047 12.37 19.8047 10.74 19.8047 9C19.8047 5.13 16.6747 2 12.8047 2ZM12.8047 11.75C11.4247 11.75 10.3047 10.63 10.3047 9.25C10.3047 7.87 11.4247 6.75 12.8047 6.75C14.1847 6.75 15.3047 7.87 15.3047 9.25C15.3047 10.63 14.1847 11.75 12.8047 11.75Z" fill="url(#paint0_linear_8049_183)"/>
</g>
<defs>
<linearGradient id="paint0_linear_8049_183" x1="5.80469" y1="2" x2="20.8053" y2="2.78103" gradientUnits="userSpaceOnUse">
<stop stop-color="#2B59FF"/>
<stop offset="1" stop-color="#BB2BFF"/>
</linearGradient>
<clipPath id="clip0_8049_183">
<rect width="24" height="24" fill="white" transform="translate(0.804688)"/>
</clipPath>
</defs>
</svg>
