<svg width="111" height="128" viewBox="0 0 111 128" fill="none" xmlns="http://www.w3.org/2000/svg">
<path d="M59.5844 128C59.4145 128 59.2871 127.859 59.2871 127.704V114.777C59.2871 114.607 59.4287 114.48 59.5844 114.48C59.7401 114.48 59.8817 114.622 59.8817 114.777V127.704C59.8817 127.873 59.7401 128 59.5844 128Z" fill="url(#paint0_linear_8044_1595)"/>
<path d="M24.6469 104.489C24.477 104.489 24.3496 104.348 24.3496 104.192V94.7934C24.3496 94.6241 24.4912 94.4971 24.6469 94.4971C24.8026 94.4971 24.9442 94.6382 24.9442 94.7934V104.192C24.9442 104.362 24.8026 104.489 24.6469 104.489Z" fill="url(#paint1_linear_8044_1595)"/>
<path d="M97.6639 92.9307C97.5648 92.9307 97.4657 92.8742 97.409 92.7754C97.3241 92.6343 97.3807 92.4508 97.5223 92.3662L109.711 85.3523C109.852 85.2676 110.036 85.3241 110.121 85.4652C110.206 85.6063 110.15 85.7898 110.008 85.8744L97.8196 92.8883C97.8196 92.8883 97.7205 92.9307 97.6639 92.9307Z" fill="url(#paint2_linear_8044_1595)"/>
<path d="M100.721 90.8703L94.7757 87.4551L88.8301 90.8703L94.7757 94.2855L100.721 90.8703Z" fill="url(#paint3_linear_8044_1595)"/>
<path d="M94.7757 100.791L88.8301 97.376V90.8701L94.7757 94.2853V100.791Z" fill="url(#paint4_linear_8044_1595)"/>
<path d="M100.721 97.376L94.7754 100.791V94.2853L100.721 90.8701V97.376Z" fill="url(#paint5_linear_8044_1595)"/>
<path d="M84.824 99.9441C84.7249 99.9441 84.6258 99.8876 84.5692 99.7889C84.4843 99.6477 84.5409 99.4643 84.6825 99.3796L91.4633 95.4704C91.6049 95.3858 91.7889 95.4422 91.8738 95.5833C91.9588 95.7245 91.9021 95.9079 91.7606 95.9926L84.9797 99.9018C84.9797 99.9018 84.8806 99.9441 84.824 99.9441Z" fill="url(#paint6_linear_8044_1595)"/>
<path d="M76.0472 53.7405L59.895 44.4404L43.7285 53.7405L59.895 63.0406L76.0472 53.7405Z" fill="url(#paint7_linear_8044_1595)"/>
<path d="M59.895 80.7091L43.7285 71.4231V53.7402L59.895 63.0403V80.7091Z" fill="url(#paint8_linear_8044_1595)"/>
<path d="M76.0468 71.4231L59.8945 80.7091V63.0403L76.0468 53.7402V71.4231Z" fill="url(#paint9_linear_8044_1595)"/>
<path d="M65.5437 51.9335L56.2006 46.5566L46.8574 51.9335L56.2006 57.3103L65.5437 51.9335Z" fill="#1C9B91"/>
<path d="M69.2248 36.1142L59.8959 30.7373L50.5527 36.1142L59.8959 41.491L69.2248 36.1142Z" fill="url(#paint10_linear_8044_1595)"/>
<path d="M59.8959 51.7085L50.5527 46.3317V36.1143L59.8959 41.4911V51.7085Z" fill="url(#paint11_linear_8044_1595)"/>
<path d="M69.2255 46.3317L59.8965 51.7085V41.4911L69.2255 36.1143V46.3317Z" fill="url(#paint12_linear_8044_1595)"/>
<path d="M89.6094 70.2657L77.336 63.1953L65.0625 70.2657L77.336 77.3219L89.6094 70.2657Z" fill="url(#paint13_linear_8044_1595)"/>
<path d="M77.336 90.7569L65.0625 83.6866V70.2656L77.336 77.3219V90.7569Z" fill="url(#paint14_linear_8044_1595)"/>
<path d="M89.6094 83.6866L77.3359 90.7569V77.3219L89.6094 70.2656V83.6866Z" fill="url(#paint15_linear_8044_1595)"/>
<path d="M54.5723 70.3506L42.2989 63.2803L30.0254 70.3506L42.2989 77.4068L54.5723 70.3506Z" fill="url(#paint16_linear_8044_1595)"/>
<path d="M42.2989 90.8419L30.0254 83.7856V70.3506L42.2989 77.4068V90.8419Z" fill="url(#paint17_linear_8044_1595)"/>
<path d="M54.5723 83.7856L42.2988 90.8419V77.4068L54.5723 70.3506V83.7856Z" fill="url(#paint18_linear_8044_1595)"/>
<path d="M72.0137 80.3844L59.7403 73.3281L47.4668 80.3844L59.7403 87.4547L72.0137 80.3844Z" fill="url(#paint19_linear_8044_1595)"/>
<path d="M59.7403 100.876L47.4668 93.8198V80.3848L59.7403 87.4551V100.876Z" fill="url(#paint20_linear_8044_1595)"/>
<path d="M72.0137 93.8198L59.7402 100.876V87.4551L72.0137 80.3848V93.8198Z" fill="url(#paint21_linear_8044_1595)"/>
<path d="M47.4668 80.3849L55.55 85.042L64.794 79.7216L56.7108 75.0645L47.4668 80.3849Z" fill="#1C9B91"/>
<path d="M69.1813 63.9011L59.7391 58.4678L50.2969 63.9011L59.7391 69.3344L69.1813 63.9011Z" fill="#2979FB"/>
<path d="M59.7391 79.665L50.2969 74.2317V63.9014L59.7391 69.3347V79.665Z" fill="#0147B8"/>
<path d="M69.1805 74.2317L59.7383 79.665V69.3347L69.1805 63.9014V74.2317Z" fill="#0656D7"/>
<path d="M89.4532 90.4327L77.1797 83.3623L64.9062 90.4327L77.1797 97.4889L89.4532 90.4327Z" fill="url(#paint22_linear_8044_1595)"/>
<path d="M77.1797 110.924L64.9062 103.854V90.4326L77.1797 97.4888V110.924Z" fill="url(#paint23_linear_8044_1595)"/>
<path d="M89.4532 103.854L77.1797 110.924V97.4888L89.4532 90.4326V103.854Z" fill="url(#paint24_linear_8044_1595)"/>
<path d="M105.35 114.805L99.8579 111.644L94.3652 114.805L99.8579 117.966L105.35 114.805Z" fill="url(#paint25_linear_8044_1595)"/>
<path d="M99.8579 123.978L94.3652 120.817V114.805L99.8579 117.966V123.978Z" fill="url(#paint26_linear_8044_1595)"/>
<path d="M105.35 120.817L99.8574 123.978V117.966L105.35 114.805V120.817Z" fill="url(#paint27_linear_8044_1595)"/>
<path d="M10.9711 71.3106L5.49263 68.1494L0 71.3106L5.49263 74.4718L10.9711 71.3106Z" fill="url(#paint28_linear_8044_1595)"/>
<path d="M5.49263 80.4836L0 77.3225V71.3105L5.49263 74.4717V80.4836Z" fill="url(#paint29_linear_8044_1595)"/>
<path d="M10.9707 77.3225L5.49219 80.4836V74.4717L10.9707 71.3105V77.3225Z" fill="url(#paint30_linear_8044_1595)"/>
<path d="M24.7018 118.799L20.5824 116.428L16.4629 118.799L20.5824 121.17L24.7018 118.799Z" fill="#2979FB"/>
<path d="M20.5824 125.672L16.4629 123.301V118.799L20.5824 121.17V125.672Z" fill="#0147B8"/>
<path d="M24.7015 123.301L20.582 125.672V121.17L24.7015 118.799V123.301Z" fill="#0656D7"/>
<path d="M82.6432 50.156L78.5238 47.7852L74.4043 50.156L78.5238 52.5269L82.6432 50.156Z" fill="#2979FB"/>
<path d="M78.5238 57.029L74.4043 54.6581V50.1562L78.5238 52.5271V57.029Z" fill="#0147B8"/>
<path d="M82.6429 54.6581L78.5234 57.029V52.5271L82.6429 50.1562V54.6581Z" fill="#0656D7"/>
<path d="M35.1925 83.4474L24.7027 77.4072L14.2129 83.4474L24.7027 89.4875L35.1925 83.4474Z" fill="url(#paint31_linear_8044_1595)"/>
<path d="M24.7027 100.975L14.2129 94.9348V83.4473L24.7027 89.4874V100.975Z" fill="url(#paint32_linear_8044_1595)"/>
<path d="M35.1929 94.9348L24.7031 100.975V89.4874L35.1929 83.4473V94.9348Z" fill="url(#paint33_linear_8044_1595)"/>
<path d="M54.4161 90.5176L42.1426 83.4473L29.8691 90.5176L42.1426 97.5738L54.4161 90.5176Z" fill="url(#paint34_linear_8044_1595)"/>
<path d="M42.1426 111.009L29.8691 103.939V90.5176L42.1426 97.5738V111.009Z" fill="url(#paint35_linear_8044_1595)"/>
<path d="M54.416 103.939L42.1426 111.009V97.5738L54.416 90.5176V103.939Z" fill="url(#paint36_linear_8044_1595)"/>
<path d="M60.165 107.904C60.165 107.904 60.0659 107.904 60.0092 107.862L48.118 101.017C47.9764 100.932 47.9198 100.749 48.0048 100.608C48.0897 100.467 48.2737 100.41 48.4153 100.495L60.3065 107.339C60.4481 107.424 60.5047 107.608 60.4198 107.749C60.3632 107.847 60.2641 107.904 60.165 107.904Z" fill="url(#paint37_linear_8044_1595)"/>
<path d="M69.5072 104.474L59.5837 98.7588L49.6602 104.474L59.5837 110.19L69.5072 104.474Z" fill="#2979FB"/>
<path d="M59.5837 121.043L49.6602 115.341V104.475L59.5837 110.19V121.043Z" fill="#0147B8"/>
<path d="M69.5075 115.341L59.584 121.043V110.19L69.5075 104.475V115.341Z" fill="#0656D7"/>
<path d="M42.2992 70.5341C42.1294 70.5341 42.002 70.393 42.002 70.2378V22.1284C42.002 21.959 42.1435 21.832 42.2992 21.832C42.455 21.832 42.5965 21.9732 42.5965 22.1284V70.2236C42.5965 70.393 42.455 70.52 42.2992 70.52V70.5341Z" fill="url(#paint38_linear_8044_1595)"/>
<path d="M24.7035 83.5601C24.5337 83.5601 24.4062 83.4189 24.4062 83.2637V48.4624C24.4062 48.293 24.5478 48.166 24.7035 48.166C24.8593 48.166 25.0008 48.3071 25.0008 48.4624V83.2637C25.0008 83.4331 24.8593 83.5601 24.7035 83.5601Z" fill="url(#paint39_linear_8044_1595)"/>
<path d="M51.4154 11.9959L42.2987 6.74609L33.168 11.9959L42.2987 17.2458L51.4154 11.9959Z" fill="url(#paint40_linear_8044_1595)"/>
<path d="M42.2987 27.2375L33.168 21.9877V11.9961L42.2987 17.2459V27.2375Z" fill="url(#paint41_linear_8044_1595)"/>
<path d="M51.4155 21.9877L42.2988 27.2375V17.2459L51.4155 11.9961V21.9877Z" fill="url(#paint42_linear_8044_1595)"/>
<path d="M30.6198 48.4626L24.7025 45.0615L18.7852 48.4626L24.7025 51.8778L30.6198 48.4626Z" fill="#2979FB"/>
<path d="M24.7025 58.3416L18.7852 54.9405V48.4629L24.7025 51.8781V58.3416Z" fill="#0147B8"/>
<path d="M30.6204 54.9405L24.7031 58.3416V51.8781L30.6204 48.4629V54.9405Z" fill="#0656D7"/>
<path d="M5.49199 100.552C5.39289 100.552 5.2938 100.495 5.23717 100.396C5.15224 100.255 5.20886 100.072 5.35042 99.9872L19.3226 91.9431C19.4642 91.8584 19.6482 91.9149 19.7332 92.056C19.8181 92.1971 19.7615 92.3806 19.6199 92.4653L5.6477 100.509C5.6477 100.509 5.54861 100.552 5.49199 100.552Z" fill="url(#paint43_linear_8044_1595)"/>
<path d="M94.7758 90.927C94.6059 90.927 94.4785 90.7859 94.4785 90.6307V42.3237C94.4785 42.1544 94.6201 42.0273 94.7758 42.0273C94.9315 42.0273 95.0731 42.1685 95.0731 42.3237V90.6448C95.0731 90.8141 94.9315 90.9411 94.7758 90.9411V90.927Z" fill="url(#paint44_linear_8044_1595)"/>
<path d="M97.6649 39.8957L94.777 38.2305L91.875 39.8957L94.777 41.561L97.6649 39.8957Z" fill="#2979FB"/>
<path d="M94.777 44.7361L91.875 43.0708V39.8955L94.777 41.5608V44.7361Z" fill="#0147B8"/>
<path d="M97.6652 43.0708L94.7773 44.7361V41.5608L97.6652 39.8955V43.0708Z" fill="#0656D7"/>
<path style="mix-blend-mode:color-dodge" d="M69.2248 35.8597C69.4938 36.0149 67.6252 37.3274 65.0487 38.8092C62.4865 40.291 60.179 41.3635 59.9242 41.2083C59.6552 41.053 61.5238 39.7406 64.1003 38.2588C66.6767 36.777 68.97 35.7044 69.2248 35.8597Z" fill="url(#paint45_radial_8044_1595)"/>
<path style="mix-blend-mode:color-dodge" d="M89.4684 70.1249C89.8082 70.3225 87.3592 72.0583 83.9758 74.0058C80.5925 75.9533 77.5772 77.3646 77.2233 77.167C76.8694 76.9694 79.3326 75.2336 82.7159 73.2861C86.0993 71.3386 89.1145 69.9273 89.4684 70.1249Z" fill="url(#paint46_radial_8044_1595)"/>
<path style="mix-blend-mode:color-dodge" d="M89.3118 90.08C89.6657 90.2776 87.2025 92.0134 83.8192 93.9609C80.4358 95.9084 77.4205 97.3197 77.0666 97.1221C76.7269 96.9245 79.1759 95.1887 82.5593 93.2412C85.9426 91.2936 88.9579 89.8824 89.3118 90.08Z" fill="url(#paint47_radial_8044_1595)"/>
<path style="mix-blend-mode:color-dodge" d="M69.4089 63.5768C69.692 63.7462 67.6677 65.1715 64.8789 66.7804C62.0901 68.3892 59.5986 69.5605 59.3155 69.3912C59.0324 69.2218 61.0567 67.7965 63.8455 66.1876C66.6343 64.5788 69.1258 63.4075 69.4089 63.5768Z" fill="url(#paint48_radial_8044_1595)"/>
<path style="mix-blend-mode:color-dodge" d="M69.4089 104.334C69.692 104.503 67.6677 105.928 64.8789 107.537C62.0901 109.146 59.5986 110.317 59.3155 110.148C59.0324 109.979 61.0567 108.553 63.8455 106.944C66.6343 105.336 69.1258 104.164 69.4089 104.334Z" fill="url(#paint49_radial_8044_1595)"/>
<path style="mix-blend-mode:color-dodge" d="M31.045 48.0949C31.2432 48.2078 29.87 49.1674 27.9872 50.2541C26.1044 51.3408 24.434 52.1169 24.2358 52.004C24.0376 51.8911 25.4108 50.9315 27.2936 49.8448C29.1764 48.7582 30.8468 47.982 31.045 48.0949Z" fill="url(#paint50_radial_8044_1595)"/>
<path style="mix-blend-mode:color-dodge" d="M82.6857 50.029C82.8131 50.0996 81.9213 50.7346 80.6897 51.4402C79.4581 52.1459 78.368 52.6539 78.2406 52.5834C78.1132 52.5128 79.0051 51.8777 80.2367 51.1721C81.4683 50.4665 82.5583 49.9584 82.6857 50.029Z" fill="url(#paint51_radial_8044_1595)"/>
<path style="mix-blend-mode:color-dodge" d="M54.1891 90.3202C54.5289 90.5178 52.0799 92.2536 48.6965 94.2011C45.3132 96.1487 42.2979 97.5599 41.944 97.3623C41.5901 97.1648 44.0533 95.4289 47.4366 93.4814C50.82 91.5339 53.8352 90.1226 54.1891 90.3202Z" fill="url(#paint52_radial_8044_1595)"/>
<path style="mix-blend-mode:color-dodge" d="M35.0086 83.2207C35.3058 83.39 33.1683 84.9001 30.2379 86.5936C27.3076 88.2871 24.6745 89.5148 24.3772 89.3455C24.0799 89.1761 26.2175 87.6661 29.1479 85.9726C32.0924 84.2791 34.7113 83.0513 35.0086 83.2207Z" fill="url(#paint53_radial_8044_1595)"/>
<path style="mix-blend-mode:color-dodge" d="M71.8567 80.1591C72.2106 80.3567 69.7474 82.0925 66.3641 84.04C62.9807 85.9875 59.9655 87.3988 59.6116 87.2012C59.2718 87.0036 61.7208 85.2678 65.1042 83.3203C68.4875 81.3728 71.5028 79.9615 71.8567 80.1591Z" fill="url(#paint54_radial_8044_1595)"/>
<path style="mix-blend-mode:color-dodge" d="M51.3733 11.7415C51.6423 11.8967 49.7736 13.2092 47.1972 14.691C44.6349 16.1728 42.3274 17.2454 42.0726 17.0901C41.8037 16.9349 43.6723 15.6224 46.2487 14.1406C48.811 12.6588 51.1185 11.5863 51.3733 11.7415Z" fill="url(#paint55_radial_8044_1595)"/>
<path style="mix-blend-mode:color-dodge" d="M83.3514 88.2732C91.4512 88.2732 98.0173 81.7274 98.0173 73.6527C98.0173 65.578 91.4512 59.0322 83.3514 59.0322C75.2517 59.0322 68.6855 65.578 68.6855 73.6527C68.6855 81.7274 75.2517 88.2732 83.3514 88.2732Z" fill="url(#paint56_radial_8044_1595)"/>
<path style="mix-blend-mode:color-dodge" d="M105.594 92.514C106.565 86.5359 102.491 80.9048 96.4942 79.9365C90.4976 78.9683 84.849 83.0296 83.8777 89.0077C82.9065 94.9858 86.9804 100.617 92.977 101.585C98.9737 102.553 104.622 98.4921 105.594 92.514Z" fill="url(#paint57_radial_8044_1595)"/>
<path style="mix-blend-mode:color-dodge" d="M24.6034 97.8562C32.7031 97.8562 39.2692 91.3104 39.2692 83.2357C39.2692 75.1611 32.7031 68.6152 24.6034 68.6152C16.5036 68.6152 9.9375 75.1611 9.9375 83.2357C9.9375 91.3104 16.5036 97.8562 24.6034 97.8562Z" fill="url(#paint58_radial_8044_1595)"/>
<path style="mix-blend-mode:color-dodge" d="M42.2713 84.8445C50.3711 84.8445 56.9372 78.2987 56.9372 70.224C56.9372 62.1493 50.3711 55.6035 42.2713 55.6035C34.1716 55.6035 27.6055 62.1493 27.6055 70.224C27.6055 78.2987 34.1716 84.8445 42.2713 84.8445Z" fill="url(#paint59_radial_8044_1595)"/>
<path style="mix-blend-mode:color-dodge" d="M53.2906 106.453C60.2178 103.573 63.4912 95.6396 60.602 88.7338C57.7129 81.8281 49.7551 78.5648 42.8279 81.445C35.9007 84.3253 32.6273 92.2584 35.5165 99.1641C38.4057 106.07 46.3634 109.333 53.2906 106.453Z" fill="url(#paint60_radial_8044_1595)"/>
<path style="mix-blend-mode:color-dodge" d="M83.465 107.367C90.9705 107.367 97.055 101.302 97.055 93.8194C97.055 86.3371 90.9705 80.2715 83.465 80.2715C75.9594 80.2715 69.875 86.3371 69.875 93.8194C69.875 101.302 75.9594 107.367 83.465 107.367Z" fill="url(#paint61_radial_8044_1595)"/>
<path style="mix-blend-mode:color-dodge" d="M64.4533 80.2717C71.9588 80.2717 78.0433 74.2061 78.0433 66.7237C78.0433 59.2414 71.9588 53.1758 64.4533 53.1758C56.9477 53.1758 50.8633 59.2414 50.8633 66.7237C50.8633 74.2061 56.9477 80.2717 64.4533 80.2717Z" fill="url(#paint62_radial_8044_1595)"/>
<path style="mix-blend-mode:color-dodge" d="M64.3537 120.591C71.8592 120.591 77.9437 114.525 77.9437 107.043C77.9437 99.5607 71.8592 93.4951 64.3537 93.4951C56.8481 93.4951 50.7637 99.5607 50.7637 107.043C50.7637 114.525 56.8481 120.591 64.3537 120.591Z" fill="url(#paint63_radial_8044_1595)"/>
<path style="mix-blend-mode:color-dodge" d="M27.59 63.5764C35.0956 63.5764 41.18 57.5108 41.18 50.0284C41.18 42.5461 35.0956 36.4805 27.59 36.4805C20.0844 36.4805 14 42.5461 14 50.0284C14 57.5108 20.0844 63.5764 27.59 63.5764Z" fill="url(#paint64_radial_8044_1595)"/>
<path style="mix-blend-mode:color-dodge" d="M64.7928 53.1619C72.8926 53.1619 79.4587 46.6161 79.4587 38.5414C79.4587 30.4667 72.8926 23.9209 64.7928 23.9209C56.6931 23.9209 50.127 30.4667 50.127 38.5414C50.127 46.6161 56.6931 53.1619 64.7928 53.1619Z" fill="url(#paint65_radial_8044_1595)"/>
<path style="mix-blend-mode:color-dodge" d="M46.7147 29.241C54.8144 29.241 61.3806 22.6952 61.3806 14.6205C61.3806 6.54582 54.8144 0 46.7147 0C38.615 0 32.0488 6.54582 32.0488 14.6205C32.0488 22.6952 38.615 29.241 46.7147 29.241Z" fill="url(#paint66_radial_8044_1595)"/>
<defs>
<linearGradient id="paint0_linear_8044_1595" x1="59.2871" y1="114.48" x2="59.9259" y2="114.483" gradientUnits="userSpaceOnUse">
<stop stop-color="#2B59FF"/>
<stop offset="1" stop-color="#BB2BFF"/>
</linearGradient>
<linearGradient id="paint1_linear_8044_1595" x1="24.3496" y1="94.4971" x2="24.9884" y2="94.4999" gradientUnits="userSpaceOnUse">
<stop stop-color="#2B59FF"/>
<stop offset="1" stop-color="#BB2BFF"/>
</linearGradient>
<linearGradient id="paint2_linear_8044_1595" x1="97.3691" y1="85.3125" x2="110.902" y2="87.0027" gradientUnits="userSpaceOnUse">
<stop stop-color="#2B59FF"/>
<stop offset="1" stop-color="#BB2BFF"/>
</linearGradient>
<linearGradient id="paint3_linear_8044_1595" x1="88.8301" y1="87.4551" x2="101.395" y2="89.0821" gradientUnits="userSpaceOnUse">
<stop stop-color="#2B59FF"/>
<stop offset="1" stop-color="#BB2BFF"/>
</linearGradient>
<linearGradient id="paint4_linear_8044_1595" x1="93.2185" y1="93.3962" x2="90.4004" y2="98.2726" gradientUnits="userSpaceOnUse">
<stop stop-color="#1C9B91"/>
<stop offset="1" stop-color="#108F85"/>
</linearGradient>
<linearGradient id="paint5_linear_8044_1595" x1="94.7754" y1="90.8701" x2="101.151" y2="91.1543" gradientUnits="userSpaceOnUse">
<stop stop-color="#2B59FF"/>
<stop offset="1" stop-color="#BB2BFF"/>
</linearGradient>
<linearGradient id="paint6_linear_8044_1595" x1="84.5293" y1="95.4307" x2="92.3472" y2="96.3821" gradientUnits="userSpaceOnUse">
<stop stop-color="#2B59FF"/>
<stop offset="1" stop-color="#BB2BFF"/>
</linearGradient>
<linearGradient id="paint7_linear_8044_1595" x1="43.7285" y1="44.4404" x2="77.8807" y2="48.8542" gradientUnits="userSpaceOnUse">
<stop stop-color="#2B59FF"/>
<stop offset="1" stop-color="#BB2BFF"/>
</linearGradient>
<linearGradient id="paint8_linear_8044_1595" x1="55.6481" y1="60.5989" x2="48.011" y2="73.871" gradientUnits="userSpaceOnUse">
<stop stop-color="#1C9B91"/>
<stop offset="1" stop-color="#108F85"/>
</linearGradient>
<linearGradient id="paint9_linear_8044_1595" x1="59.8945" y1="53.7402" x2="77.2139" y2="54.5118" gradientUnits="userSpaceOnUse">
<stop stop-color="#2B59FF"/>
<stop offset="1" stop-color="#BB2BFF"/>
</linearGradient>
<linearGradient id="paint10_linear_8044_1595" x1="50.5527" y1="30.7373" x2="70.2845" y2="33.2857" gradientUnits="userSpaceOnUse">
<stop stop-color="#2B59FF"/>
<stop offset="1" stop-color="#BB2BFF"/>
</linearGradient>
<linearGradient id="paint11_linear_8044_1595" x1="57.4327" y1="40.0799" x2="53.0223" y2="47.7547" gradientUnits="userSpaceOnUse">
<stop stop-color="#1C9B91"/>
<stop offset="1" stop-color="#108F85"/>
</linearGradient>
<linearGradient id="paint12_linear_8044_1595" x1="59.8965" y1="36.1143" x2="69.8995" y2="36.5594" gradientUnits="userSpaceOnUse">
<stop stop-color="#2B59FF"/>
<stop offset="1" stop-color="#BB2BFF"/>
</linearGradient>
<linearGradient id="paint13_linear_8044_1595" x1="65.0625" y1="63.1953" x2="91.0019" y2="66.5479" gradientUnits="userSpaceOnUse">
<stop stop-color="#2B59FF"/>
<stop offset="1" stop-color="#BB2BFF"/>
</linearGradient>
<linearGradient id="paint14_linear_8044_1595" x1="74.1083" y1="75.4731" x2="68.303" y2="85.565" gradientUnits="userSpaceOnUse">
<stop stop-color="#1C9B91"/>
<stop offset="1" stop-color="#108F85"/>
</linearGradient>
<linearGradient id="paint15_linear_8044_1595" x1="77.3359" y1="70.2656" x2="90.4962" y2="70.8519" gradientUnits="userSpaceOnUse">
<stop stop-color="#2B59FF"/>
<stop offset="1" stop-color="#BB2BFF"/>
</linearGradient>
<linearGradient id="paint16_linear_8044_1595" x1="30.0254" y1="63.2803" x2="55.9648" y2="66.6328" gradientUnits="userSpaceOnUse">
<stop stop-color="#2B59FF"/>
<stop offset="1" stop-color="#BB2BFF"/>
</linearGradient>
<linearGradient id="paint17_linear_8044_1595" x1="39.0712" y1="75.5581" x2="33.2659" y2="85.65" gradientUnits="userSpaceOnUse">
<stop stop-color="#1C9B91"/>
<stop offset="1" stop-color="#108F85"/>
</linearGradient>
<linearGradient id="paint18_linear_8044_1595" x1="42.2988" y1="70.3506" x2="55.4591" y2="70.9369" gradientUnits="userSpaceOnUse">
<stop stop-color="#2B59FF"/>
<stop offset="1" stop-color="#BB2BFF"/>
</linearGradient>
<linearGradient id="paint19_linear_8044_1595" x1="47.4668" y1="73.3281" x2="73.4062" y2="76.6807" gradientUnits="userSpaceOnUse">
<stop stop-color="#2B59FF"/>
<stop offset="1" stop-color="#BB2BFF"/>
</linearGradient>
<linearGradient id="paint20_linear_8044_1595" x1="56.5126" y1="85.5923" x2="50.7073" y2="95.6841" gradientUnits="userSpaceOnUse">
<stop stop-color="#1C9B91"/>
<stop offset="1" stop-color="#108F85"/>
</linearGradient>
<linearGradient id="paint21_linear_8044_1595" x1="59.7402" y1="80.3848" x2="72.9005" y2="80.9711" gradientUnits="userSpaceOnUse">
<stop stop-color="#2B59FF"/>
<stop offset="1" stop-color="#BB2BFF"/>
</linearGradient>
<linearGradient id="paint22_linear_8044_1595" x1="64.9063" y1="83.3623" x2="90.8457" y2="86.7149" gradientUnits="userSpaceOnUse">
<stop stop-color="#2B59FF"/>
<stop offset="1" stop-color="#BB2BFF"/>
</linearGradient>
<linearGradient id="paint23_linear_8044_1595" x1="73.9663" y1="95.6401" x2="68.1468" y2="105.732" gradientUnits="userSpaceOnUse">
<stop stop-color="#1C9B91"/>
<stop offset="1" stop-color="#108F85"/>
</linearGradient>
<linearGradient id="paint24_linear_8044_1595" x1="77.1797" y1="90.4326" x2="90.3399" y2="91.0189" gradientUnits="userSpaceOnUse">
<stop stop-color="#2B59FF"/>
<stop offset="1" stop-color="#BB2BFF"/>
</linearGradient>
<linearGradient id="paint25_linear_8044_1595" x1="94.3652" y1="111.644" x2="105.974" y2="113.144" gradientUnits="userSpaceOnUse">
<stop stop-color="#2B59FF"/>
<stop offset="1" stop-color="#BB2BFF"/>
</linearGradient>
<linearGradient id="paint26_linear_8044_1595" x1="98.4139" y1="117.133" x2="95.8213" y2="121.656" gradientUnits="userSpaceOnUse">
<stop stop-color="#1C9B91"/>
<stop offset="1" stop-color="#108F85"/>
</linearGradient>
<linearGradient id="paint27_linear_8044_1595" x1="99.8574" y1="114.805" x2="105.747" y2="115.067" gradientUnits="userSpaceOnUse">
<stop stop-color="#2B59FF"/>
<stop offset="1" stop-color="#BB2BFF"/>
</linearGradient>
<linearGradient id="paint28_linear_8044_1595" x1="0" y1="68.1494" x2="11.594" y2="69.6459" gradientUnits="userSpaceOnUse">
<stop stop-color="#2B59FF"/>
<stop offset="1" stop-color="#BB2BFF"/>
</linearGradient>
<linearGradient id="paint29_linear_8044_1595" x1="4.04869" y1="73.6391" x2="1.45605" y2="78.162" gradientUnits="userSpaceOnUse">
<stop stop-color="#1C9B91"/>
<stop offset="1" stop-color="#108F85"/>
</linearGradient>
<linearGradient id="paint30_linear_8044_1595" x1="5.49219" y1="71.3105" x2="11.3666" y2="71.5715" gradientUnits="userSpaceOnUse">
<stop stop-color="#2B59FF"/>
<stop offset="1" stop-color="#BB2BFF"/>
</linearGradient>
<linearGradient id="paint31_linear_8044_1595" x1="14.2129" y1="77.4072" x2="36.383" y2="80.271" gradientUnits="userSpaceOnUse">
<stop stop-color="#2B59FF"/>
<stop offset="1" stop-color="#BB2BFF"/>
</linearGradient>
<linearGradient id="paint32_linear_8044_1595" x1="21.9422" y1="87.9068" x2="16.9823" y2="96.5287" gradientUnits="userSpaceOnUse">
<stop stop-color="#1C9B91"/>
<stop offset="1" stop-color="#108F85"/>
</linearGradient>
<linearGradient id="paint33_linear_8044_1595" x1="24.7031" y1="83.4473" x2="35.9509" y2="83.9479" gradientUnits="userSpaceOnUse">
<stop stop-color="#2B59FF"/>
<stop offset="1" stop-color="#BB2BFF"/>
</linearGradient>
<linearGradient id="paint34_linear_8044_1595" x1="29.8691" y1="83.4473" x2="55.8086" y2="86.7998" gradientUnits="userSpaceOnUse">
<stop stop-color="#2B59FF"/>
<stop offset="1" stop-color="#BB2BFF"/>
</linearGradient>
<linearGradient id="paint35_linear_8044_1595" x1="38.9291" y1="95.7251" x2="33.1097" y2="105.817" gradientUnits="userSpaceOnUse">
<stop stop-color="#1C9B91"/>
<stop offset="1" stop-color="#108F85"/>
</linearGradient>
<linearGradient id="paint36_linear_8044_1595" x1="42.1426" y1="90.5176" x2="55.3028" y2="91.1039" gradientUnits="userSpaceOnUse">
<stop stop-color="#2B59FF"/>
<stop offset="1" stop-color="#BB2BFF"/>
</linearGradient>
<linearGradient id="paint37_linear_8044_1595" x1="47.9648" y1="100.455" x2="61.1833" y2="102.104" gradientUnits="userSpaceOnUse">
<stop stop-color="#2B59FF"/>
<stop offset="1" stop-color="#BB2BFF"/>
</linearGradient>
<linearGradient id="paint38_linear_8044_1595" x1="42.002" y1="21.832" x2="42.6407" y2="21.8326" gradientUnits="userSpaceOnUse">
<stop stop-color="#2B59FF"/>
<stop offset="1" stop-color="#BB2BFF"/>
</linearGradient>
<linearGradient id="paint39_linear_8044_1595" x1="24.4063" y1="48.166" x2="25.045" y2="48.1668" gradientUnits="userSpaceOnUse">
<stop stop-color="#2B59FF"/>
<stop offset="1" stop-color="#BB2BFF"/>
</linearGradient>
<linearGradient id="paint40_linear_8044_1595" x1="33.168" y1="6.74609" x2="52.4504" y2="9.23865" gradientUnits="userSpaceOnUse">
<stop stop-color="#2B59FF"/>
<stop offset="1" stop-color="#BB2BFF"/>
</linearGradient>
<linearGradient id="paint41_linear_8044_1595" x1="39.9063" y1="15.877" x2="35.5805" y2="23.3823" gradientUnits="userSpaceOnUse">
<stop stop-color="#1C9B91"/>
<stop offset="1" stop-color="#108F85"/>
</linearGradient>
<linearGradient id="paint42_linear_8044_1595" x1="42.2988" y1="11.9961" x2="52.0742" y2="12.431" gradientUnits="userSpaceOnUse">
<stop stop-color="#2B59FF"/>
<stop offset="1" stop-color="#BB2BFF"/>
</linearGradient>
<linearGradient id="paint43_linear_8044_1595" x1="5.19727" y1="91.9033" x2="20.6149" y2="93.8361" gradientUnits="userSpaceOnUse">
<stop stop-color="#2B59FF"/>
<stop offset="1" stop-color="#BB2BFF"/>
</linearGradient>
<linearGradient id="paint44_linear_8044_1595" x1="94.4785" y1="42.0273" x2="95.1173" y2="42.0279" gradientUnits="userSpaceOnUse">
<stop stop-color="#2B59FF"/>
<stop offset="1" stop-color="#BB2BFF"/>
</linearGradient>
<radialGradient id="paint45_radial_8044_1595" cx="0" cy="0" r="1" gradientUnits="userSpaceOnUse" gradientTransform="translate(104.395 17.9751) rotate(-29.9232) scale(5.35188 0.464659)">
<stop stop-color="#81EDE7"/>
<stop offset="0.21" stop-color="#62B5B0"/>
<stop offset="0.6" stop-color="#2D5452"/>
<stop offset="0.87" stop-color="#0C1717"/>
<stop offset="1"/>
</radialGradient>
<radialGradient id="paint46_radial_8044_1595" cx="0" cy="0" r="1" gradientUnits="userSpaceOnUse" gradientTransform="translate(102.816 63.6124) rotate(-29.9232) scale(7.02739 0.61013)">
<stop stop-color="#81EDE7"/>
<stop offset="0.21" stop-color="#62B5B0"/>
<stop offset="0.6" stop-color="#2D5452"/>
<stop offset="0.87" stop-color="#0C1717"/>
<stop offset="1"/>
</radialGradient>
<radialGradient id="paint47_radial_8044_1595" cx="0" cy="0" r="1" gradientUnits="userSpaceOnUse" gradientTransform="translate(93.882 88.1117) rotate(-29.9232) scale(7.02739 0.610129)">
<stop stop-color="#81EDE7"/>
<stop offset="0.21" stop-color="#62B5B0"/>
<stop offset="0.6" stop-color="#2D5452"/>
<stop offset="0.87" stop-color="#0C1717"/>
<stop offset="1"/>
</radialGradient>
<radialGradient id="paint48_radial_8044_1595" cx="0" cy="0" r="1" gradientUnits="userSpaceOnUse" gradientTransform="translate(91.888 52.2737) rotate(-29.9232) scale(5.80736 0.504204)">
<stop stop-color="#81EDE7"/>
<stop offset="0.21" stop-color="#62B5B0"/>
<stop offset="0.6" stop-color="#2D5452"/>
<stop offset="0.87" stop-color="#0C1717"/>
<stop offset="1"/>
</radialGradient>
<radialGradient id="paint49_radial_8044_1595" cx="0" cy="0" r="1" gradientUnits="userSpaceOnUse" gradientTransform="translate(73.8873 102.339) rotate(-29.9232) scale(5.80736 0.504204)">
<stop stop-color="#81EDE7"/>
<stop offset="0.21" stop-color="#62B5B0"/>
<stop offset="0.6" stop-color="#2D5452"/>
<stop offset="0.87" stop-color="#0C1717"/>
<stop offset="1"/>
</radialGradient>
<radialGradient id="paint50_radial_8044_1595" cx="0" cy="0" r="1" gradientUnits="userSpaceOnUse" gradientTransform="translate(71.9191 27.1743) rotate(-29.9232) scale(3.90411 0.338961)">
<stop stop-color="#81EDE7"/>
<stop offset="0.21" stop-color="#62B5B0"/>
<stop offset="0.6" stop-color="#2D5452"/>
<stop offset="0.87" stop-color="#0C1717"/>
<stop offset="1"/>
</radialGradient>
<radialGradient id="paint51_radial_8044_1595" cx="0" cy="0" r="1" gradientUnits="userSpaceOnUse" gradientTransform="translate(110.536 35.7875) rotate(-29.9232) scale(2.55394 0.221737)">
<stop stop-color="#81EDE7"/>
<stop offset="0.21" stop-color="#62B5B0"/>
<stop offset="0.6" stop-color="#2D5452"/>
<stop offset="0.87" stop-color="#0C1717"/>
<stop offset="1"/>
</radialGradient>
<radialGradient id="paint52_radial_8044_1595" cx="0" cy="0" r="1" gradientUnits="userSpaceOnUse" gradientTransform="translate(67.7191 83.7064) rotate(-29.9232) scale(7.02739 0.610129)">
<stop stop-color="#81EDE7"/>
<stop offset="0.21" stop-color="#62B5B0"/>
<stop offset="0.6" stop-color="#2D5452"/>
<stop offset="0.87" stop-color="#0C1717"/>
<stop offset="1"/>
</radialGradient>
<radialGradient id="paint53_radial_8044_1595" cx="0" cy="0" r="1" gradientUnits="userSpaceOnUse" gradientTransform="translate(57.4315 71.9449) rotate(-29.9232) scale(6.11643 0.531039)">
<stop stop-color="#81EDE7"/>
<stop offset="0.21" stop-color="#62B5B0"/>
<stop offset="0.6" stop-color="#2D5452"/>
<stop offset="0.87" stop-color="#0C1717"/>
<stop offset="1"/>
</radialGradient>
<radialGradient id="paint54_radial_8044_1595" cx="0" cy="0" r="1" gradientUnits="userSpaceOnUse" gradientTransform="translate(85.3147 73.5792) rotate(-29.9232) scale(7.02739 0.61013)">
<stop stop-color="#81EDE7"/>
<stop offset="0.21" stop-color="#62B5B0"/>
<stop offset="0.6" stop-color="#2D5452"/>
<stop offset="0.87" stop-color="#0C1717"/>
<stop offset="1"/>
</radialGradient>
<radialGradient id="paint55_radial_8044_1595" cx="0" cy="0" r="1" gradientUnits="userSpaceOnUse" gradientTransform="translate(101.784 -14.0246) rotate(-29.9232) scale(5.35188 0.464659)">
<stop stop-color="#81EDE7"/>
<stop offset="0.21" stop-color="#62B5B0"/>
<stop offset="0.6" stop-color="#2D5452"/>
<stop offset="0.87" stop-color="#0C1717"/>
<stop offset="1"/>
</radialGradient>
<radialGradient id="paint56_radial_8044_1595" cx="0" cy="0" r="1" gradientUnits="userSpaceOnUse" gradientTransform="translate(83.3514 73.6527) scale(14.6659 14.6205)">
<stop stop-color="#81EDE7"/>
<stop offset="0.21" stop-color="#62B5B0"/>
<stop offset="0.6" stop-color="#2D5452"/>
<stop offset="0.87" stop-color="#0C1717"/>
<stop offset="1"/>
</radialGradient>
<radialGradient id="paint57_radial_8044_1595" cx="0" cy="0" r="1" gradientUnits="userSpaceOnUse" gradientTransform="translate(94.7364 90.766) scale(10.9994 10.9654)">
<stop stop-color="#81EDE7"/>
<stop offset="0.21" stop-color="#62B5B0"/>
<stop offset="0.6" stop-color="#2D5452"/>
<stop offset="0.87" stop-color="#0C1717"/>
<stop offset="1"/>
</radialGradient>
<radialGradient id="paint58_radial_8044_1595" cx="0" cy="0" r="1" gradientUnits="userSpaceOnUse" gradientTransform="translate(24.6034 83.2357) scale(14.6659 14.6205)">
<stop stop-color="#81EDE7"/>
<stop offset="0.21" stop-color="#62B5B0"/>
<stop offset="0.6" stop-color="#2D5452"/>
<stop offset="0.87" stop-color="#0C1717"/>
<stop offset="1"/>
</radialGradient>
<radialGradient id="paint59_radial_8044_1595" cx="0" cy="0" r="1" gradientUnits="userSpaceOnUse" gradientTransform="translate(42.2713 70.224) scale(14.6659 14.6205)">
<stop stop-color="#81EDE7"/>
<stop offset="0.21" stop-color="#62B5B0"/>
<stop offset="0.6" stop-color="#2D5452"/>
<stop offset="0.87" stop-color="#0C1717"/>
<stop offset="1"/>
</radialGradient>
<radialGradient id="paint60_radial_8044_1595" cx="0" cy="0" r="1" gradientUnits="userSpaceOnUse" gradientTransform="translate(48.0566 93.9484) scale(13.59 13.548)">
<stop stop-color="#81EDE7"/>
<stop offset="0.21" stop-color="#62B5B0"/>
<stop offset="0.6" stop-color="#2D5452"/>
<stop offset="0.87" stop-color="#0C1717"/>
<stop offset="1"/>
</radialGradient>
<radialGradient id="paint61_radial_8044_1595" cx="0" cy="0" r="1" gradientUnits="userSpaceOnUse" gradientTransform="translate(83.465 93.8194) scale(13.59 13.548)">
<stop stop-color="#81EDE7"/>
<stop offset="0.21" stop-color="#62B5B0"/>
<stop offset="0.6" stop-color="#2D5452"/>
<stop offset="0.87" stop-color="#0C1717"/>
<stop offset="1"/>
</radialGradient>
<radialGradient id="paint62_radial_8044_1595" cx="0" cy="0" r="1" gradientUnits="userSpaceOnUse" gradientTransform="translate(64.4533 66.7237) scale(13.59 13.548)">
<stop stop-color="#0090FF"/>
<stop offset="0.26" stop-color="#0066B4"/>
<stop offset="0.63" stop-color="#002F54"/>
<stop offset="0.88" stop-color="#000D17"/>
<stop offset="1"/>
</radialGradient>
<radialGradient id="paint63_radial_8044_1595" cx="0" cy="0" r="1" gradientUnits="userSpaceOnUse" gradientTransform="translate(64.3537 107.043) scale(13.59 13.548)">
<stop stop-color="#0090FF"/>
<stop offset="0.26" stop-color="#0066B4"/>
<stop offset="0.63" stop-color="#002F54"/>
<stop offset="0.88" stop-color="#000D17"/>
<stop offset="1"/>
</radialGradient>
<radialGradient id="paint64_radial_8044_1595" cx="0" cy="0" r="1" gradientUnits="userSpaceOnUse" gradientTransform="translate(27.59 50.0284) scale(13.59 13.548)">
<stop stop-color="#0090FF"/>
<stop offset="0.26" stop-color="#0066B4"/>
<stop offset="0.63" stop-color="#002F54"/>
<stop offset="0.88" stop-color="#000D17"/>
<stop offset="1"/>
</radialGradient>
<radialGradient id="paint65_radial_8044_1595" cx="0" cy="0" r="1" gradientUnits="userSpaceOnUse" gradientTransform="translate(64.7928 38.5414) scale(14.6659 14.6205)">
<stop stop-color="#81EDE7"/>
<stop offset="0.21" stop-color="#62B5B0"/>
<stop offset="0.6" stop-color="#2D5452"/>
<stop offset="0.87" stop-color="#0C1717"/>
<stop offset="1"/>
</radialGradient>
<radialGradient id="paint66_radial_8044_1595" cx="0" cy="0" r="1" gradientUnits="userSpaceOnUse" gradientTransform="translate(46.7147 14.6205) scale(14.6659 14.6205)">
<stop stop-color="#81EDE7"/>
<stop offset="0.21" stop-color="#62B5B0"/>
<stop offset="0.6" stop-color="#2D5452"/>
<stop offset="0.87" stop-color="#0C1717"/>
<stop offset="1"/>
</radialGradient>
</defs>
</svg>
