<svg width="117" height="103" viewBox="0 0 117 103" fill="none" xmlns="http://www.w3.org/2000/svg">
<g style="mix-blend-mode:multiply" opacity="0.5">
<path d="M115.591 80.477L42.6567 38.5464C41.1602 37.6834 38.9083 37.5107 37.0922 38.0286C35.2761 37.5251 33.0387 37.6834 31.5277 38.5464L1.43864 55.7358C-0.464625 56.829 -0.479154 58.5983 1.42411 59.6772L74.3584 101.622C75.4045 102.226 76.8283 102.485 78.194 102.413C79.3418 102.356 80.4895 102.356 81.6373 102.413C83.0175 102.485 84.4268 102.226 85.4874 101.622L115.576 84.4328C117.48 83.3395 117.494 81.5703 115.606 80.4914L115.591 80.477Z" fill="#003893"/>
</g>
<path d="M117 78.5064V82.4909C117 83.2101 116.52 83.9293 115.561 84.4759L85.4724 101.68C83.5692 102.773 80.4891 102.773 78.6003 101.68L5.65148 59.7347C4.70711 59.1881 4.24219 58.4833 4.24219 57.7784V53.7939L117 78.5064Z" fill="url(#paint0_linear_8044_1519)"/>
<path d="M73.4726 98.731L72.5137 98.1844V91.1504L73.4726 91.697V98.731Z" fill="#C9C6C1"/>
<path d="M11.8992 63.317L10.9258 62.7704V55.9521L11.8992 56.4988V63.317Z" fill="#C9C6C1"/>
<path d="M5.68083 51.8091C3.77756 52.9023 3.76303 54.6716 5.6663 55.7504L78.6006 97.6954C80.4893 98.7887 83.5694 98.7887 85.4727 97.6954L115.562 80.5061C117.465 79.4128 117.48 77.6436 115.591 76.5647L42.6565 34.6197C40.7678 33.5265 37.6877 33.5265 35.7699 34.6197L5.68083 51.8091Z" fill="#E5ECF8"/>
<path d="M82.0445 98.1847C83.2795 98.1847 84.4563 97.9114 85.3135 97.408L115.403 80.2042C116.216 79.7439 116.667 79.1397 116.667 78.5068C116.667 77.8883 116.231 77.2985 115.417 76.8239L42.4828 34.9076C41.611 34.4042 40.4633 34.1309 39.2138 34.1309C37.9643 34.1309 36.8166 34.4042 35.9448 34.9076L5.8558 52.1114C5.04219 52.5717 4.5918 53.1758 4.5918 53.8088C4.5918 54.4273 5.02766 55.0171 5.84127 55.4917L78.7756 97.4367C79.6473 97.9402 80.7951 98.2135 82.0445 98.2135V98.1847Z" fill="#003893"/>
<path d="M54.9195 87.1087L63.7675 92.172C64.3777 92.5316 64.8862 92.3159 64.8862 91.6973C64.8862 91.0788 64.3922 90.3021 63.7675 89.9568L54.9195 84.8935C54.3093 84.5339 53.8008 84.7497 53.8008 85.3538C53.8008 85.958 54.2948 86.7491 54.9195 87.0943V87.1087Z" fill="#BAC1CC"/>
<path d="M89.7589 96.9624C89.9332 96.9624 89.9913 97.1494 89.8896 97.3796C89.7879 97.6097 89.57 97.7967 89.3956 97.7967C89.2213 97.7967 89.1632 97.6097 89.2649 97.3796C89.3666 97.1494 89.5845 96.9624 89.7589 96.9624ZM90.8921 96.4446C90.7904 96.6748 90.8485 96.8618 91.0229 96.8618C91.1972 96.8618 91.4151 96.6748 91.5168 96.4446C91.6185 96.2145 91.5604 96.0275 91.3861 96.0275C91.2117 96.0275 90.9938 96.2145 90.8921 96.4446ZM92.5048 95.5096C92.4031 95.7398 92.4612 95.9268 92.6356 95.9268C92.8099 95.9268 93.0278 95.7398 93.1295 95.5096C93.2312 95.2795 93.1731 95.0925 92.9988 95.0925C92.8244 95.0925 92.6065 95.2795 92.5048 95.5096ZM94.132 94.589C94.0303 94.8192 94.0884 95.0062 94.2628 95.0062C94.4371 95.0062 94.6551 94.8192 94.7568 94.589C94.8585 94.3589 94.8003 94.1719 94.626 94.1719C94.4516 94.1719 94.2337 94.3589 94.132 94.589Z" fill="#838D9F"/>
<path d="M106.06 87.6412C106.234 87.6412 106.292 87.8282 106.19 88.0583C106.089 88.2885 105.871 88.4755 105.696 88.4755C105.522 88.4755 105.464 88.2885 105.566 88.0583C105.667 87.8282 105.885 87.6412 106.06 87.6412ZM107.178 87.1233C107.077 87.3535 107.135 87.5405 107.309 87.5405C107.483 87.5405 107.701 87.3535 107.803 87.1233C107.905 86.8932 107.847 86.7062 107.672 86.7062C107.498 86.7062 107.28 86.8932 107.178 87.1233ZM108.806 86.2027C108.704 86.4329 108.762 86.6199 108.936 86.6199C109.111 86.6199 109.329 86.4329 109.43 86.2027C109.532 85.9726 109.474 85.7856 109.3 85.7856C109.125 85.7856 108.907 85.9726 108.806 86.2027ZM110.433 85.2677C110.331 85.4979 110.389 85.6849 110.564 85.6849C110.738 85.6849 110.956 85.4979 111.058 85.2677C111.159 85.0376 111.101 84.8506 110.927 84.8506C110.752 84.8506 110.534 85.0376 110.433 85.2677Z" fill="#838D9F"/>
<path d="M98.5051 92.8763L101.513 91.1646C101.89 90.9488 102.195 90.4741 102.195 90.1001C102.195 89.7261 101.89 89.5967 101.513 89.8125L98.5051 91.5242C98.1274 91.74 97.8223 92.2146 97.8223 92.5886C97.8223 92.9626 98.1274 93.0921 98.5051 92.8763Z" fill="#838D9F"/>
<path d="M21.9079 66.2511L22.1985 66.0785C21.9515 65.9347 21.7336 65.9203 21.5738 66.021L21.2832 66.1936C21.443 66.1073 21.661 66.1217 21.9079 66.2511Z" fill="#D6DBE4"/>
<path d="M31.5553 71.76L31.8459 71.5874L22.1988 66.0781L21.9082 66.2507L31.5553 71.76Z" fill="#CED3DB"/>
<path d="M32.1658 73.8031L32.4563 73.6305C32.6161 73.5442 32.7033 73.3428 32.7033 73.0839C32.7033 72.5373 32.311 71.8612 31.8316 71.5879L31.541 71.7605C32.0205 72.0338 32.4127 72.7099 32.4127 73.2565C32.4127 73.5298 32.311 73.7168 32.1512 73.8031H32.1658Z" fill="#D6DBE4"/>
<path d="M21.9088 66.2511C21.4294 65.9778 21.0371 66.1935 21.0371 66.7401C21.0371 67.2867 21.4294 67.9628 21.9088 68.2361L31.5559 73.7454C32.0354 74.0187 32.4276 73.8029 32.4276 73.2563C32.4276 72.7097 32.0354 72.0336 31.5559 71.7603L21.9088 66.2511Z" fill="#A2ACBD"/>
<path d="M18.4524 49.2053L32.4146 41.2219C33.7803 40.4451 33.7803 39.1793 32.4146 38.4026L31.1215 37.6689L12.2051 48.486L13.4981 49.2196C14.8638 49.9964 17.0722 49.9964 18.4379 49.2196L18.4524 49.2053Z" fill="#1B161E"/>
<path d="M20.2388 45.7678C20.4713 45.8972 20.8345 45.8972 21.0669 45.7678L26.399 42.7183C26.6314 42.5888 26.6314 42.373 26.399 42.2436C26.1665 42.1141 25.8033 42.1141 25.5708 42.2436L20.2388 45.2931C20.0063 45.4225 20.0063 45.6383 20.2388 45.7678Z" fill="#0D0B0F"/>
<path d="M16.6798 47.2067C16.549 47.48 16.8396 47.7677 17.3191 47.8396C17.7985 47.9115 18.307 47.7533 18.4378 47.4656C18.5685 47.1923 18.278 46.9046 17.7985 46.8327C17.3191 46.7608 16.8106 46.919 16.6798 47.2067Z" fill="#0D0B0F"/>
<path d="M82.0445 93.3654C80.7805 93.3654 79.5892 93.0778 78.7029 92.5743L5.75408 50.6293C4.89688 50.1402 4.41743 49.4929 4.43196 48.8169C4.43196 48.1408 4.91141 47.4791 5.78314 46.99L35.8722 29.7863C36.773 29.2684 37.9643 28.9951 39.2283 28.9951C40.4923 28.9951 41.6837 29.2828 42.5699 29.7863L115.504 71.7313C116.361 72.2203 116.826 72.8676 116.826 73.5437C116.826 74.2341 116.347 74.8814 115.475 75.3705L85.3861 92.5599C84.4854 93.0778 83.294 93.3511 82.03 93.3511L82.0445 93.3654ZM39.2138 29.3116C38.0079 29.3116 36.8601 29.5849 36.0175 30.0596L5.92842 47.2633C5.1584 47.6949 4.73707 48.2559 4.73707 48.8169C4.73707 49.3779 5.14387 49.9245 5.89936 50.356L78.8337 92.301C79.6763 92.7901 80.8096 93.049 82.0155 93.049C83.2214 93.049 84.3691 92.7757 85.2118 92.301L115.301 75.0972C116.071 74.6657 116.492 74.1047 116.492 73.5437C116.492 72.9827 116.071 72.4361 115.33 72.0046L42.3956 30.0739C41.5529 29.5849 40.4197 29.326 39.2138 29.326V29.3116Z" fill="#9FFFFA"/>
<path d="M82.0445 87.9718C83.2795 87.9718 84.4563 87.6985 85.3135 87.1951L115.403 70.0057C116.216 69.5454 116.667 68.9412 116.667 68.3083C116.667 67.6898 116.231 67.1 115.417 66.6253L42.4828 24.6947C41.611 24.1913 40.4633 23.918 39.2138 23.918C37.9643 23.918 36.8166 24.1913 35.9448 24.6947L5.8558 41.8841C5.04219 42.3444 4.5918 42.9486 4.5918 43.5815C4.5918 44.2 5.02766 44.7898 5.84127 45.2645L78.7756 87.2095C79.6473 87.7129 80.7951 87.9862 82.0445 87.9862V87.9718Z" fill="url(#paint1_linear_8044_1519)"/>
<g style="mix-blend-mode:color-dodge">
<path d="M50.7923 29.6569L57.4174 25.8738C58.3763 25.3272 59.9163 25.3272 60.8752 25.8738L67.4567 29.6569C68.4011 30.2035 68.4011 31.0954 67.4567 31.642L60.8316 35.4251C59.8727 35.9717 58.3327 35.9717 57.3738 35.4251L50.7923 31.642C49.8479 31.0954 49.8479 30.2035 50.7923 29.6569Z" fill="url(#paint2_linear_8044_1519)"/>
</g>
<g style="mix-blend-mode:screen">
<path d="M36.3665 21.4001L42.9916 17.617C43.9505 17.0704 45.4905 17.0704 46.4494 17.617L53.031 21.4001C53.9753 21.9467 53.9753 22.8385 53.031 23.3851L46.4058 27.1683C45.4469 27.7149 43.9069 27.7149 42.948 27.1683L36.3665 23.3851C35.4221 22.8385 35.4221 21.9467 36.3665 21.4001Z" fill="#3DC4BD"/>
</g>
<g style="mix-blend-mode:color-dodge">
<path d="M36.511 37.8278L43.1361 34.0447C44.095 33.4981 45.6351 33.4981 46.594 34.0447L53.1755 37.8278C54.1199 38.3744 54.1199 39.2663 53.1755 39.8129L46.5504 43.596C45.5915 44.1426 44.0514 44.1426 43.0925 43.596L36.511 39.8129C35.5666 39.2663 35.5666 38.3744 36.511 37.8278Z" fill="url(#paint3_linear_8044_1519)"/>
</g>
<g style="mix-blend-mode:screen">
<path d="M22.0833 29.571L28.7084 25.7879C29.6673 25.2413 31.2073 25.2413 32.1662 25.7879L38.7477 29.571C39.6921 30.1176 39.6921 31.0094 38.7477 31.556L32.1226 35.3391C31.1637 35.8858 29.6237 35.8858 28.6648 35.3391L22.0833 31.556C21.1389 31.0094 21.1389 30.1176 22.0833 29.571Z" fill="#3DC4BD"/>
</g>
<g style="mix-blend-mode:color-dodge">
<path d="M22.2298 45.9831L28.8549 42.2C29.8138 41.6534 31.3538 41.6534 32.3127 42.2L38.8942 45.9831C39.8386 46.5297 39.8386 47.4215 38.8942 47.9682L32.2691 51.7513C31.3102 52.2979 29.7702 52.2979 28.8113 51.7513L22.2298 47.9682C21.2854 47.4215 21.2854 46.5297 22.2298 45.9831Z" fill="url(#paint4_linear_8044_1519)"/>
</g>
<g style="mix-blend-mode:screen">
<path d="M7.80203 37.7409L14.4271 33.9578C15.386 33.4112 16.9261 33.4112 17.885 33.9578L24.4665 37.7409C25.4109 38.2875 25.4109 39.1794 24.4665 39.726L17.8414 43.5091C16.8825 44.0557 15.3424 44.0557 14.3835 43.5091L7.80203 39.726C6.85766 39.1794 6.85766 38.2875 7.80203 37.7409Z" fill="#3DC4BD"/>
</g>
<path d="M50.7931 29.6996L57.3746 33.4827C58.319 34.0293 59.8735 34.0293 60.8324 33.4827L67.4576 29.6996C67.937 29.4263 68.184 29.0666 68.184 28.707V30.0736C68.184 30.4332 67.9515 30.7928 67.4721 31.0661L60.847 34.8492C59.8881 35.3958 58.348 35.3958 57.3891 34.8492L50.8076 31.0661C50.3282 30.7928 50.0957 30.4332 50.0957 30.0879V28.7214C50.0957 29.081 50.3282 29.4263 50.8076 29.6996H50.7931Z" fill="#9FFFFA"/>
<path d="M59.1611 23.8455C59.7568 23.8455 60.3089 23.9749 60.7157 24.2195L67.2972 28.0026C67.6459 28.204 67.8493 28.4629 67.8493 28.7074C67.8493 28.9663 67.6459 29.2253 67.2972 29.4267L60.6721 33.2098C60.2653 33.4399 59.6987 33.5694 59.103 33.5694C58.5073 33.5694 57.9552 33.4399 57.5339 33.1954L50.9523 29.4123C50.6037 29.2109 50.4003 28.952 50.4003 28.7074C50.4003 28.4485 50.6037 28.1896 50.9523 27.9882L57.5775 24.2051C57.9988 23.9749 58.5509 23.8311 59.1466 23.8311L59.1611 23.8455ZM59.1611 23.5146C58.5364 23.5146 57.9116 23.6585 57.4322 23.9318L50.8071 27.7149C49.8482 28.2615 49.8482 29.1533 50.8071 29.7L57.3886 33.4831C57.868 33.7564 58.4928 33.9002 59.1175 33.9002C59.7422 33.9002 60.367 33.7564 60.8464 33.4974L67.4715 29.7143C68.4304 29.1677 68.4304 28.2759 67.4715 27.7293L60.89 23.9462C60.4106 23.6729 59.7858 23.529 59.1611 23.529V23.5146Z" fill="#9FFFFA"/>
<path d="M36.3517 10.4398L42.9332 14.2229C43.8776 14.7695 45.4321 14.7695 46.391 14.2229L53.0161 10.4398C53.4956 10.1665 53.7426 9.80688 53.7426 9.44727V10.8138C53.7426 11.1734 53.5101 11.533 53.0307 11.8063L46.4056 15.5894C45.4467 16.136 43.9066 16.136 42.9477 15.5894L36.3662 11.8063C35.8868 11.533 35.6543 11.1734 35.6543 10.8282V9.46165C35.6543 9.82126 35.8868 10.1665 36.3662 10.4398H36.3517Z" fill="#9FFFFA"/>
<path d="M36.3665 8.46943L42.9916 4.68632C43.9505 4.13972 45.4905 4.13972 46.4494 4.68632L53.031 8.46943C53.9753 9.01604 53.9753 9.90787 53.031 10.4545L46.4058 14.2376C45.4469 14.7842 43.9069 14.7842 42.948 14.2376L36.3665 10.4545C35.4221 9.90787 35.4221 9.01604 36.3665 8.46943Z" fill="url(#paint5_linear_8044_1519)"/>
<path d="M36.5118 37.8568L43.0934 41.6399C44.0377 42.1865 45.5923 42.1865 46.5512 41.6399L53.1763 37.8568C53.6558 37.5835 53.9027 37.2239 53.9027 36.8643V38.2308C53.9027 38.5904 53.6703 38.95 53.1908 39.2233L46.5657 43.0064C45.6068 43.553 44.0668 43.553 43.1079 43.0064L36.5264 39.2233C36.0469 38.95 35.8145 38.5904 35.8145 38.2452V36.8786C35.8145 37.2383 36.0469 37.5835 36.5264 37.8568H36.5118Z" fill="#9FFFFA"/>
<path d="M44.8798 32.002C45.4755 32.002 46.0276 32.1315 46.4344 32.376L53.0159 36.1591C53.3646 36.3605 53.568 36.6194 53.568 36.8639C53.568 37.1229 53.3646 37.3818 53.0159 37.5832L46.3908 41.3663C45.984 41.5964 45.4174 41.7403 44.8217 41.7403C44.2261 41.7403 43.674 41.6108 43.2526 41.3663L36.6711 37.5832C36.3224 37.3818 36.119 37.1229 36.119 36.8783C36.119 36.6194 36.3224 36.3605 36.6711 36.1591L43.2962 32.376C43.7175 32.1458 44.2696 32.002 44.8653 32.002H44.8798ZM44.8798 31.6855C44.2551 31.6855 43.6304 31.8294 43.1509 32.1027L36.5258 35.8858C35.5669 36.4324 35.5669 37.3242 36.5258 37.8709L43.1073 41.654C43.5868 41.9273 44.2115 42.0711 44.8363 42.0711C45.461 42.0711 46.0857 41.9273 46.5652 41.6683L53.1903 37.8852C54.1492 37.3386 54.1492 36.4468 53.1903 35.9002L46.6088 32.1171C46.1293 31.8438 45.5046 31.6999 44.8798 31.6999V31.6855Z" fill="#9FFFFA"/>
<path d="M22.0704 23.6009L28.6519 27.384C29.5963 27.9306 31.1509 27.9306 32.1098 27.384L38.7349 23.6009C39.2143 23.3276 39.4613 22.968 39.4613 22.6084V23.9749C39.4613 24.3345 39.2289 24.6941 38.7494 24.9674L32.1243 28.7505C31.1654 29.2972 29.6254 29.2972 28.6665 28.7505L22.085 24.9674C21.6055 24.6941 21.373 24.3345 21.373 23.9893V22.6228C21.373 22.9824 21.6055 23.3276 22.085 23.6009H22.0704Z" fill="#9FFFFA"/>
<path d="M22.0852 21.6159L28.7103 17.8328C29.6692 17.2862 31.2093 17.2862 32.1682 17.8328L38.7497 21.6159C39.6941 22.1625 39.6941 23.0544 38.7497 23.601L32.1246 27.3841C31.1657 27.9307 29.6256 27.9307 28.6668 27.3841L22.0852 23.601C21.1409 23.0544 21.1409 22.1625 22.0852 21.6159Z" fill="url(#paint6_linear_8044_1519)"/>
<path d="M22.2306 46.0267L28.8121 49.8098C29.7565 50.3564 31.311 50.3564 32.2699 49.8098L38.8951 46.0267C39.3745 45.7534 39.6215 45.3938 39.6215 45.0342V46.4007C39.6215 46.7603 39.389 47.1199 38.9096 47.3932L32.2845 51.1763C31.3256 51.7229 29.7855 51.7229 28.8266 51.1763L22.2451 47.3932C21.7657 47.1199 21.5332 46.7603 21.5332 46.4151V45.0486C21.5332 45.4082 21.7657 45.7534 22.2451 46.0267H22.2306Z" fill="#9FFFFA"/>
<path d="M30.5986 40.1726C31.1943 40.1726 31.7464 40.3021 32.1532 40.5466L38.7347 44.3297C39.0834 44.5311 39.2868 44.79 39.2868 45.0346C39.2868 45.2935 39.0834 45.5524 38.7347 45.7538L32.1096 49.5369C31.7028 49.7671 31.1362 49.8965 30.5405 49.8965C29.9448 49.8965 29.3927 49.7671 28.9714 49.5225L22.3899 45.7394C22.0412 45.538 21.8378 45.2791 21.8378 45.0346C21.8378 44.7757 22.0412 44.5167 22.3899 44.3154L29.015 40.5322C29.4363 40.3021 29.9884 40.1583 30.5841 40.1583L30.5986 40.1726ZM30.5986 39.8418C29.9739 39.8418 29.3491 39.9856 28.8697 40.2589L22.2446 44.0421C21.2857 44.5887 21.2857 45.4805 22.2446 46.0271L28.8261 49.8102C29.3055 50.0835 29.9303 50.2274 30.555 50.2274C31.1797 50.2274 31.8045 50.0835 32.2839 49.8246L38.909 46.0415C39.8679 45.4949 39.8679 44.603 38.909 44.0564L32.3275 40.2733C31.8481 40 31.2233 39.8562 30.5986 39.8562V39.8418Z" fill="#9FFFFA"/>
<path d="M7.78722 36.7914L14.3687 40.5745C15.3131 41.1211 16.8677 41.1211 17.8266 40.5745L24.4517 36.7914C24.9311 36.518 25.1781 36.1584 25.1781 35.7988V37.1653C25.1781 37.525 24.9457 37.8846 24.4662 38.1579L17.8411 41.941C16.8822 42.4876 15.3422 42.4876 14.3833 41.941L7.80175 38.1579C7.3223 37.8846 7.08984 37.525 7.08984 37.1797V35.8132C7.08984 36.1728 7.3223 36.518 7.80175 36.7914H7.78722Z" fill="#9FFFFA"/>
<path d="M7.80203 34.821L14.4271 31.0379C15.386 30.4913 16.9261 30.4913 17.885 31.0379L24.4665 34.821C25.4109 35.3676 25.4109 36.2594 24.4665 36.806L17.8414 40.5891C16.8825 41.1358 15.3424 41.1358 14.3835 40.5891L7.80203 36.806C6.85766 36.2594 6.85766 35.3676 7.80203 34.821Z" fill="url(#paint7_linear_8044_1519)"/>
<g style="mix-blend-mode:color-dodge">
<path d="M65.9602 38.3308L72.5853 34.5477C73.5442 34.001 75.0843 34.001 76.0432 34.5477L82.6247 38.3308C83.5691 38.8774 83.5691 39.7692 82.6247 40.3158L75.9996 44.0989C75.0407 44.6455 73.5006 44.6455 72.5418 44.0989L65.9602 40.3158C65.0159 39.7692 65.0159 38.8774 65.9602 38.3308Z" fill="url(#paint8_linear_8044_1519)"/>
</g>
<g style="mix-blend-mode:color-dodge">
<path d="M51.679 46.487L58.3041 42.7039C59.263 42.1573 60.803 42.1573 61.7619 42.7039L68.3435 46.487C69.2878 47.0336 69.2878 47.9254 68.3435 48.4721L61.7183 52.2552C60.7594 52.8018 59.2194 52.8018 58.2605 52.2552L51.679 48.4721C50.7346 47.9254 50.7346 47.0336 51.679 46.487Z" fill="url(#paint9_linear_8044_1519)"/>
</g>
<g style="mix-blend-mode:color-dodge">
<path d="M37.3977 54.6569L44.0228 50.8738C44.9817 50.3272 46.5218 50.3272 47.4807 50.8738L54.0622 54.6569C55.0066 55.2035 55.0066 56.0954 54.0622 56.642L47.4371 60.4251C46.4782 60.9717 44.9382 60.9717 43.9793 60.4251L37.3977 56.642C36.4534 56.0954 36.4534 55.2035 37.3977 54.6569Z" fill="url(#paint10_linear_8044_1519)"/>
</g>
<g style="mix-blend-mode:color-dodge">
<path d="M80.8235 46.8181L87.4486 43.035C88.4075 42.4883 89.9476 42.4883 90.9065 43.035L97.488 46.8181C98.4323 47.3647 98.4323 48.2565 97.488 48.8031L90.8629 52.5862C89.904 53.1328 88.3639 53.1328 87.405 52.5862L80.8235 48.8031C79.8791 48.2565 79.8791 47.3647 80.8235 46.8181Z" fill="url(#paint11_linear_8044_1519)"/>
</g>
<g style="mix-blend-mode:color-dodge">
<path d="M66.5423 54.988L73.1674 51.2049C74.1263 50.6583 75.6663 50.6583 76.6252 51.2049L83.2067 54.988C84.1511 55.5346 84.1511 56.4264 83.2067 56.973L76.5816 60.7561C75.6227 61.3027 74.0827 61.3027 73.1238 60.7561L66.5423 56.973C65.5979 56.4264 65.5979 55.5346 66.5423 54.988Z" fill="url(#paint12_linear_8044_1519)"/>
</g>
<g style="mix-blend-mode:color-dodge">
<path d="M52.261 63.1442L58.8861 59.3611C59.845 58.8145 61.3851 58.8145 62.344 59.3611L68.9255 63.1442C69.8698 63.6908 69.8698 64.5827 68.9255 65.1293L62.3004 68.9124C61.3415 69.459 59.8014 69.459 58.8425 68.9124L52.261 65.1293C51.3166 64.5827 51.3166 63.6908 52.261 63.1442Z" fill="url(#paint13_linear_8044_1519)"/>
</g>
<g style="mix-blend-mode:color-dodge">
<path d="M96.0501 55.5202L102.675 51.7371C103.634 51.1905 105.174 51.1905 106.133 51.7371L112.715 55.5202C113.659 56.0668 113.659 56.9587 112.715 57.5053L106.089 61.2884C105.131 61.835 103.59 61.835 102.632 61.2884L96.0501 57.5053C95.1057 56.9587 95.1057 56.0668 96.0501 55.5202Z" fill="url(#paint14_linear_8044_1519)"/>
</g>
<g style="mix-blend-mode:color-dodge">
<path d="M81.7688 63.6911L88.3939 59.908C89.3528 59.3614 90.8929 59.3614 91.8518 59.908L98.4333 63.6911C99.3777 64.2377 99.3777 65.1296 98.4333 65.6762L91.8082 69.4593C90.8493 70.0059 89.3092 70.0059 88.3503 69.4593L81.7688 65.6762C80.8245 65.1296 80.8245 64.2377 81.7688 63.6911Z" fill="url(#paint15_linear_8044_1519)"/>
</g>
<g style="mix-blend-mode:color-dodge">
<path d="M67.4856 71.8464L74.1107 68.0633C75.0696 67.5167 76.6097 67.5167 77.5686 68.0633L84.1501 71.8464C85.0945 72.393 85.0945 73.2848 84.1501 73.8314L77.525 77.6145C76.5661 78.1611 75.026 78.1611 74.0671 77.6145L67.4856 73.8314C66.5413 73.2848 66.5413 72.393 67.4856 71.8464Z" fill="url(#paint16_linear_8044_1519)"/>
</g>
<path d="M65.9474 38.3597L72.5289 42.1428C73.4733 42.6894 75.0278 42.6894 75.9867 42.1428L82.6119 38.3597C83.0913 38.0864 83.3383 37.7268 83.3383 37.3672V38.7337C83.3383 39.0933 83.1058 39.4529 82.6264 39.7262L76.0013 43.5093C75.0424 44.0559 73.5023 44.0559 72.5434 43.5093L65.9619 39.7262C65.4825 39.4529 65.25 39.0933 65.25 38.7481V37.3816C65.25 37.7412 65.4825 38.0864 65.9619 38.3597H65.9474Z" fill="#9FFFFA"/>
<path d="M74.3154 32.5049C74.9111 32.5049 75.4632 32.6344 75.87 32.8789L82.4515 36.662C82.8002 36.8634 83.0036 37.1223 83.0036 37.3669C83.0036 37.6258 82.8002 37.8847 82.4515 38.0861L75.8264 41.8692C75.4196 42.0993 74.853 42.2432 74.2573 42.2432C73.6616 42.2432 73.1095 42.1137 72.6882 41.8692L66.1066 38.0861C65.758 37.8847 65.5546 37.6258 65.5546 37.3813C65.5546 37.1223 65.758 36.8634 66.1066 36.662L72.7318 32.8789C73.1531 32.6488 73.7052 32.5049 74.3009 32.5049H74.3154ZM74.3154 32.1885C73.6907 32.1885 73.0659 32.3323 72.5865 32.6056L65.9614 36.3887C65.0025 36.9353 65.0025 37.8272 65.9614 38.3738L72.5429 42.1569C73.0223 42.4302 73.6471 42.574 74.2718 42.574C74.8965 42.574 75.5213 42.4302 76.0007 42.1713L82.6258 38.3882C83.5847 37.8416 83.5847 36.9497 82.6258 36.4031L76.0443 32.62C75.5649 32.3467 74.9401 32.2029 74.3154 32.2029V32.1885Z" fill="#9FFFFA"/>
<path d="M51.6661 46.5296L58.2476 50.3127C59.192 50.8594 60.7466 50.8594 61.7055 50.3127L68.3306 46.5296C68.81 46.2563 69.057 45.8967 69.057 45.5371V46.9036C69.057 47.2632 68.8246 47.6229 68.3451 47.8962L61.72 51.6793C60.7611 52.2259 59.2211 52.2259 58.2622 51.6793L51.6807 47.8962C51.2012 47.6229 50.9688 47.2632 50.9688 46.918V45.5515C50.9688 45.9111 51.2012 46.2563 51.6807 46.5296H51.6661Z" fill="#9FFFFA"/>
<path d="M60.0341 40.6756C60.6298 40.6756 61.1819 40.805 61.5887 41.0496L68.1702 44.8327C68.5189 45.034 68.7223 45.293 68.7223 45.5375C68.7223 45.7964 68.5189 46.0553 68.1702 46.2567L61.5451 50.0398C61.1383 50.27 60.5717 50.4138 59.976 50.4138C59.3803 50.4138 58.8283 50.2844 58.4069 50.0398L51.8254 46.2567C51.4767 46.0553 51.2733 45.7964 51.2733 45.5519C51.2733 45.293 51.4767 45.034 51.8254 44.8327L58.4505 41.0496C58.8718 40.8194 59.4239 40.6756 60.0196 40.6756H60.0341ZM60.0341 40.3447C59.4094 40.3447 58.7847 40.4886 58.3052 40.7619L51.6801 44.545C50.7212 45.0916 50.7212 45.9834 51.6801 46.53L58.2616 50.3131C58.7411 50.5864 59.3658 50.7303 59.9906 50.7303C60.6153 50.7303 61.24 50.5864 61.7195 50.3275L68.3446 46.5444C69.3035 45.9978 69.3035 45.106 68.3446 44.5594L61.7631 40.7763C61.2836 40.503 60.6589 40.3591 60.0341 40.3591V40.3447Z" fill="#9FFFFA"/>
<path d="M37.3829 54.7005L43.9644 58.4836C44.9088 59.0302 46.4634 59.0302 47.4223 58.4836L54.0474 54.7005C54.5268 54.4272 54.7738 54.0676 54.7738 53.708V55.0745C54.7738 55.4341 54.5414 55.7937 54.0619 56.0671L47.4368 59.8502C46.4779 60.3968 44.9379 60.3968 43.979 59.8502L37.3975 56.0671C36.918 55.7937 36.6855 55.4341 36.6855 55.0889V53.7224C36.6855 54.082 36.918 54.4272 37.3975 54.7005H37.3829Z" fill="#9FFFFA"/>
<path d="M45.7509 48.8321C46.3466 48.8321 46.8987 48.9615 47.3055 49.2061L53.887 52.9892C54.2357 53.1906 54.4391 53.4495 54.4391 53.694C54.4391 53.9529 54.2357 54.2119 53.887 54.4132L47.2619 58.1963C46.8551 58.4265 46.2885 58.5703 45.6928 58.5703C45.0971 58.5703 44.5451 58.4409 44.1237 58.1963L37.5422 54.4132C37.1935 54.2119 36.9901 53.9529 36.9901 53.7084C36.9901 53.4495 37.1935 53.1906 37.5422 52.9892L44.1673 49.2061C44.5886 48.9759 45.1407 48.8321 45.7364 48.8321H45.7509ZM45.7509 48.5156C45.1262 48.5156 44.5015 48.6595 44.022 48.9328L37.3969 52.7159C36.438 53.2625 36.438 54.1543 37.3969 54.7009L43.9784 58.484C44.4579 58.7573 45.0826 58.9012 45.7073 58.9012C46.3321 58.9012 46.9568 58.7717 47.4363 58.4984L54.0614 54.7153C55.0203 54.1687 55.0203 53.2769 54.0614 52.7303L47.4799 48.9472C47.0004 48.6739 46.3757 48.53 45.7509 48.53V48.5156Z" fill="#9FFFFA"/>
<path d="M44.6618 11.1876C44.008 11.1876 43.3542 11.0438 42.8602 10.7561L36.2787 6.97299C35.7702 6.68531 35.4941 6.28254 35.4941 5.85101C35.4941 5.41948 35.7847 5.01671 36.2932 4.71464L42.9038 0.931533C43.9063 0.356156 45.5335 0.356156 46.5215 0.931533L53.103 4.71464C53.6115 5.00233 53.8875 5.40509 53.8875 5.83662C53.8875 6.26816 53.597 6.67092 53.0885 6.97299L46.4633 10.7561C45.9694 11.0438 45.3156 11.1876 44.6473 11.1876H44.6618ZM44.7199 0.816457C44.1242 0.816457 43.5285 0.945917 43.0781 1.20484L36.453 4.98794C36.0462 5.21809 35.8138 5.52017 35.8138 5.83662C35.8138 6.15308 36.0317 6.45515 36.4385 6.68531L43.02 10.4684C43.9208 10.9862 45.4027 10.9862 46.3181 10.4684L52.9432 6.68531C53.35 6.45515 53.5824 6.15308 53.5824 5.83662C53.5824 5.52017 53.3645 5.21809 52.9577 4.98794L46.3616 1.20484C45.9113 0.945917 45.3156 0.816457 44.7199 0.816457Z" fill="#9FFFFA"/>
<path d="M30.3805 24.3497C29.7267 24.3497 29.0729 24.2059 28.579 23.9182L21.9974 20.1351C21.4889 19.8474 21.2129 19.4447 21.2129 19.0131C21.2129 18.5816 21.5035 18.1788 22.012 17.8767L28.6371 14.0936C29.6396 13.5183 31.2668 13.5183 32.2547 14.0936L38.8363 17.8767C39.3448 18.1644 39.6208 18.5672 39.6208 18.9987C39.6208 19.4303 39.3302 19.833 38.8217 20.1351L32.1966 23.9182C31.7026 24.2059 31.0489 24.3497 30.3805 24.3497ZM22.1573 18.1501C21.7505 18.3802 21.518 18.6823 21.518 18.9987C21.518 19.3152 21.7359 19.6173 22.1427 19.8474L28.7243 23.6305C29.625 24.1484 31.107 24.1484 32.0223 23.6305L38.6474 19.8474C39.0542 19.6173 39.2867 19.3152 39.2867 18.9987C39.2867 18.6823 39.0687 18.3802 38.6619 18.1501L32.0804 14.3669C31.1796 13.8491 29.6977 13.8491 28.7824 14.3669L22.1573 18.1501Z" fill="#9FFFFA"/>
<path d="M16.0973 37.5402C15.4435 37.5402 14.7897 37.3963 14.2958 37.1086L7.71424 33.3255C7.20573 33.0378 6.92969 32.6351 6.92969 32.2035C6.92969 31.772 7.22026 31.3692 7.72877 31.0672L14.3539 27.2841C15.3564 26.7087 16.9836 26.7087 17.9715 27.2841L24.5531 31.0672C25.0616 31.3549 25.3376 31.7576 25.3376 32.1892C25.3376 32.6207 25.047 33.0235 24.5385 33.3255L17.9134 37.1086C17.4194 37.3963 16.7656 37.5402 16.1119 37.5402H16.0973ZM16.1554 27.169C15.5598 27.169 14.9641 27.2985 14.5137 27.5574L7.88858 31.3405C7.48178 31.5706 7.24932 31.8727 7.24932 32.1892C7.24932 32.5056 7.46725 32.8077 7.87406 33.0378L14.4556 36.8209C15.3564 37.3388 16.8383 37.3388 17.7391 36.8209L24.3642 33.0378C24.771 32.8077 25.0034 32.5056 25.0034 32.1892C25.0034 31.8727 24.7855 31.5706 24.3787 31.3405L17.7972 27.5574C17.3468 27.2985 16.7511 27.169 16.1554 27.169Z" fill="#9FFFFA"/>
<defs>
<linearGradient id="paint0_linear_8044_1519" x1="48.9471" y1="78.1468" x2="118.293" y2="78.1468" gradientUnits="userSpaceOnUse">
<stop offset="0.4" stop-color="#A2ACBD"/>
<stop offset="0.58" stop-color="#BBC2CD"/>
</linearGradient>
<linearGradient id="paint1_linear_8044_1519" x1="4.5918" y1="23.918" x2="122.998" y2="39.3242" gradientUnits="userSpaceOnUse">
<stop stop-color="#2B59FF"/>
<stop offset="1" stop-color="#BB2BFF"/>
</linearGradient>
<linearGradient id="paint2_linear_8044_1519" x1="50.084" y1="25.4639" x2="69.1886" y2="27.9412" gradientUnits="userSpaceOnUse">
<stop stop-color="#2B59FF"/>
<stop offset="1" stop-color="#BB2BFF"/>
</linearGradient>
<linearGradient id="paint3_linear_8044_1519" x1="35.8027" y1="33.6348" x2="54.9074" y2="36.1121" gradientUnits="userSpaceOnUse">
<stop stop-color="#2B59FF"/>
<stop offset="1" stop-color="#BB2BFF"/>
</linearGradient>
<linearGradient id="paint4_linear_8044_1519" x1="21.5215" y1="41.79" x2="40.6261" y2="44.2674" gradientUnits="userSpaceOnUse">
<stop stop-color="#2B59FF"/>
<stop offset="1" stop-color="#BB2BFF"/>
</linearGradient>
<linearGradient id="paint5_linear_8044_1519" x1="35.6582" y1="4.27637" x2="54.7628" y2="6.75374" gradientUnits="userSpaceOnUse">
<stop stop-color="#2B59FF"/>
<stop offset="1" stop-color="#BB2BFF"/>
</linearGradient>
<linearGradient id="paint6_linear_8044_1519" x1="21.377" y1="17.4229" x2="40.4816" y2="19.9002" gradientUnits="userSpaceOnUse">
<stop stop-color="#2B59FF"/>
<stop offset="1" stop-color="#BB2BFF"/>
</linearGradient>
<linearGradient id="paint7_linear_8044_1519" x1="7.09375" y1="30.6279" x2="26.1984" y2="33.1053" gradientUnits="userSpaceOnUse">
<stop stop-color="#2B59FF"/>
<stop offset="1" stop-color="#BB2BFF"/>
</linearGradient>
<linearGradient id="paint8_linear_8044_1519" x1="65.252" y1="34.1377" x2="84.3566" y2="36.6151" gradientUnits="userSpaceOnUse">
<stop stop-color="#2B59FF"/>
<stop offset="1" stop-color="#BB2BFF"/>
</linearGradient>
<linearGradient id="paint9_linear_8044_1519" x1="50.9707" y1="42.2939" x2="70.0754" y2="44.7713" gradientUnits="userSpaceOnUse">
<stop stop-color="#2B59FF"/>
<stop offset="1" stop-color="#BB2BFF"/>
</linearGradient>
<linearGradient id="paint10_linear_8044_1519" x1="36.6895" y1="50.4639" x2="55.7941" y2="52.9412" gradientUnits="userSpaceOnUse">
<stop stop-color="#2B59FF"/>
<stop offset="1" stop-color="#BB2BFF"/>
</linearGradient>
<linearGradient id="paint11_linear_8044_1519" x1="80.1152" y1="42.625" x2="99.2199" y2="45.1024" gradientUnits="userSpaceOnUse">
<stop stop-color="#2B59FF"/>
<stop offset="1" stop-color="#BB2BFF"/>
</linearGradient>
<linearGradient id="paint12_linear_8044_1519" x1="65.834" y1="50.7949" x2="84.9386" y2="53.2723" gradientUnits="userSpaceOnUse">
<stop stop-color="#2B59FF"/>
<stop offset="1" stop-color="#BB2BFF"/>
</linearGradient>
<linearGradient id="paint13_linear_8044_1519" x1="51.5527" y1="58.9512" x2="70.6574" y2="61.4285" gradientUnits="userSpaceOnUse">
<stop stop-color="#2B59FF"/>
<stop offset="1" stop-color="#BB2BFF"/>
</linearGradient>
<linearGradient id="paint14_linear_8044_1519" x1="95.3418" y1="51.3271" x2="114.446" y2="53.8045" gradientUnits="userSpaceOnUse">
<stop stop-color="#2B59FF"/>
<stop offset="1" stop-color="#BB2BFF"/>
</linearGradient>
<linearGradient id="paint15_linear_8044_1519" x1="81.0605" y1="59.498" x2="100.165" y2="61.9754" gradientUnits="userSpaceOnUse">
<stop stop-color="#2B59FF"/>
<stop offset="1" stop-color="#BB2BFF"/>
</linearGradient>
<linearGradient id="paint16_linear_8044_1519" x1="66.7773" y1="67.6533" x2="85.882" y2="70.1307" gradientUnits="userSpaceOnUse">
<stop stop-color="#2B59FF"/>
<stop offset="1" stop-color="#BB2BFF"/>
</linearGradient>
</defs>
</svg>
