<svg width="114" height="170" viewBox="0 0 114 170" fill="none" xmlns="http://www.w3.org/2000/svg">
<g style="mix-blend-mode:multiply" opacity="0.5">
<path d="M21.3303 113.77L-24.5156 140.299L25.9183 169.5H53.4967L21.3303 113.77Z" fill="#003893"/>
</g>
<path style="mix-blend-mode:color-dodge" d="M65.0848 31.1381C65.7426 31.5101 61.1041 34.8072 54.745 38.4933C48.3859 42.1793 42.6847 44.8508 42.0437 44.4789C41.4028 44.1069 46.0245 40.8097 52.3835 37.1237C58.7426 33.4376 64.4438 30.7661 65.0848 31.1381Z" fill="url(#paint0_radial_8044_310)"/>
<path d="M61.1544 85.4996L58.4219 83.9102L64.005 80.6807L66.7544 82.2701L61.1544 85.4996Z" fill="#E5ECF8"/>
<path d="M61.1544 111.014L58.4219 109.425V83.9102L61.1544 85.4995V111.014Z" fill="#A2ACBD"/>
<path d="M66.7543 107.785L61.1543 111.015V85.5L66.7543 82.2705V107.785Z" fill="#BBC2CD"/>
<path d="M67.8353 89.3541L65.0859 87.7647L70.6691 84.5352L73.4185 86.1245L67.8353 89.3541Z" fill="#E5ECF8"/>
<path d="M67.8353 114.886L65.0859 113.296V87.7646L67.8353 89.354V114.886Z" fill="#A2ACBD"/>
<path d="M73.4171 111.64L67.834 114.886V89.3545L73.4171 86.125V111.64Z" fill="#BBC2CD"/>
<path d="M74.4982 93.2095L71.7656 91.6371L77.3488 88.3906L80.0813 89.98L74.4982 93.2095Z" fill="#E5ECF8"/>
<path d="M74.4982 118.742L71.7656 117.153V91.6377L74.4982 93.2102V118.742Z" fill="#A2ACBD"/>
<path d="M80.0812 115.512L74.498 118.742V93.21L80.0812 89.9805V115.512Z" fill="#BBC2CD"/>
<path d="M81.1583 97.0806L78.4258 95.4912L84.0089 92.2617L86.7583 93.8342L81.1583 97.0806Z" fill="#E5ECF8"/>
<path d="M81.1583 122.595L78.4258 121.006V95.4912L81.1583 97.0806V122.595Z" fill="#A2ACBD"/>
<path d="M86.7582 119.366L81.1582 122.595V97.0804L86.7582 93.834V119.366Z" fill="#BBC2CD"/>
<path d="M87.8373 100.936L85.0879 99.3467L90.6879 96.1172L93.4204 97.7066L87.8373 100.936Z" fill="#E5ECF8"/>
<path d="M87.8373 126.451L85.0879 124.878V99.3467L87.8373 100.936V126.451Z" fill="#A2ACBD"/>
<path d="M93.4191 123.222L87.8359 126.451V100.937L93.4191 97.707V123.222Z" fill="#BBC2CD"/>
<path d="M94.5001 104.791L91.7676 103.201L97.3507 99.9717L100.1 101.561L94.5001 104.791Z" fill="#E5ECF8"/>
<path d="M94.5001 130.322L91.7676 128.733V103.201L94.5001 104.791V130.322Z" fill="#A2ACBD"/>
<path d="M100.1 127.076L94.5 130.323V104.791L100.1 101.562V127.076Z" fill="#BBC2CD"/>
<path d="M101.181 108.663L98.4316 107.074L104.015 103.827L106.764 105.417L101.181 108.663Z" fill="#E5ECF8"/>
<path d="M101.181 134.178L98.4316 132.589V107.074L101.181 108.664V134.178Z" fill="#A2ACBD"/>
<path d="M106.763 130.949L101.18 134.178V108.663L106.763 105.417V130.949Z" fill="#BBC2CD"/>
<path d="M107.843 112.519L105.094 110.93L110.694 107.7L113.426 109.29L107.843 112.519Z" fill="#E5ECF8"/>
<path d="M107.843 138.034L105.094 136.445V110.93L107.843 112.519V138.034Z" fill="#A2ACBD"/>
<path d="M113.425 134.805L107.842 138.034V112.52L113.425 109.29V134.805Z" fill="#BBC2CD"/>
<path d="M59.0644 140.738L9.64258 112.146L58.4403 83.9092L107.845 112.501L59.0644 140.738Z" fill="#E5ECF8"/>
<path d="M59.0644 166.27L9.64258 137.661V112.146L59.0644 140.739V166.27Z" fill="#A2ACBD"/>
<path d="M107.845 138.034L59.0645 166.271V140.739L107.845 112.502V138.034Z" fill="#BBC2CD"/>
<path d="M6.80871 116.949L4.07617 115.359L9.65932 112.13L12.4087 113.719L6.80871 116.949Z" fill="#E5ECF8"/>
<path d="M6.80871 142.481L4.07617 140.891V115.359L6.80871 116.949V142.481Z" fill="#A2ACBD"/>
<path d="M12.4086 139.235L6.80859 142.481V116.949L12.4086 113.72V139.235Z" fill="#BBC2CD"/>
<path d="M13.4877 120.803L10.7383 119.231L16.3214 115.984L19.0708 117.574L13.4877 120.803Z" fill="#E5ECF8"/>
<path d="M13.4877 146.336L10.7383 144.746V119.231L13.4877 120.804V146.336Z" fill="#A2ACBD"/>
<path d="M19.0695 143.106L13.4863 146.336V120.804L19.0695 117.574V143.106Z" fill="#BBC2CD"/>
<path d="M20.1498 124.675L17.4004 123.086L23.0004 119.856L25.7329 121.429L20.1498 124.675Z" fill="#E5ECF8"/>
<path d="M20.1498 150.19L17.4004 148.601V123.086L20.1498 124.675V150.19Z" fill="#A2ACBD"/>
<path d="M25.7316 146.96L20.1484 150.19V124.675L25.7316 121.429V146.96Z" fill="#BBC2CD"/>
<path d="M26.8126 128.532L24.0801 126.942L29.6632 123.713L32.4126 125.302L26.8126 128.532Z" fill="#E5ECF8"/>
<path d="M26.8126 154.047L24.0801 152.474V126.942L26.8126 128.532V154.047Z" fill="#A2ACBD"/>
<path d="M32.4125 150.818L26.8125 154.047V128.532L32.4125 125.303V150.818Z" fill="#BBC2CD"/>
<path d="M33.4916 132.386L30.7422 130.797L36.3422 127.567L39.0747 129.157L33.4916 132.386Z" fill="#E5ECF8"/>
<path d="M33.4916 157.918L30.7422 156.329V130.797L33.4916 132.386V157.918Z" fill="#A2ACBD"/>
<path d="M39.0734 154.672L33.4902 157.919V132.387L39.0734 129.157V154.672Z" fill="#BBC2CD"/>
<path d="M40.1544 136.259L37.4219 134.669L43.005 131.423L45.7376 133.012L40.1544 136.259Z" fill="#E5ECF8"/>
<path d="M40.1544 161.774L37.4219 160.185V134.67L40.1544 136.259V161.774Z" fill="#A2ACBD"/>
<path d="M45.7375 158.544L40.1543 161.774V136.259L45.7375 133.013V158.544Z" fill="#BBC2CD"/>
<path d="M46.8334 140.113L44.084 138.523L49.6671 135.294L52.4165 136.883L46.8334 140.113Z" fill="#E5ECF8"/>
<path d="M46.8334 165.628L44.084 164.038V138.523L46.8334 140.113V165.628Z" fill="#A2ACBD"/>
<path d="M52.4152 162.399L46.832 165.628V140.113L52.4152 136.884V162.399Z" fill="#BBC2CD"/>
<path d="M53.4955 143.968L50.7461 142.379L56.3461 139.149L59.0787 140.739L53.4955 143.968Z" fill="#E5ECF8"/>
<path d="M53.4955 169.5L50.7461 167.911V142.379L53.4955 143.968V169.5Z" fill="#A2ACBD"/>
<path d="M59.0773 166.254L53.4941 169.501V143.969L59.0773 140.739V166.254Z" fill="#BBC2CD"/>
<path opacity="0.9" d="M96.1709 110.236L61.4238 90.1315C59.7708 89.1847 57.1057 89.1678 55.4695 90.1315L54.9298 90.4528L56.9707 90.1315C55.3177 89.1847 52.6527 89.1678 51.0165 90.1315L16.4887 110.253C14.8525 111.216 14.8525 112.755 16.5056 113.719L51.2527 133.823C52.0454 134.28 53.0743 134.516 54.1033 134.533H58.5563C59.6864 134.55 60.8165 134.313 61.6768 133.823L96.2046 113.702C97.8408 112.755 97.8239 111.199 96.1877 110.253L96.1709 110.236Z" fill="#A2ACBD"/>
<path d="M79.2515 97.8751L63.9189 88.9982C60.4611 87.003 54.8105 87.003 51.3695 89.0151L36.2393 97.8244C28.7501 102.187 28.767 109.305 36.2562 113.651L51.5719 122.511C55.0297 124.506 60.6804 124.506 64.1382 122.494L79.2684 113.685C86.7576 109.322 86.7407 102.204 79.2515 97.8582V97.8751Z" fill="#1B161E"/>
<path d="M36.8469 101.68C40.7602 101.866 48.7385 102.712 55.0638 106.381L57.7458 104.825C57.7458 104.825 55.2156 99.5837 48.0638 95.4243C46.7144 94.6465 44.6397 94.4436 42.9698 94.9677C39.1746 96.1513 36.6613 98.6707 35.4131 100.26C34.9071 100.886 35.6493 101.613 36.8469 101.68Z" fill="url(#paint1_linear_8044_310)"/>
<path d="M36.9139 112.078C39.9163 110.607 46.579 107.935 55.5356 107.935V105.737C55.5356 105.737 47.3549 103.066 37.2175 103.049C35.3115 103.049 33.6079 103.759 33.0681 104.807C31.8368 107.208 33.1524 110.015 34.1814 111.638C34.603 112.298 36.0031 112.501 36.9308 112.044L36.9139 112.078Z" fill="url(#paint2_linear_8044_310)"/>
<path d="M49.6325 119.399C49.953 117.134 51.4205 112.518 57.7458 108.849L55.0639 107.293C55.0639 107.293 46.0229 108.764 38.8373 112.89C37.4879 113.667 37.1505 114.868 38.0614 115.832C40.1192 118.03 44.4711 119.484 47.2036 120.211C48.3 120.498 49.5482 120.076 49.6494 119.383L49.6325 119.399Z" fill="url(#paint3_linear_8044_310)"/>
<path d="M67.5954 119.366C65.0484 117.625 60.4435 113.77 60.4435 108.596H56.6483C56.6483 108.596 52.0435 113.33 52.0098 119.197C52.0098 120.296 53.2411 121.277 55.0628 121.598C59.1953 122.308 64.0532 121.548 66.8701 120.956C68.0002 120.719 68.3713 119.907 67.5785 119.366H67.5954Z" fill="url(#paint4_linear_8044_310)"/>
<path d="M80.2485 111.994C76.3352 111.808 68.3569 110.962 62.0315 107.293L59.3496 108.849C59.3496 108.849 61.8797 114.09 69.0316 118.25C70.3641 119.027 72.4557 119.23 74.1256 118.706C77.9208 117.523 80.434 115.003 81.6822 113.414C82.1882 112.788 81.4461 112.061 80.2485 111.994Z" fill="url(#paint5_linear_8044_310)"/>
<path d="M80.1979 101.612C77.1955 103.083 70.5328 105.754 61.5762 105.754V107.952C61.5762 107.952 69.7569 110.624 79.8943 110.641C81.8003 110.641 83.504 109.931 84.0437 108.882C85.275 106.481 83.9594 103.675 82.9305 102.051C82.5088 101.392 81.1088 101.189 80.1811 101.646L80.1979 101.612Z" fill="url(#paint6_linear_8044_310)"/>
<path d="M67.4629 94.274C67.1424 96.5397 65.6749 101.156 59.3496 104.825L62.0315 106.38C62.0315 106.38 71.0725 104.909 78.2581 100.784C79.6075 100.006 79.9449 98.8055 79.034 97.8417C76.9762 95.6436 72.6244 94.1895 69.8918 93.4624C68.7954 93.1749 67.5472 93.5977 67.446 94.2909L67.4629 94.274Z" fill="url(#paint7_linear_8044_310)"/>
<path d="M49.5151 94.3077C52.0621 96.0493 56.667 99.9044 56.667 105.078H60.4621C60.4621 105.078 65.067 100.344 65.1007 94.4768C65.1007 93.3777 63.8694 92.397 62.0477 92.0758C57.9151 91.3656 53.0573 92.1265 50.2404 92.7183C49.1103 92.955 48.7392 93.7666 49.532 94.3077H49.5151Z" fill="url(#paint8_linear_8044_310)"/>
<path d="M61.9473 101.747V102.846L67.6485 93.8845V92.7686L61.9473 101.747Z" fill="#BBC2CD"/>
<path d="M64.1055 92.0092C60.4453 91.3498 56.5151 91.3498 52.8549 92.0092C40.5753 94.2073 34.4524 99.9731 34.4355 105.739V106.838C34.4355 101.055 40.5753 95.2895 52.8549 93.1083C56.4983 92.4658 60.4453 92.4488 64.1055 93.1083C64.7465 93.2266 65.3706 93.345 65.9778 93.4803V92.3812C65.3706 92.2459 64.7465 92.1107 64.1055 92.0092Z" fill="url(#paint9_linear_8044_310)"/>
<path d="M75.5574 95.8966C73.4152 94.6454 70.767 93.5802 67.6465 92.7686V93.8676C70.767 94.6792 73.3983 95.7444 75.5574 96.9957C80.314 99.7517 82.6923 103.353 82.6754 106.972V105.873C82.6754 102.271 80.314 98.6527 75.5574 95.8966Z" fill="#A2ACBD"/>
<path d="M50.7962 106.094V107.193C50.7962 107.091 50.7793 106.973 50.7793 106.872V105.772C50.7793 105.874 50.7793 105.975 50.7962 106.094Z" fill="#9E9E9E"/>
<path d="M33.6934 108.275L34.9753 109.814L51.1175 108.224L51.5223 106.145L33.6934 108.275Z" fill="#BBC2CD"/>
<path d="M66.3311 105.822V106.921C66.3311 108.139 65.4708 109.288 64.0371 110.1V109.001C65.4708 108.173 66.3311 107.04 66.3311 105.822Z" fill="#BBC2CD"/>
<path d="M59.8721 110.253C57.2914 110.507 54.795 109.983 53.0745 108.985C52.1974 108.478 51.5059 107.835 51.1348 107.108V108.207C51.5059 108.935 52.1974 109.577 53.0745 110.084C54.795 111.082 57.2914 111.606 59.8721 111.352C60.8673 111.251 61.795 111.048 62.6216 110.761V109.662C61.8119 109.949 60.8842 110.169 59.889 110.253H59.8721Z" fill="#A2ACBD"/>
<path d="M62.6211 109.66V110.759L73.1127 118.114L73.1296 116.998L62.6211 109.66Z" fill="#A2ACBD"/>
<path d="M96.1534 104.081L61.4063 83.9767C59.7533 83.013 57.0882 83.013 55.4521 83.9767L20.9242 104.098C19.2881 105.045 19.2881 106.6 20.9411 107.564L55.6882 127.668C57.3412 128.615 60.0063 128.615 61.6424 127.668L96.1703 107.547C97.8064 106.6 97.7896 105.045 96.1534 104.098V104.081ZM52.8545 92.0083C56.4978 91.3657 60.4448 91.3488 64.1051 92.0083C64.7461 92.1266 65.3702 92.245 65.9774 92.3802L60.2424 101.409C59.281 101.291 58.2689 101.257 57.2231 101.359C53.2593 101.748 50.5267 103.81 50.7966 106.093L34.6544 107.682C33.1532 101.308 39.1918 94.4431 52.8545 92.0083ZM64.2569 119.603C60.6135 120.262 56.6665 120.262 53.0063 119.603C48.2834 118.757 44.4713 117.388 41.5532 115.697C38.1122 113.702 35.9195 111.267 34.9749 108.697L51.134 107.108C51.5219 107.835 52.1966 108.477 53.0737 108.984C54.7942 109.982 57.2906 110.506 59.8713 110.252C60.8665 110.151 61.7942 109.948 62.6208 109.661L73.1292 116.999C70.6497 118.098 67.6979 118.994 64.2569 119.603ZM74.5124 116.34L64.0376 109.018C65.775 108.021 66.669 106.566 66.2135 105.045C65.9268 104.081 65.1509 103.252 64.0376 102.61C63.4304 102.255 62.722 101.967 61.9461 101.748L67.6473 92.7691C70.7678 93.5807 73.416 94.646 75.5582 95.8972C85.3751 101.578 85.0377 110.929 74.5292 116.34H74.5124Z" fill="#E5ECF8"/>
<path d="M96.1863 107.53L61.6585 127.651C60.0224 128.598 57.3404 128.598 55.7043 127.651L20.9572 107.547C20.1307 107.074 19.709 106.431 19.709 105.806V111.994C19.709 112.62 20.1138 113.262 20.9572 113.736L55.7043 133.84C57.3573 134.787 60.0224 134.787 61.6585 133.84L96.1863 113.719C96.996 113.245 97.4008 112.62 97.4008 112.011V105.823C97.4008 106.448 96.996 107.057 96.1863 107.53Z" fill="url(#paint10_linear_8044_310)"/>
<path d="M94.5023 106.313C94.0131 106.6 93.2035 106.6 92.6974 106.313C92.1914 106.025 92.2083 105.552 92.6974 105.264C93.1866 104.977 93.9962 104.977 94.5023 105.264C94.9914 105.552 94.9914 106.025 94.5023 106.313Z" fill="#271F2A"/>
<path d="M59.6365 125.116C59.1474 124.829 58.3377 124.829 57.8317 125.116C57.3426 125.403 57.3426 125.877 57.8317 126.164C58.3209 126.452 59.1305 126.452 59.6365 126.164C60.1257 125.877 60.1257 125.403 59.6365 125.116Z" fill="#271F2A"/>
<path d="M59.6365 85.1941C59.1474 84.9067 58.3377 84.9067 57.8317 85.1941C57.3426 85.4815 57.3426 85.955 57.8317 86.2424C58.3209 86.5299 59.1305 86.5299 59.6365 86.2424C60.1257 85.955 60.1257 85.4815 59.6365 85.1941Z" fill="#271F2A"/>
<path d="M24.9705 105.264C24.4814 104.977 23.6717 104.977 23.1657 105.264C22.6765 105.552 22.6765 106.025 23.1657 106.313C23.6549 106.6 24.4645 106.6 24.9705 106.313C25.4597 106.025 25.4597 105.552 24.9705 105.264Z" fill="#271F2A"/>
<path d="M96.1534 87.9505L61.4063 67.8464C59.7533 66.8995 57.0882 66.8826 55.4521 67.8464L20.9242 87.9675C19.2881 88.9312 19.2881 90.4699 20.9411 91.4337L55.6882 111.538C57.3412 112.485 60.0063 112.485 61.6424 111.538L96.1703 91.4168C97.8064 90.4699 97.7896 88.9143 96.1534 87.9675V87.9505Z" fill="#E5ECF8"/>
<path d="M58.6756 109.356C57.9503 109.356 57.4105 109.187 57.1406 109.034L24.9068 90.3845C24.367 90.0632 24.367 89.2854 24.9068 88.9811L56.9045 70.331C57.1744 70.1788 57.7141 70.0098 58.4394 70.0098C59.1647 70.0098 59.7213 70.1789 59.9912 70.3479L92.2251 88.998C92.7648 89.3023 92.7648 90.097 92.2251 90.4014L60.2274 109.051C59.9575 109.204 59.4009 109.373 58.6924 109.373L58.6756 109.356Z" fill="#0442A9"/>
<path d="M96.1883 91.3995L61.6605 111.521C60.0243 112.484 57.3424 112.484 55.7062 111.521L20.9591 91.4164C20.1326 90.9429 19.7109 90.3004 19.7109 89.6748V92.414C19.7109 93.0396 20.1158 93.6821 20.9591 94.1555L55.7062 114.26C57.3593 115.207 60.0243 115.207 61.6605 114.26L96.1883 94.1386C96.9979 93.6652 97.4028 93.0396 97.4028 92.4309V89.6917C97.4028 90.3173 96.9979 90.926 96.1883 91.3995Z" fill="url(#paint11_linear_8044_310)"/>
<path d="M102.565 128.953L64.7988 150.816V141.821L102.565 119.958V128.953Z" fill="#251E28"/>
<path d="M26.6257 42.7713C27.0305 41.8582 27.5703 40.9959 28.2112 40.2688C28.751 39.6601 29.3582 39.1359 29.9992 38.764L66.1969 17.8144C67.327 17.155 68.356 17.1042 69.0813 17.5269L74.3608 20.6212L32.445 73.0036L27.1655 69.9093C26.4402 69.4866 25.9847 68.5736 25.9679 67.2716L25.9004 45.8317C25.9004 44.851 26.1534 43.7689 26.6088 42.7544L26.6257 42.7713Z" fill="url(#paint12_linear_8044_310)"/>
<path d="M28.1599 40.3372C27.5358 41.0643 27.013 41.8928 26.625 42.772C26.625 42.8059 47.119 54.6756 47.119 54.6756L48.9745 52.3591L28.1768 40.3203L28.1599 40.3372Z" fill="url(#paint13_linear_8044_310)"/>
<path d="M35.2812 41.8582L71.4789 20.9086C73.7391 19.6067 75.5608 20.6719 75.5608 23.2589L75.6283 44.6988C75.6283 47.3196 73.8235 50.4646 71.5632 51.7665L35.3655 72.7161C33.1053 74.0181 31.2667 72.9867 31.2667 70.3658L31.1992 48.9259C31.1992 46.322 33.0209 43.1432 35.2812 41.8413V41.8582Z" fill="url(#paint14_linear_8044_310)"/>
<path d="M53.7342 51.8181L52.7559 51.2432V48.335L53.7342 48.8929V51.8181Z" fill="#8A93A0"/>
<path d="M53.7342 48.8929L52.7559 48.3349L57.9511 45.3252L58.9294 45.8832L53.7342 48.8929Z" fill="#BBC2CD"/>
<path d="M32.2431 61.354L75.3902 21.2133L74.1757 20.4693C73.4335 20.0466 72.4215 20.0973 71.2914 20.7568L35.0937 41.7063C34.4527 42.0783 33.8455 42.6025 33.3057 43.2112C32.6647 43.9383 32.125 44.8175 31.7202 45.7136C31.2647 46.7281 31.0117 47.8103 31.0117 48.791L31.0455 60.6607L32.2599 61.3709L32.2431 61.354Z" fill="url(#paint15_linear_8044_310)"/>
<path d="M33.2556 43.2786C32.6315 44.0057 32.1087 44.8342 31.7207 45.7134C31.7207 45.7473 36.5786 48.571 36.5786 48.571L38.434 46.2545L33.2725 43.2617L33.2556 43.2786Z" fill="url(#paint16_linear_8044_310)"/>
<path d="M76.6219 35.6863L76.5882 23.8504C76.5882 21.2465 74.7496 20.1813 72.5062 21.5001L36.3085 42.4497C34.0483 43.7517 32.2266 46.9304 32.2266 49.5343L32.2603 61.3703L76.6219 35.6863Z" fill="url(#paint17_linear_8044_310)"/>
<path d="M58.9276 48.8078L53.7324 51.8175V45.7812L58.9276 42.7715V48.8078Z" fill="#BBC2CD"/>
<path d="M46.0582 30.9857L51.0172 28.1112L55.757 25.3721L57.9329 26.6402L53.1932 29.3794L48.2341 32.2538L46.463 33.2683L44.2871 32.0002L46.0582 30.9857Z" fill="#013FA3"/>
<path d="M60.4121 24.374V25.2194L59.4844 25.7436V24.8982L60.4121 24.374Z" fill="#BBC2CD"/>
<path d="M57.3086 24.4929L59.4845 25.7441V24.8987L57.3086 23.6475V24.4929Z" fill="#A2ACBD"/>
<path d="M59.4845 24.8987L60.4122 24.3746L58.2363 23.1064L57.3086 23.6475L59.4845 24.8987Z" fill="#E5ECF8"/>
<path d="M57.3441 23.6318L59.52 24.9L57.9513 25.7961L55.7754 24.528L57.3441 23.6318Z" fill="url(#paint18_linear_8044_310)"/>
<path d="M55.9083 24.6793L57.5276 26.8943L55.3517 25.6261L53.7324 23.4111L55.9083 24.6793Z" fill="#013FA3"/>
<path d="M47.4261 26.218L52.3851 23.3436L54.1562 22.3291L56.3322 23.5972L54.5611 24.6117L49.602 27.4862L47.8478 28.5007L45.6719 27.2326L47.4261 26.218Z" fill="url(#paint19_linear_8044_310)"/>
<path d="M45.6708 27.2324L47.8467 28.5006L46.2443 32.5755L44.0684 31.3074L45.6708 27.2324Z" fill="#013FA3"/>
<path d="M44.0687 31.3066L46.2446 32.5748L44.6759 33.4878L42.5 32.2197L44.0687 31.3066Z" fill="url(#paint20_linear_8044_310)"/>
<path d="M46.2445 32.5751L47.8469 28.5001L49.6011 27.4856L54.5602 24.6112L56.3312 23.5967L57.9505 25.7948L59.5192 24.8986V25.7271L57.5288 26.8938L55.9096 24.6788L54.5602 25.4566L49.618 28.331L48.2686 29.1088L46.6661 33.1669L44.6758 34.3335V33.4881L46.2445 32.5751Z" fill="url(#paint21_linear_8044_310)"/>
<path d="M44.6759 33.4888V34.3343L42.5 33.0661V32.2207L44.6759 33.4888Z" fill="#013FA3"/>
<path d="M44.6738 33.4707V34.333L43.7461 34.8572V34.0118L44.6738 33.4707Z" fill="#BBC2CD"/>
<path d="M41.5703 33.6055L43.7462 34.8567V34.0113L41.5703 32.7432V33.6055Z" fill="#A2ACBD"/>
<path d="M43.7462 34.012L44.6739 33.471L42.498 32.2197L41.5703 32.7439L43.7462 34.012Z" fill="#E5ECF8"/>
<path d="M56.5316 48.6378C56.2786 48.7899 56.0762 48.6885 56.0762 48.4518V47.2344C56.0762 46.9807 56.2786 46.6595 56.5316 46.5242C56.7846 46.372 56.987 46.4735 56.987 46.7102V47.9276C56.987 48.1812 56.7846 48.5025 56.5316 48.6378Z" fill="#8A93A0"/>
<path d="M34.4519 47.3025C34.8567 46.3895 35.3965 45.5271 36.0374 44.8001C36.5772 44.1914 37.1844 43.6672 37.8254 43.2952L74.0231 22.3456C75.1532 21.6862 76.1821 21.6355 76.9074 22.0582L82.187 25.1524L40.2712 77.5348L34.9916 74.4406C34.2663 74.0179 33.8109 73.1048 33.794 71.8029L33.7266 50.3629C33.7266 49.3822 33.9796 48.3001 34.435 47.2856L34.4519 47.3025Z" fill="url(#paint22_linear_8044_310)"/>
<path d="M35.9881 44.8519C35.364 45.5789 34.8411 46.4074 34.4531 47.2867C34.4531 47.3205 54.9472 59.1902 54.9472 59.1902L56.8026 56.8738L36.0049 44.835L35.9881 44.8519Z" fill="url(#paint23_linear_8044_310)"/>
<path d="M43.1073 46.3894L79.305 25.4399C81.5653 24.1379 83.387 25.2031 83.387 27.7901L83.4545 49.2301C83.4545 51.8509 81.6496 54.9958 79.3894 56.2978L43.1917 77.2474C40.9314 78.5493 39.0929 77.5179 39.0929 74.8971L39.0254 53.4572C39.0254 50.8533 40.8471 47.6745 43.1073 46.3725V46.3894Z" fill="url(#paint24_linear_8044_310)"/>
<path d="M61.5603 56.3308L60.582 55.7728V52.8477L61.5603 53.4225V56.3308Z" fill="#8A93A0"/>
<path d="M61.5603 53.4225L60.582 52.8476L65.7772 49.8379L66.7555 50.4128L61.5603 53.4225Z" fill="#BBC2CD"/>
<path d="M40.0692 65.8852L83.2164 25.7445L82.0019 25.0006C81.2597 24.5779 80.2477 24.6286 79.1175 25.288L42.9198 46.2376C42.2789 46.6096 41.6716 47.1337 41.1319 47.7424C40.4909 48.4695 39.9511 49.3487 39.5463 50.2449C39.0909 51.2594 38.8379 52.3415 38.8379 53.3222L38.8716 65.192L40.0861 65.9021L40.0692 65.8852Z" fill="url(#paint25_linear_8044_310)"/>
<path d="M41.0662 47.7933C40.4421 48.5203 39.9192 49.3489 39.5312 50.2281C39.5312 50.2619 44.3891 53.0856 44.3891 53.0856L46.2445 50.7692L41.0831 47.7764L41.0662 47.7933Z" fill="url(#paint26_linear_8044_310)"/>
<path d="M84.4305 40.2176L84.3967 28.3817C84.3967 25.7778 82.5582 24.7125 80.3148 26.0314L44.1171 46.981C41.8568 48.2829 40.0352 51.4617 40.0352 54.0656L40.0689 65.9015L84.4305 40.2176Z" fill="url(#paint27_linear_8044_310)"/>
<path d="M66.7538 53.3221L61.5586 56.3318V50.3124L66.7538 47.3027V53.3221Z" fill="#BBC2CD"/>
<path d="M53.8844 35.5169L58.8434 32.6425L63.5832 29.9033L65.7591 31.1715L61.0193 33.9106L56.0603 36.7851L54.2892 37.7996L52.1133 36.5314L53.8844 35.5169Z" fill="#013FA3"/>
<path d="M68.2402 28.8887V29.751L67.3125 30.2752V29.4297L68.2402 28.8887Z" fill="#BBC2CD"/>
<path d="M65.1367 29.0235L67.3126 30.2747V29.4293L65.1367 28.1611V29.0235Z" fill="#A2ACBD"/>
<path d="M67.3126 29.43L68.2403 28.8889L66.0644 27.6377L65.1367 28.1619L67.3126 29.43Z" fill="#E5ECF8"/>
<path d="M65.1702 28.1455L67.3461 29.4136L65.7775 30.3267L63.6016 29.0586L65.1702 28.1455Z" fill="url(#paint28_linear_8044_310)"/>
<path d="M63.7345 29.2105L65.3538 31.4086L63.1779 30.1405L61.5586 27.9424L63.7345 29.2105Z" fill="#013FA3"/>
<path d="M55.2523 30.7493L60.2113 27.8749L61.9824 26.8604L64.1583 28.1285L62.3872 29.143L57.4282 32.0174L55.674 33.0319L53.498 31.7638L55.2523 30.7493Z" fill="url(#paint29_linear_8044_310)"/>
<path d="M53.4969 31.7637L55.6729 33.0318L54.0704 37.1067L51.8945 35.8386L53.4969 31.7637Z" fill="#013FA3"/>
<path d="M51.8949 35.8379L54.0708 37.106L52.5021 38.0191L50.3262 36.7509L51.8949 35.8379Z" fill="url(#paint30_linear_8044_310)"/>
<path d="M54.0706 37.1063L55.673 33.0314L57.4273 32.0169L62.3863 29.1424L64.1574 28.1279L65.7767 30.326L67.3454 29.413V30.2584L65.355 31.4082L63.7357 29.2101L62.3863 29.9879L57.4273 32.8623L56.0947 33.6401L54.4923 37.6981L52.502 38.8479V38.0194L54.0706 37.1063Z" fill="url(#paint31_linear_8044_310)"/>
<path d="M52.5021 38.0201V38.8486L50.3262 37.5805V36.752L52.5021 38.0201Z" fill="#013FA3"/>
<path d="M52.5019 38.002V38.8474L51.5742 39.3884V38.5261L52.5019 38.002Z" fill="#BBC2CD"/>
<path d="M49.3984 38.1208L51.5743 39.3889V38.5266L49.3984 37.2754V38.1208Z" fill="#A2ACBD"/>
<path d="M51.5743 38.5267L52.5021 38.0025L50.3262 36.7344L49.3984 37.2754L51.5743 38.5267Z" fill="#E5ECF8"/>
<path d="M64.3578 53.1524C64.1048 53.3046 63.9023 53.2031 63.9023 52.9664V51.749C63.9023 51.4954 64.1048 51.1741 64.3578 51.0389C64.6108 50.8867 64.8132 50.9881 64.8132 51.2249V52.4423C64.8132 52.6959 64.6108 53.0172 64.3578 53.1524Z" fill="#8A93A0"/>
<path d="M42.278 51.8172C42.6829 50.9041 43.2226 50.0418 43.8636 49.3147C44.4034 48.706 45.0106 48.1818 45.6515 47.8099L81.8493 26.8603C82.9794 26.2008 84.0083 26.1501 84.7336 26.5728L90.0131 29.6671L48.0973 82.0495L42.8178 78.9552C42.0925 78.5325 41.6371 77.6195 41.6202 76.3175L41.5527 54.8776C41.5527 53.8969 41.8058 52.8148 42.2612 51.8003L42.278 51.8172Z" fill="url(#paint32_linear_8044_310)"/>
<path d="M43.8142 49.3831C43.1901 50.1102 42.6672 50.9387 42.2793 51.8179C42.2793 51.8518 62.7733 63.7215 62.7733 63.7215L64.6288 61.405L43.8311 49.3662L43.8142 49.3831Z" fill="url(#paint33_linear_8044_310)"/>
<path d="M50.9335 50.9041L87.1312 29.9545C89.3915 28.6526 91.2132 29.7178 91.2132 32.3048L91.2806 53.7447C91.2806 56.3655 89.4758 59.5105 87.2155 60.8124L51.0178 81.762C48.7576 83.064 46.919 82.0326 46.919 79.4117L46.8516 57.9718C46.8516 55.3679 48.6733 52.1891 50.9335 50.8872V50.9041Z" fill="url(#paint34_linear_8044_310)"/>
<path d="M69.3697 60.864L68.4082 60.306V57.3809L69.3697 57.9557V60.864Z" fill="#8A93A0"/>
<path d="M69.3697 57.9557L68.4082 57.3808L73.6034 54.3711L74.5817 54.946L69.3697 57.9557Z" fill="#BBC2CD"/>
<path d="M47.8954 70.4165L91.0425 30.2758L89.8281 29.5318C89.0859 29.1091 88.0738 29.1598 86.9437 29.8193L50.746 50.7688C50.105 51.1408 49.4978 51.665 48.958 52.2737C48.3171 53.0008 47.7773 53.88 47.3725 54.7761C46.9171 55.7906 46.6641 56.8728 46.6641 57.8535L46.6978 69.7232L47.9123 70.4334L47.8954 70.4165Z" fill="url(#paint35_linear_8044_310)"/>
<path d="M48.8924 52.3245C48.2683 53.0516 47.7454 53.8801 47.3574 54.7593C47.3574 54.7932 52.2153 57.6169 52.2153 57.6169L54.0707 55.3004L48.9092 52.3076L48.8924 52.3245Z" fill="url(#paint36_linear_8044_310)"/>
<path d="M92.2567 44.7322L92.2229 32.8963C92.2229 30.2924 90.3844 29.2272 88.141 30.546L51.9433 51.4956C49.683 52.7976 47.8613 55.9763 47.8613 58.5802L47.8951 70.4162L92.2567 44.7322Z" fill="url(#paint37_linear_8044_310)"/>
<path d="M74.5812 57.8534L69.3691 60.8631V54.8437L74.5812 51.834V57.8534Z" fill="#BBC2CD"/>
<path d="M61.6956 40.0485L66.6547 37.174L71.4113 34.418L73.5872 35.6861L68.8306 38.4422L63.8715 41.3166L62.1173 42.3311L59.9414 41.063L61.6956 40.0485Z" fill="#013FA3"/>
<path d="M76.0495 33.4209V34.2663L75.1387 34.8074V33.962L76.0495 33.4209Z" fill="#BBC2CD"/>
<path d="M72.9629 33.5388L75.1388 34.8069V33.9615L72.9629 32.6934V33.5388Z" fill="#A2ACBD"/>
<path d="M75.1388 33.9622L76.0496 33.4211L73.8737 32.1699L72.9629 32.6941L75.1388 33.9622Z" fill="#E5ECF8"/>
<path d="M72.9957 32.6777L75.1716 33.9459L73.5861 34.8589L71.4102 33.5908L72.9957 32.6777Z" fill="url(#paint38_linear_8044_310)"/>
<path d="M71.5607 33.7427L73.18 35.9408L71.0041 34.6727L69.3848 32.4746L71.5607 33.7427Z" fill="#013FA3"/>
<path d="M63.0784 35.2815L68.0375 32.4071L69.7917 31.3926L71.9676 32.6607L70.2134 33.6752L65.2544 36.5497L63.5001 37.5642L61.3242 36.296L63.0784 35.2815Z" fill="url(#paint39_linear_8044_310)"/>
<path d="M61.3212 36.2959L63.4971 37.564L61.8947 41.639L59.7188 40.3708L61.3212 36.2959Z" fill="#013FA3"/>
<path d="M59.7203 40.3701L61.8962 41.6383L60.3107 42.5344L58.1348 41.2663L59.7203 40.3701Z" fill="url(#paint40_linear_8044_310)"/>
<path d="M61.8961 41.6385L63.4985 37.5636L65.2527 36.5491L70.2118 33.6747L71.966 32.6602L73.5853 34.8583L75.1708 33.9452V34.7906L73.1805 35.9404L71.5612 33.7423L70.2118 34.5201L65.2527 37.3776L63.9202 38.1554L62.3178 42.2303L60.3105 43.3801V42.5347L61.8961 41.6385Z" fill="url(#paint41_linear_8044_310)"/>
<path d="M60.3107 42.5357V43.3811L58.1516 42.113L58.1348 41.2676L60.3107 42.5357Z" fill="#013FA3"/>
<path d="M60.3112 42.5332V43.3786L59.4004 43.9197V43.0574L60.3112 42.5332Z" fill="#BBC2CD"/>
<path d="M57.2246 42.6521L59.4005 43.9202V43.0579L57.2246 41.8066V42.6521Z" fill="#A2ACBD"/>
<path d="M59.4005 43.0579L60.3114 42.5338L58.1355 41.2656L57.2246 41.8067L59.4005 43.0579Z" fill="#E5ECF8"/>
<path d="M72.1839 57.6846C71.9309 57.8368 71.7285 57.7354 71.7285 57.4987V56.2812C71.7285 56.0276 71.9309 55.7064 72.1839 55.5711C72.437 55.4189 72.6394 55.5204 72.6394 55.7571V56.9745C72.6394 57.2281 72.437 57.5494 72.1839 57.6846Z" fill="#8A93A0"/>
<path style="mix-blend-mode:screen" d="M3.80469 0.5L24.5011 89.6752C24.5011 89.9457 24.6361 90.2163 24.906 90.3684L57.1398 109.018C57.4097 109.171 57.9663 109.34 58.6747 109.34C59.3832 109.34 59.9398 109.171 60.2097 109.018L92.2074 90.3684C92.4773 90.2163 92.6122 89.9288 92.6122 89.6583L114 0.5H3.80469Z" fill="url(#paint42_linear_8044_310)"/>
<path style="mix-blend-mode:color-dodge" d="M72.5242 81.475C79.9628 85.7866 79.9628 92.7529 72.5242 97.0646C65.0856 101.376 53.0253 101.376 45.5867 97.0646C38.1482 92.7529 38.1482 85.7866 45.5867 81.475C53.0253 77.1633 65.0856 77.1633 72.5242 81.475Z" fill="url(#paint43_radial_8044_310)"/>
<path style="mix-blend-mode:color-dodge" d="M98.0929 24.578C99.6279 25.4741 88.7483 33.2182 73.77 41.8753C58.8085 50.5325 45.4156 56.8393 43.8807 55.9432C42.3457 55.047 53.2253 47.303 68.2037 38.6458C83.1652 29.9887 96.558 23.6818 98.0929 24.578Z" fill="url(#paint44_radial_8044_310)"/>
<path style="mix-blend-mode:color-dodge" d="M98.0929 54.6073C99.6279 55.5034 88.7483 63.2475 73.77 71.9046C58.8085 80.5618 45.4156 86.8686 43.8807 85.9725C42.3457 85.0763 53.2253 77.3323 68.2037 68.6751C83.1652 60.018 96.558 53.7111 98.0929 54.6073Z" fill="url(#paint45_radial_8044_310)"/>
<path style="mix-blend-mode:color-dodge" d="M90.2335 20.0126C91.7685 20.9087 80.8889 28.6528 65.9106 37.3099C50.9322 45.967 37.5563 52.2739 36.0213 51.3777C34.4864 50.4816 45.3659 42.7375 60.3443 34.0804C75.3058 25.4233 88.6986 19.1164 90.2335 20.0126Z" fill="url(#paint46_radial_8044_310)"/>
<path style="mix-blend-mode:color-dodge" d="M82.3058 15.4305C83.8408 16.3267 72.9612 24.0707 57.9828 32.7279C43.0213 41.385 29.6285 47.6919 28.0936 46.7957C26.5586 45.8996 37.4382 38.1555 52.4166 29.4984C67.3781 20.8412 80.7709 14.5344 82.3058 15.4305Z" fill="url(#paint47_radial_8044_310)"/>
<path style="mix-blend-mode:color-dodge" d="M71.4266 23.8676C72.0844 24.2396 67.4458 27.5367 61.0868 31.2228C54.7277 34.9088 49.0265 37.5803 48.3855 37.2084C47.7446 36.8364 52.3663 33.5392 58.7253 29.8532C65.0844 26.1671 70.7856 23.4956 71.4266 23.8676Z" fill="url(#paint48_radial_8044_310)"/>
<path style="mix-blend-mode:color-dodge" d="M63.6668 19.3871C64.3247 19.7591 59.6861 23.0563 53.327 26.7423C46.968 30.4283 41.2667 33.0999 40.6258 32.7279C39.9848 32.3559 44.6065 29.0588 50.9656 25.3727C57.3246 21.6867 63.0259 19.0151 63.6668 19.3871Z" fill="url(#paint49_radial_8044_310)"/>
<path style="mix-blend-mode:color-dodge" d="M79.2204 28.3822C79.8782 28.7542 75.2397 32.0514 68.8806 35.7374C62.5215 39.4235 56.8203 42.095 56.1794 41.723C55.5215 41.351 60.1601 38.0539 66.5191 34.3678C72.8782 30.6818 78.5794 28.0102 79.2204 28.3822Z" fill="url(#paint50_radial_8044_310)"/>
<defs>
<radialGradient id="paint0_radial_8044_310" cx="0" cy="0" r="1" gradientUnits="userSpaceOnUse" gradientTransform="translate(69.4617 29.5627) rotate(-30.0602) scale(13.2566 1.15415)">
<stop stop-color="#00BFFF"/>
<stop offset="0.26" stop-color="#0087B4"/>
<stop offset="0.63" stop-color="#003F54"/>
<stop offset="0.88" stop-color="#001117"/>
<stop offset="1"/>
</radialGradient>
<linearGradient id="paint1_linear_8044_310" x1="50.3409" y1="97.2166" x2="46.5504" y2="102.568" gradientUnits="userSpaceOnUse">
<stop stop-color="#2F2734"/>
<stop offset="1" stop-color="#251E28"/>
</linearGradient>
<linearGradient id="paint2_linear_8044_310" x1="43.9477" y1="103.286" x2="44.1171" y2="109.102" gradientUnits="userSpaceOnUse">
<stop stop-color="#2F2734"/>
<stop offset="1" stop-color="#251E28"/>
</linearGradient>
<linearGradient id="paint3_linear_8044_310" x1="43.9819" y1="110.134" x2="51.312" y2="114.582" gradientUnits="userSpaceOnUse">
<stop stop-color="#2F2734"/>
<stop offset="1" stop-color="#251E28"/>
</linearGradient>
<linearGradient id="paint4_linear_8044_310" x1="53.3592" y1="115.359" x2="61.7424" y2="115.14" gradientUnits="userSpaceOnUse">
<stop stop-color="#2F2734"/>
<stop offset="1" stop-color="#251E28"/>
</linearGradient>
<linearGradient id="paint5_linear_8044_310" x1="66.9569" y1="116.88" x2="70.6638" y2="110.936" gradientUnits="userSpaceOnUse">
<stop stop-color="#2F2734"/>
<stop offset="1" stop-color="#251E28"/>
</linearGradient>
<linearGradient id="paint6_linear_8044_310" x1="74.5642" y1="111.013" x2="72.2434" y2="104.524" gradientUnits="userSpaceOnUse">
<stop stop-color="#2F2734"/>
<stop offset="1" stop-color="#251E28"/>
</linearGradient>
<linearGradient id="paint7_linear_8044_310" x1="73.8557" y1="103.371" x2="42.1327" y2="88.1287" gradientUnits="userSpaceOnUse">
<stop stop-color="#2F2734"/>
<stop offset="1" stop-color="#251E28"/>
</linearGradient>
<linearGradient id="paint8_linear_8044_310" x1="64.8477" y1="95.3391" x2="55.16" y2="98.9421" gradientUnits="userSpaceOnUse">
<stop stop-color="#2F2734"/>
<stop offset="1" stop-color="#251E28"/>
</linearGradient>
<linearGradient id="paint9_linear_8044_310" x1="34.4187" y1="99.1784" x2="65.9778" y2="99.1784" gradientUnits="userSpaceOnUse">
<stop stop-color="#BBC2CD"/>
<stop offset="1" stop-color="#A2ACBD"/>
</linearGradient>
<linearGradient id="paint10_linear_8044_310" x1="52.0272" y1="120.178" x2="67.9164" y2="120.178" gradientUnits="userSpaceOnUse">
<stop offset="0.4" stop-color="#A2ACBD"/>
<stop offset="0.58" stop-color="#BBC2CD"/>
</linearGradient>
<linearGradient id="paint11_linear_8044_310" x1="-24.5157" y1="102.322" x2="-22.829" y2="102.322" gradientUnits="userSpaceOnUse">
<stop offset="0.4" stop-color="#A2ACBD"/>
<stop offset="0.58" stop-color="#BBC2CD"/>
</linearGradient>
<linearGradient id="paint12_linear_8044_310" x1="41.5535" y1="47.1675" x2="33.4784" y2="61.1169" gradientUnits="userSpaceOnUse">
<stop offset="0.18" stop-color="#4C99FE"/>
<stop offset="0.19" stop-color="#1C5FC3"/>
<stop offset="0.2" stop-color="#0C4DB1"/>
<stop offset="0.21" stop-color="#013FA3"/>
</linearGradient>
<linearGradient id="paint13_linear_8044_310" x1="26.625" y1="40.3203" x2="50.3191" y2="43.0641" gradientUnits="userSpaceOnUse">
<stop stop-color="#2B59FF"/>
<stop offset="1" stop-color="#BB2BFF"/>
</linearGradient>
<linearGradient id="paint14_linear_8044_310" x1="31.1992" y1="20.3525" x2="78.7475" y2="23.3214" gradientUnits="userSpaceOnUse">
<stop stop-color="#2B59FF"/>
<stop offset="1" stop-color="#BB2BFF"/>
</linearGradient>
<linearGradient id="paint15_linear_8044_310" x1="44.2021" y1="49.6364" x2="37.3459" y2="61.4918" gradientUnits="userSpaceOnUse">
<stop offset="0.18" stop-color="#4C99FE"/>
<stop offset="0.19" stop-color="#1C5FC3"/>
<stop offset="0.2" stop-color="#0C4DB1"/>
<stop offset="0.21" stop-color="#013FA3"/>
</linearGradient>
<linearGradient id="paint16_linear_8044_310" x1="31.7207" y1="43.2617" x2="38.8701" y2="43.9341" gradientUnits="userSpaceOnUse">
<stop stop-color="#2B59FF"/>
<stop offset="1" stop-color="#BB2BFF"/>
</linearGradient>
<linearGradient id="paint17_linear_8044_310" x1="32.2266" y1="20.9336" x2="79.6081" y2="24.8029" gradientUnits="userSpaceOnUse">
<stop stop-color="#2B59FF"/>
<stop offset="1" stop-color="#BB2BFF"/>
</linearGradient>
<linearGradient id="paint18_linear_8044_310" x1="55.7754" y1="23.6318" x2="59.733" y2="24.1411" gradientUnits="userSpaceOnUse">
<stop stop-color="#2B59FF"/>
<stop offset="1" stop-color="#BB2BFF"/>
</linearGradient>
<linearGradient id="paint19_linear_8044_310" x1="45.6719" y1="22.3291" x2="56.9391" y2="23.7767" gradientUnits="userSpaceOnUse">
<stop stop-color="#2B59FF"/>
<stop offset="1" stop-color="#BB2BFF"/>
</linearGradient>
<linearGradient id="paint20_linear_8044_310" x1="42.5" y1="31.3066" x2="46.4586" y2="31.8121" gradientUnits="userSpaceOnUse">
<stop stop-color="#2B59FF"/>
<stop offset="1" stop-color="#BB2BFF"/>
</linearGradient>
<linearGradient id="paint21_linear_8044_310" x1="44.6758" y1="23.5967" x2="60.4564" y2="25.2194" gradientUnits="userSpaceOnUse">
<stop stop-color="#2B59FF"/>
<stop offset="1" stop-color="#BB2BFF"/>
</linearGradient>
<linearGradient id="paint22_linear_8044_310" x1="49.3796" y1="51.6987" x2="41.3045" y2="65.6481" gradientUnits="userSpaceOnUse">
<stop offset="0.18" stop-color="#4C99FE"/>
<stop offset="0.19" stop-color="#1C5FC3"/>
<stop offset="0.2" stop-color="#0C4DB1"/>
<stop offset="0.21" stop-color="#013FA3"/>
</linearGradient>
<linearGradient id="paint23_linear_8044_310" x1="34.4531" y1="44.835" x2="58.1472" y2="47.5788" gradientUnits="userSpaceOnUse">
<stop stop-color="#2B59FF"/>
<stop offset="1" stop-color="#BB2BFF"/>
</linearGradient>
<linearGradient id="paint24_linear_8044_310" x1="39.0254" y1="24.8838" x2="86.5737" y2="27.8527" gradientUnits="userSpaceOnUse">
<stop stop-color="#2B59FF"/>
<stop offset="1" stop-color="#BB2BFF"/>
</linearGradient>
<linearGradient id="paint25_linear_8044_310" x1="52.0283" y1="54.1677" x2="45.1721" y2="66.023" gradientUnits="userSpaceOnUse">
<stop offset="0.18" stop-color="#4C99FE"/>
<stop offset="0.19" stop-color="#1C5FC3"/>
<stop offset="0.2" stop-color="#0C4DB1"/>
<stop offset="0.21" stop-color="#013FA3"/>
</linearGradient>
<linearGradient id="paint26_linear_8044_310" x1="39.5313" y1="47.7764" x2="46.6806" y2="48.4488" gradientUnits="userSpaceOnUse">
<stop stop-color="#2B59FF"/>
<stop offset="1" stop-color="#BB2BFF"/>
</linearGradient>
<linearGradient id="paint27_linear_8044_310" x1="40.0352" y1="25.4648" x2="87.4166" y2="29.3341" gradientUnits="userSpaceOnUse">
<stop stop-color="#2B59FF"/>
<stop offset="1" stop-color="#BB2BFF"/>
</linearGradient>
<linearGradient id="paint28_linear_8044_310" x1="63.6016" y1="28.1455" x2="67.5601" y2="28.651" gradientUnits="userSpaceOnUse">
<stop stop-color="#2B59FF"/>
<stop offset="1" stop-color="#BB2BFF"/>
</linearGradient>
<linearGradient id="paint29_linear_8044_310" x1="53.498" y1="26.8604" x2="64.7653" y2="28.3079" gradientUnits="userSpaceOnUse">
<stop stop-color="#2B59FF"/>
<stop offset="1" stop-color="#BB2BFF"/>
</linearGradient>
<linearGradient id="paint30_linear_8044_310" x1="50.3262" y1="35.8379" x2="54.2847" y2="36.3434" gradientUnits="userSpaceOnUse">
<stop stop-color="#2B59FF"/>
<stop offset="1" stop-color="#BB2BFF"/>
</linearGradient>
<linearGradient id="paint31_linear_8044_310" x1="52.502" y1="28.1279" x2="68.2821" y2="29.7531" gradientUnits="userSpaceOnUse">
<stop stop-color="#2B59FF"/>
<stop offset="1" stop-color="#BB2BFF"/>
</linearGradient>
<linearGradient id="paint32_linear_8044_310" x1="57.1889" y1="56.2134" x2="49.1138" y2="70.1628" gradientUnits="userSpaceOnUse">
<stop offset="0.18" stop-color="#4C99FE"/>
<stop offset="0.19" stop-color="#1C5FC3"/>
<stop offset="0.2" stop-color="#0C4DB1"/>
<stop offset="0.21" stop-color="#013FA3"/>
</linearGradient>
<linearGradient id="paint33_linear_8044_310" x1="42.2793" y1="49.3662" x2="65.9734" y2="52.11" gradientUnits="userSpaceOnUse">
<stop stop-color="#2B59FF"/>
<stop offset="1" stop-color="#BB2BFF"/>
</linearGradient>
<linearGradient id="paint34_linear_8044_310" x1="46.8516" y1="29.3984" x2="94.3999" y2="32.3673" gradientUnits="userSpaceOnUse">
<stop stop-color="#2B59FF"/>
<stop offset="1" stop-color="#BB2BFF"/>
</linearGradient>
<linearGradient id="paint35_linear_8044_310" x1="59.8545" y1="58.682" x2="52.9814" y2="70.5373" gradientUnits="userSpaceOnUse">
<stop offset="0.18" stop-color="#4C99FE"/>
<stop offset="0.19" stop-color="#1C5FC3"/>
<stop offset="0.2" stop-color="#0C4DB1"/>
<stop offset="0.21" stop-color="#013FA3"/>
</linearGradient>
<linearGradient id="paint36_linear_8044_310" x1="47.3574" y1="52.3076" x2="54.5068" y2="52.98" gradientUnits="userSpaceOnUse">
<stop stop-color="#2B59FF"/>
<stop offset="1" stop-color="#BB2BFF"/>
</linearGradient>
<linearGradient id="paint37_linear_8044_310" x1="47.8613" y1="29.9795" x2="95.2428" y2="33.8488" gradientUnits="userSpaceOnUse">
<stop stop-color="#2B59FF"/>
<stop offset="1" stop-color="#BB2BFF"/>
</linearGradient>
<linearGradient id="paint38_linear_8044_310" x1="71.4102" y1="32.6777" x2="75.386" y2="33.1877" gradientUnits="userSpaceOnUse">
<stop stop-color="#2B59FF"/>
<stop offset="1" stop-color="#BB2BFF"/>
</linearGradient>
<linearGradient id="paint39_linear_8044_310" x1="61.3242" y1="31.3926" x2="72.5742" y2="32.8357" gradientUnits="userSpaceOnUse">
<stop stop-color="#2B59FF"/>
<stop offset="1" stop-color="#BB2BFF"/>
</linearGradient>
<linearGradient id="paint40_linear_8044_310" x1="58.1348" y1="40.3701" x2="62.1096" y2="40.8839" gradientUnits="userSpaceOnUse">
<stop stop-color="#2B59FF"/>
<stop offset="1" stop-color="#BB2BFF"/>
</linearGradient>
<linearGradient id="paint41_linear_8044_310" x1="60.3105" y1="32.6602" x2="76.1082" y2="34.289" gradientUnits="userSpaceOnUse">
<stop stop-color="#2B59FF"/>
<stop offset="1" stop-color="#BB2BFF"/>
</linearGradient>
<linearGradient id="paint42_linear_8044_310" x1="58.894" y1="99.1439" x2="58.894" y2="2.19085" gradientUnits="userSpaceOnUse">
<stop stop-color="#0055DE"/>
<stop offset="0.09" stop-color="#0051D4"/>
<stop offset="0.25" stop-color="#0048BC"/>
<stop offset="0.44" stop-color="#003893"/>
<stop offset="0.67" stop-color="#00235B"/>
<stop offset="0.93" stop-color="#000815"/>
<stop offset="1"/>
</linearGradient>
<radialGradient id="paint43_radial_8044_310" cx="0" cy="0" r="1" gradientUnits="userSpaceOnUse" gradientTransform="translate(25.2236 108.858) rotate(-30.0602) scale(15.4887 13.4848)">
<stop stop-color="#00BFFF"/>
<stop offset="0.26" stop-color="#0087B4"/>
<stop offset="0.63" stop-color="#003F54"/>
<stop offset="0.88" stop-color="#001117"/>
<stop offset="1"/>
</radialGradient>
<radialGradient id="paint44_radial_8044_310" cx="0" cy="0" r="1" gradientUnits="userSpaceOnUse" gradientTransform="translate(81.3063 34.9254) rotate(-30.0602) scale(31.1716 2.71385)">
<stop stop-color="#00BFFF"/>
<stop offset="0.26" stop-color="#0087B4"/>
<stop offset="0.63" stop-color="#003F54"/>
<stop offset="0.88" stop-color="#001117"/>
<stop offset="1"/>
</radialGradient>
<radialGradient id="paint45_radial_8044_310" cx="0" cy="0" r="1" gradientUnits="userSpaceOnUse" gradientTransform="translate(68.1227 71.8083) rotate(-30.0602) scale(31.1716 2.71385)">
<stop stop-color="#00BFFF"/>
<stop offset="0.26" stop-color="#0087B4"/>
<stop offset="0.63" stop-color="#003F54"/>
<stop offset="0.88" stop-color="#001117"/>
<stop offset="1"/>
</radialGradient>
<radialGradient id="paint46_radial_8044_310" cx="0" cy="0" r="1" gradientUnits="userSpaceOnUse" gradientTransform="translate(77.4757 28.2728) rotate(-30.0602) scale(31.1716 2.71385)">
<stop stop-color="#00BFFF"/>
<stop offset="0.26" stop-color="#0087B4"/>
<stop offset="0.63" stop-color="#003F54"/>
<stop offset="0.88" stop-color="#001117"/>
<stop offset="1"/>
</radialGradient>
<radialGradient id="paint47_radial_8044_310" cx="0" cy="0" r="1" gradientUnits="userSpaceOnUse" gradientTransform="translate(73.619 21.5767) rotate(-30.0602) scale(31.1716 2.71385)">
<stop stop-color="#00BFFF"/>
<stop offset="0.26" stop-color="#0087B4"/>
<stop offset="0.63" stop-color="#003F54"/>
<stop offset="0.88" stop-color="#001117"/>
<stop offset="1"/>
</radialGradient>
<radialGradient id="paint48_radial_8044_310" cx="0" cy="0" r="1" gradientUnits="userSpaceOnUse" gradientTransform="translate(77.3422 21.5069) rotate(-30.0602) scale(13.2566 1.15415)">
<stop stop-color="#00BFFF"/>
<stop offset="0.26" stop-color="#0087B4"/>
<stop offset="0.63" stop-color="#003F54"/>
<stop offset="0.88" stop-color="#001117"/>
<stop offset="1"/>
</radialGradient>
<radialGradient id="paint49_radial_8044_310" cx="0" cy="0" r="1" gradientUnits="userSpaceOnUse" gradientTransform="translate(73.5632 14.9471) rotate(-30.0602) scale(13.2566 1.15415)">
<stop stop-color="#00BFFF"/>
<stop offset="0.26" stop-color="#0087B4"/>
<stop offset="0.63" stop-color="#003F54"/>
<stop offset="0.88" stop-color="#001117"/>
<stop offset="1"/>
</radialGradient>
<radialGradient id="paint50_radial_8044_310" cx="0" cy="0" r="1" gradientUnits="userSpaceOnUse" gradientTransform="translate(81.1578 28.0911) rotate(-30.0602) scale(13.2566 1.15415)">
<stop stop-color="#00BFFF"/>
<stop offset="0.26" stop-color="#0087B4"/>
<stop offset="0.63" stop-color="#003F54"/>
<stop offset="0.88" stop-color="#001117"/>
<stop offset="1"/>
</radialGradient>
</defs>
</svg>
