<svg width="102" height="110" viewBox="0 0 102 110" fill="none" xmlns="http://www.w3.org/2000/svg">
<g style="mix-blend-mode:multiply" opacity="0.5">
<path d="M33.2667 97.4383C28.1311 97.4383 33.9658 93.2572 39.7116 93.2572H62.8726L62.5421 86.0986H33.1522C7.99547 86.0986 -7.47487 103.076 3.64801 103.076H46.6395L44.0209 97.451H33.2667V97.4383Z" fill="#003893"/>
</g>
<path d="M88.9074 34.7594L73.0176 43.8944C71.365 44.8447 70.0176 44.2872 70.0176 42.6274V38.7124C70.0176 37.0653 71.365 34.9494 73.0176 33.9992L88.9074 24.8641C90.56 23.9139 91.9074 24.4713 91.9074 26.1311V30.0461C91.9074 31.6932 90.56 33.8091 88.9074 34.7594Z" fill="url(#paint0_linear_8044_570)"/>
<path d="M35.1863 28.2213L21.0762 36.3428C19.4236 37.293 18.0762 36.7355 18.0762 35.0758V31.1607C18.0762 29.5136 19.4236 27.3977 21.0762 26.4475L35.1863 18.326C36.8389 17.3758 38.1863 17.9333 38.1863 19.593V23.5081C38.1863 25.1552 36.8389 27.271 35.1863 28.2213Z" fill="#0656D7"/>
<path d="M31.3341 43.4254L11.7578 54.689C10.1053 55.6393 8.75781 55.0818 8.75781 53.422V49.507C8.75781 47.8599 10.1053 45.744 11.7578 44.7938L31.3341 33.5301C32.9866 32.5799 34.3341 33.1374 34.3341 34.7971V38.7122C34.3341 40.3593 32.9866 42.4751 31.3341 43.4254Z" fill="#0656D7"/>
<path d="M85.0413 10.8639L74.3125 17.0342C72.66 17.9844 71.3125 17.4269 71.3125 15.7672V11.8521C71.3125 10.205 72.66 8.08914 74.3125 7.13889L85.0413 0.968602C86.6939 0.0183521 88.0413 0.575832 88.0413 2.2356V6.15063C88.0413 7.79773 86.6939 9.91362 85.0413 10.8639Z" fill="url(#paint1_linear_8044_570)"/>
<path d="M42.6348 100.973C42.3297 101.632 42.3424 102.531 42.5712 102.975C43.9187 105.585 45.889 108.79 47.9738 109.31C49.8297 109.779 51.7111 109.335 52.2068 108.309C52.5628 107.561 52.2322 106.231 51.8128 105.775C51.2661 105.167 49.7407 104.774 48.7492 103.621C47.7068 102.392 46.0797 101.746 44.7958 100.808C44.2238 100.39 42.6856 100.808 42.6221 100.973H42.6348Z" fill="#251E28"/>
<path d="M42.801 102.392C42.2798 100.947 42.8264 100.871 42.8391 100.162C42.8645 99.2244 42.9408 98.2488 43.2713 97.9194C43.4111 97.78 43.5891 97.6913 43.7544 97.6153C44.2755 97.3619 44.8476 97.4252 45.4196 97.4759C46.2713 97.5646 46.9323 97.8053 47.6442 98.3248C48.1272 98.6796 47.8349 99.0977 48.2035 100.023C48.6357 101.112 52.0298 104.546 52.2967 106.852C52.373 107.523 51.9408 108.157 51.2925 108.372C50.5171 108.638 49.4747 108.765 48.6611 108.651C46.0806 108.283 43.0044 102.924 42.8137 102.392H42.801Z" fill="url(#paint2_linear_8044_570)"/>
<path d="M60.1014 23.2295L65.6692 33.961C65.5802 34.8732 64.4616 35.7728 63.4319 35.4941C63.2539 35.4434 59.0336 29.4758 57.6353 27.2459C57.0505 26.321 60.0887 23.2295 60.0887 23.2295H60.1014Z" fill="#251E28"/>
<path d="M59.4029 28.7789C62.2631 27.7907 63.1021 22.1145 60.1021 20.5181C56.619 18.6809 52.2462 24.4331 55.1572 27.2712C55.7674 27.8667 56.7462 28.5255 57.5851 28.7789C58.2589 28.9816 58.869 28.969 59.4157 28.7789H59.4029Z" fill="#251E28"/>
<path d="M59.0966 93.0162C58.9695 93.2949 58.8805 94.4479 59.389 94.79C60.4695 95.5122 61.0034 95.7022 62.2237 96.5385C63.05 97.1086 64.2958 98.3123 65.2746 98.667C66.2534 99.0218 67.8043 99.3765 68.8466 99.3132C70.2322 99.2372 71.3636 98.8951 71.4907 97.4253C71.567 96.5384 70.8424 95.8796 70.7534 95.8163C70.0415 95.2968 67.2195 95.1067 65.7576 94.3719C64.2068 93.599 62.6432 92.8895 61.156 92.0533C60.4949 91.6858 59.1221 92.8388 59.0839 93.0162H59.0966Z" fill="#251E28"/>
<path d="M59.4658 93.9031C58.665 93.1936 59.3641 92.1673 59.504 91.3311C59.593 90.837 59.5421 90.0388 59.9616 89.684C60.5209 89.1899 61.7285 89.608 62.3896 89.6587C62.8853 89.6967 63.7624 89.6713 64.1946 89.9374C64.6523 90.2288 64.6777 90.9637 65.0082 91.3691C65.8853 92.4714 67.2455 92.9655 68.4277 93.7004C69.6989 94.4733 71.3514 95.5249 71.4913 97.1593C71.5421 97.6915 71.1607 98.2489 70.665 98.4517C68.898 99.1612 66.5463 98.4263 64.8938 97.4634C63.5463 96.6779 62.5167 95.3982 61.093 94.7393C60.5336 94.4859 59.9235 94.3086 59.4658 93.9031Z" fill="url(#paint3_linear_8044_570)"/>
<path d="M63.889 87.011C63.889 87.6699 64.1306 89.8618 64.1306 90.3686C64.1306 91.2428 62.8467 91.3695 62.1729 91.3695C60.8255 91.3695 60.3933 90.7613 60.3679 90.3939C60.3679 90.2799 60.3297 87.8092 60.3424 87.6952C60.5077 86.5169 61.3085 87.011 62.5416 87.011H63.889Z" fill="#251E28"/>
<path d="M63.7125 74.3409C62.6066 74.1001 60.9286 74.3155 59.6701 74.911C58.6023 75.4178 58.0049 76.5708 58.0557 77.7364C58.221 81.1827 59.4795 79.827 59.9244 88.2905C59.9879 89.3928 61.2464 89.925 62.0218 89.3675C63.3185 88.4299 62.81 88.8607 63.8523 88.582C64.2718 88.4679 64.3227 88.0245 64.2337 87.6697C63.7761 85.6172 64.6659 83.59 64.8057 75.7599C64.8057 75.0884 64.3608 74.4802 63.7125 74.3409Z" fill="url(#paint4_linear_8044_570)"/>
<path d="M63.8522 74.0748C63.3819 73.0485 61.7039 74.0115 60.6234 73.9861C60.1785 73.9861 59.9115 73.8848 59.5556 74.2268C56.6827 76.9889 65.9116 78.636 63.8395 74.0748H63.8522Z" fill="#251E28"/>
<path d="M64.8057 72.491C64.6913 69.3488 63.865 56.134 60.865 52.7511C60.2421 52.0543 59.7336 52.3077 59.0345 52.6878C57.9031 53.3086 57.1023 54.4742 56.3904 55.5385C55.3226 57.1476 54.7633 59.1621 54.6235 61.0753C54.4709 63.1278 55.2209 65.9026 55.9074 68.4746C56.365 70.1977 57.4709 73.1625 57.9159 74.3154C59.0091 76.254 64.8311 75.0503 64.8184 72.491H64.8057Z" fill="url(#paint5_linear_8044_570)"/>
<path d="M60.1005 52.4086C58.8675 51.8257 55.9438 56.5897 55.4989 57.8693C55.0921 59.0223 55.0031 61.4296 55.5751 63.0767C56.0582 64.4704 57.7997 65.0405 58.9692 64.1283C61.8675 61.873 62.2107 53.4222 60.1005 52.4086Z" fill="#94A0B4"/>
<path d="M53.4649 55.0319L56.5158 59.8338C58.8547 62.6592 60.1132 58.3641 60.1514 55.2599C60.1768 53.3341 59.4268 52.5232 56.4141 47.5186C55.1047 48.3294 53.4522 54.4871 53.4649 55.0319Z" fill="#251E28"/>
<path d="M51.6997 59.0353L50.3268 66.954C47.6065 67.1314 45.598 64.1159 44.5684 61.0878L45.1404 54.17C47.276 53.1817 52.3734 56.78 51.6997 59.0353Z" fill="#251E28"/>
<path d="M60.1143 49.3301L43.2584 51.8261C43.1948 52.2315 43.3982 52.9664 43.3982 53.3718C43.4237 54.9302 46.3855 55.1076 48.9787 56.514C49.9575 57.0461 50.8728 57.8063 51.3177 58.8326C52.716 62.1014 55.7542 61.4553 56.2881 59.048C56.644 57.4262 56.9999 55.6017 57.9787 53.8913C58.5889 52.8143 59.0338 52.5483 59.8474 51.56C60.0254 51.3446 60.1143 51.0659 60.1143 50.7871V49.3301Z" fill="url(#paint6_linear_8044_570)"/>
<path d="M58.4111 47.3666C55.6018 46.0236 50.3137 46.3783 46.6018 48.1395C42.8899 49.9133 42.1653 52.4346 44.9747 53.7776C47.784 55.1206 53.0721 54.7659 56.784 53.0047C60.4959 51.2309 61.2204 48.7096 58.4111 47.3666Z" fill="url(#paint7_linear_8044_570)"/>
<path d="M58.9697 39.498L58.7663 48.7725C58.6519 53.245 45.1265 54.1826 44.796 51.5979L44.0078 43.0963L58.9697 39.498Z" fill="#251E28"/>
<path d="M43.2583 43.9073C44.0973 46.8087 46.7414 48.1517 49.627 47.2522C51.2032 46.758 52.6397 45.8838 53.6566 44.8956C55.3473 43.2485 57.0761 42.1968 59.1354 42.2729C59.5804 42.2855 59.9363 41.9308 59.9363 41.4873C59.7202 29.8436 60.6482 21.7221 55.6397 22.8117C50.7965 23.8634 43.9575 27.2462 40.36 30.6545C40.3219 30.9079 41.9744 39.4601 43.2583 43.92V43.9073Z" fill="url(#paint8_linear_8044_570)"/>
<path d="M47.1605 95.221C47.1605 95.8798 47.4021 98.0717 47.4021 98.5785C47.4021 99.4528 46.1182 99.5794 45.4444 99.5794C44.097 99.5794 43.6648 98.9713 43.6393 98.6039C43.6393 98.4898 43.6012 96.0192 43.6139 95.9052C43.7792 94.7268 44.58 95.221 45.8131 95.221H47.1605Z" fill="#251E28"/>
<path d="M47.5804 95.9685C47.9618 93.1938 48.8643 87.8724 49.7414 82.6144C49.9067 81.6514 49.3982 80.6505 48.4957 80.2831C46.4999 79.4849 43.2584 80.6252 43.2584 82.1076C43.2075 82.8804 43.055 83.666 42.8134 84.4135C41.3007 89.2915 43.5253 90.8372 43.1058 95.8419C43.055 96.5134 43.0296 97.7804 44.0465 97.7804C44.8855 97.7804 45.038 97.3242 46.0295 97.1469C46.6397 97.0328 47.1101 97.489 47.4279 97.2102C47.7329 96.9315 47.555 96.3233 47.5931 95.9685H47.5804Z" fill="url(#paint9_linear_8044_570)"/>
<path d="M49.0163 79.6363C48.546 78.6101 46.868 79.573 45.7875 79.5476C45.3426 79.5476 45.0756 79.4463 44.7197 79.7884C41.8468 82.5504 51.0756 84.1975 49.0036 79.6363H49.0163Z" fill="#251E28"/>
<path d="M43.0291 79.0541C43.5248 80.9546 46.5503 81.1953 48.5842 80.3971C49.6011 80.0043 50.313 79.0921 50.4782 78.0151C50.9994 74.7716 51.6986 70.071 51.6986 68.6013C51.6986 65.5352 51.8384 62.7731 49.9189 60.3025C48.9782 59.0988 47.796 57.6418 46.3342 56.9956C43.3342 55.6652 42.3426 61.7088 42.1647 63.1659C41.4909 68.7533 41.5799 73.5553 43.0291 79.0541Z" fill="url(#paint10_linear_8044_570)"/>
<path d="M49.1439 25.3966C48.8006 25.5486 48.5083 25.7006 48.2794 25.8654C46.4617 27.107 47.682 28.7161 49.8939 29.4763C51.1905 29.9198 54.0633 30.1225 54.6862 28.4627C56.0083 24.8771 51.343 24.4717 49.1566 25.3966H49.1439Z" fill="#94A0B4"/>
<path d="M54.2157 21.8361L45.2793 19.4541C45.8513 19.9609 47.9742 26.3466 48.4191 27.3728C49.2327 29.21 53.7073 29.4254 54.203 27.8036C54.3047 26.9674 54.203 21.8361 54.203 21.8361H54.2157Z" fill="#251E28"/>
<path d="M55.4359 13.2707C54.9402 10.7621 49.6775 7.8353 45.4698 10.0906C43.4614 11.1675 41.9614 13.22 42.2919 16.9577C43.2834 22.8873 49.2325 23.2674 50.2241 22.8492C51.0631 22.4945 56.7071 19.8465 55.4232 13.2707H55.4359Z" fill="#251E28"/>
<path d="M55.6647 13.9301C55.08 11.7128 53.0079 9.11549 49.5757 11.4341C47.9867 12.5111 46.1689 15.1718 46.7791 18.0985C48.241 25.0797 54.152 26.2073 55.7283 25.5358C56.5927 25.1684 56.5545 23.9141 56.58 22.9511C56.6308 21.5701 56.974 20.8733 56.4528 17.237C56.2876 16.084 55.9571 15.0324 55.6647 13.9174V13.9301Z" fill="url(#paint11_linear_8044_570)"/>
<path d="M63.216 36.3054C63.483 37.0402 64.0932 37.5724 65.1228 37.585C66.0635 37.5977 66.8898 37.0022 67.4999 36.3687C68.7711 35.051 74.5296 28.2092 76.233 26.3087C77.466 24.9404 75.0508 23.686 74.5169 24.1548C72.4194 26.0047 65.2499 31.3641 63.9152 32.8591C63.1398 33.7207 62.8093 35.2157 63.216 36.2927V36.3054Z" fill="url(#paint12_linear_8044_570)"/>
<path d="M76.6395 25.472C76.9318 25.2819 77.9742 23.8249 78.0886 23.5461C78.3683 22.9 76.7412 22.6339 76.0801 22.9126C76.0801 22.9126 75.0378 23.6982 74.8852 24.1923C74.7073 24.7751 75.559 25.624 76.2454 25.5987C76.3852 25.5987 76.5124 25.548 76.6395 25.472Z" fill="#251E28"/>
<path d="M44.6955 60.0999C44.6955 60.0999 44.4413 60.9742 44.187 62.3299C43.9201 63.6729 43.6659 65.4974 43.526 67.3218C43.3735 69.1463 43.3608 70.9961 43.3989 72.3645C43.3989 73.0487 43.4498 73.6315 43.4752 74.0243C43.5006 74.4297 43.5133 74.6578 43.5133 74.6578C43.5133 74.6958 43.4879 74.7338 43.4498 74.7338C43.4116 74.7338 43.3862 74.7085 43.3735 74.6704C43.3735 74.6704 43.3481 74.4424 43.3226 74.0369C43.2845 73.6315 43.2336 73.0614 43.1955 72.3645C43.1192 70.9835 43.0811 69.1336 43.1828 67.2838C43.2718 65.434 43.4879 63.5969 43.7167 62.2285C43.9328 60.8601 44.1743 59.9479 44.1743 59.9479C44.2125 59.8085 44.3523 59.7198 44.5048 59.7579C44.6447 59.7959 44.7336 59.9352 44.6955 60.0873V60.0999Z" fill="#139288"/>
<path d="M39.6742 66.9286C39.3437 66.7893 39.0259 66.5739 38.8352 66.2444C38.4539 65.5856 38.2123 65.1422 37.92 64.8634C37.3479 64.3186 37.5386 63.3684 36.8395 62.9122C36.5217 62.6968 36.0895 62.7602 35.7335 62.9122C34.564 63.3684 34.1954 64.3439 33.6361 65.3575C32.8861 66.7386 31.8945 68.1576 31.5895 69.716C31.5259 70.0074 31.4496 70.3369 31.4623 70.6409C31.4751 70.983 31.7166 70.9323 31.8945 70.7296C32.0598 70.5522 32.1869 70.3242 32.2632 70.1088C32.3013 70.0201 32.3013 69.9441 32.3013 69.8807C32.3267 70.5522 32.3903 71.8573 32.6318 72.0853C32.8098 72.2627 33.1912 72.2247 33.2293 71.9713C33.3691 72.2374 33.5852 72.5414 33.8776 72.4781C34.5132 72.3387 34.0556 71.5912 34.2208 71.0971C34.4623 71.1477 34.6784 70.9323 34.742 70.7043C34.8056 70.4762 34.7547 70.2228 34.742 69.9821C34.6149 68.2083 36.0767 66.8399 37.0937 67.03C37.5259 67.106 37.8691 67.4228 38.2632 67.6381C39.6488 68.3983 40.7928 67.4101 39.6742 66.9413V66.9286Z" fill="url(#paint13_linear_8044_570)"/>
<path d="M34.9064 62.2788C34.8047 62.6082 34.8429 63.5585 34.9319 63.8499C35.1352 64.5214 36.6734 64.4961 37.0039 63.8499C37.0039 63.8499 37.2836 62.5829 37.0675 62.1014C36.8259 61.5439 35.631 61.4553 35.1225 61.9114C35.0208 62.0001 34.9446 62.1268 34.9064 62.2661V62.2788Z" fill="#251E28"/>
<path d="M38.3378 34.8105L36.1895 46.7584C36.5835 47.5819 37.9564 48.038 38.8208 47.4299C38.9734 47.3285 40.5115 39.4984 41.0581 36.9138L38.3378 34.8105Z" fill="#251E28"/>
<path d="M37.995 45.3386C37.3086 44.9585 36.495 44.9458 35.7069 45.6047C34.9823 46.2002 34.7408 47.1884 34.6899 48.0627C34.5882 49.8871 34.6899 58.8195 34.6391 61.3662C34.6009 63.2033 37.2577 62.5951 37.3467 61.873C37.7281 59.0982 39.6603 50.3813 39.6984 48.3921C39.7238 47.2391 38.9865 45.8834 37.9823 45.3259L37.995 45.3386Z" fill="url(#paint14_linear_8044_570)"/>
<path d="M41.7194 37.7115C44.5795 36.7233 45.4185 31.0471 42.4185 29.4507C38.9355 27.6135 34.5626 33.3657 37.4736 36.2038C38.0838 36.7993 39.0626 37.4581 39.9016 37.7115C40.5753 37.9143 41.1855 37.9016 41.7321 37.7115H41.7194Z" fill="#251E28"/>
<path d="M36.572 46.9858C36.572 46.9858 36.4576 47.8347 36.3432 49.1271C36.2287 50.4194 36.0889 52.1425 35.9745 53.8656C35.7457 57.3119 35.5932 60.7708 35.5932 60.7708C35.5932 60.8468 35.5296 60.9102 35.4406 60.9102C35.3643 60.9102 35.3008 60.8468 35.3008 60.7708C35.3008 60.7708 35.3898 57.3119 35.555 53.853C35.6313 52.1299 35.733 50.3941 35.8347 49.1017C35.9237 47.8094 36.0254 46.9352 36.0254 46.9352C36.0381 46.7831 36.1779 46.6818 36.3177 46.6944C36.4703 46.7071 36.572 46.8465 36.5593 46.9858H36.572Z" fill="#139288"/>
<path d="M44.7839 44.579C45.4831 45.3772 46.4746 46.2895 47.5042 45.808L46.1314 36.7109C46.1314 36.7109 45.4704 37.9653 43.9068 38.6621C43.6144 38.7888 43.4237 39.0676 43.4619 39.3843C43.589 40.7273 43.6907 43.3373 44.7966 44.5917L44.7839 44.579Z" fill="#251E28"/>
<path d="M80.2372 20.0492C80.2372 19.8338 81.216 18.7442 81.5974 18.3514C81.9914 17.946 82.5253 17.4011 82.1567 17.1604C81.7626 16.8943 78.4321 19.3903 77.8601 19.9225C75.7118 21.9877 75.7372 23.1153 75.7372 23.1153C75.3304 26.0928 80.1355 25.5353 82.0042 21.975C82.144 21.6963 82.4999 21.5189 82.4745 21.2148C82.3601 20.2772 80.2499 21.0248 80.2372 20.0492Z" fill="url(#paint15_linear_8044_570)"/>
<path d="M79.2208 22.837C78.4581 23.9393 79.3352 24.1674 80.0343 23.4325C80.1869 23.6099 80.4793 23.5972 80.6827 23.4579C80.7335 23.4199 81.2293 22.8624 81.242 22.799C81.1403 23.3565 81.8013 23.0904 82.0428 22.761C82.3479 22.3176 82.5894 21.7601 82.5513 21.2153C82.5259 20.8605 82.2462 20.6451 81.9793 20.6451C81.9284 20.6451 81.9157 20.6451 81.9157 20.5818C81.8903 20.303 81.6488 20.0877 81.3564 20.1003C81.3564 19.6062 80.886 19.4288 80.5174 19.6569C80.2123 19.8469 80.2505 20.2017 80.225 20.5184C80.1742 21.6081 79.742 22.1022 79.2462 22.8244L79.2208 22.837Z" fill="url(#paint16_linear_8044_570)"/>
<path d="M98.9994 15.4762L82.2324 25.1307C80.5799 26.081 79.2324 25.5235 79.2324 23.8637V19.9487C79.2324 18.3016 80.5799 16.1857 82.2324 15.2354L98.9994 5.58091C100.652 4.63066 101.999 5.18814 101.999 6.84791V10.7629C101.999 12.41 100.652 14.5259 98.9994 15.4762Z" fill="#0656D7"/>
<g style="mix-blend-mode:screen">
<path d="M81.9537 20.6579C81.9537 20.6579 81.8902 20.6579 81.8902 20.5946C81.8647 20.3158 81.6232 20.1005 81.3308 20.1131C81.3308 19.619 80.8605 19.4416 80.4919 19.6697C80.441 19.695 80.4156 19.7457 80.3774 19.7837C80.6571 19.3783 81.3054 18.6561 81.6105 18.3393C82.0046 17.9339 82.5385 17.3891 82.1698 17.1483C81.9283 16.9836 80.6063 17.8452 79.4749 18.6687C79.3351 19.0995 79.2461 19.543 79.2461 19.9484V23.8634C79.2461 24.1295 79.2969 24.3576 79.3605 24.5603C80.0469 24.2309 80.7207 23.7367 81.2927 23.0652C81.4325 23.2299 81.8647 23.0146 82.0427 22.7612C82.3478 22.3177 82.5893 21.7602 82.5512 21.2154C82.5258 20.8607 82.2461 20.6453 81.9791 20.6453L81.9537 20.6579Z" fill="#0656D7"/>
</g>
<path d="M78.368 71.4645L64.2578 79.5859C62.6053 80.5362 61.2578 79.9787 61.2578 78.3189V74.4039C61.2578 72.7568 62.6053 70.6409 64.2578 69.6907L78.368 61.5692C80.0205 60.6189 81.368 61.1764 81.368 62.8362V66.7512C81.368 68.3983 80.0205 70.5142 78.368 71.4645Z" fill="#0656D7"/>
<g style="mix-blend-mode:screen">
<path d="M61.2578 74.4036V78.3186C61.2578 79.9657 62.6053 80.5359 64.2578 79.5856L64.4104 79.497C64.4485 78.6101 64.4866 77.6218 64.5121 76.5195C64.5121 75.962 64.207 75.4679 63.7239 75.2272C63.6858 75.1258 63.6476 75.0118 63.5968 74.8978C64.1561 74.4543 64.5248 73.8968 64.5121 73.2506C64.4866 72.5158 64.4231 71.2361 64.296 69.665C62.6053 70.6406 61.2578 72.7565 61.2578 74.4036Z" fill="#0656D7"/>
</g>
<defs>
<linearGradient id="paint0_linear_8044_570" x1="70.0176" y1="24.4014" x2="93.3801" y2="26.3075" gradientUnits="userSpaceOnUse">
<stop stop-color="#2B59FF"/>
<stop offset="1" stop-color="#BB2BFF"/>
</linearGradient>
<linearGradient id="paint1_linear_8044_570" x1="71.3125" y1="0.505859" x2="89.1897" y2="1.81505" gradientUnits="userSpaceOnUse">
<stop stop-color="#2B59FF"/>
<stop offset="1" stop-color="#BB2BFF"/>
</linearGradient>
<linearGradient id="paint2_linear_8044_570" x1="44.0849" y1="104.951" x2="48.5268" y2="102.405" gradientUnits="userSpaceOnUse">
<stop stop-color="#BBC2CD"/>
<stop offset="1" stop-color="#EEF4FF"/>
</linearGradient>
<linearGradient id="paint3_linear_8044_570" x1="63.254" y1="96.1837" x2="66.7382" y2="92.688" gradientUnits="userSpaceOnUse">
<stop stop-color="#BBC2CD"/>
<stop offset="1" stop-color="#EEF4FF"/>
</linearGradient>
<linearGradient id="paint4_linear_8044_570" x1="54.6235" y1="81.9175" x2="64.8057" y2="81.9175" gradientUnits="userSpaceOnUse">
<stop stop-color="#BBC2CD"/>
<stop offset="1" stop-color="#EEF4FF"/>
</linearGradient>
<linearGradient id="paint5_linear_8044_570" x1="54.5981" y1="63.7993" x2="64.8184" y2="63.7993" gradientUnits="userSpaceOnUse">
<stop stop-color="#BBC2CD"/>
<stop offset="1" stop-color="#EEF4FF"/>
</linearGradient>
<linearGradient id="paint6_linear_8044_570" x1="43.2584" y1="55.1963" x2="60.1143" y2="55.1963" gradientUnits="userSpaceOnUse">
<stop stop-color="#BBC2CD"/>
<stop offset="1" stop-color="#EEF4FF"/>
</linearGradient>
<linearGradient id="paint7_linear_8044_570" x1="44.5425" y1="52.5866" x2="58.506" y2="48.6476" gradientUnits="userSpaceOnUse">
<stop stop-color="#E5ECF8"/>
<stop offset="1" stop-color="#F5F9FF"/>
</linearGradient>
<linearGradient id="paint8_linear_8044_570" x1="40.3473" y1="35.1143" x2="59.9236" y2="35.1143" gradientUnits="userSpaceOnUse">
<stop stop-color="#BBC2CD"/>
<stop offset="1" stop-color="#EEF4FF"/>
</linearGradient>
<linearGradient id="paint9_linear_8044_570" x1="41.7711" y1="88.9114" x2="51.5719" y2="88.9114" gradientUnits="userSpaceOnUse">
<stop stop-color="#BBC2CD"/>
<stop offset="1" stop-color="#EEF4FF"/>
</linearGradient>
<linearGradient id="paint10_linear_8044_570" x1="41.7706" y1="68.8167" x2="51.7113" y2="68.8167" gradientUnits="userSpaceOnUse">
<stop stop-color="#BBC2CD"/>
<stop offset="1" stop-color="#EEF4FF"/>
</linearGradient>
<linearGradient id="paint11_linear_8044_570" x1="46.6139" y1="22.0009" x2="56.0682" y2="16.4496" gradientUnits="userSpaceOnUse">
<stop stop-color="#E5ECF8"/>
<stop offset="1" stop-color="#F5F9FF"/>
</linearGradient>
<linearGradient id="paint12_linear_8044_570" x1="63.0508" y1="30.8319" x2="76.5889" y2="30.8319" gradientUnits="userSpaceOnUse">
<stop stop-color="#BBC2CD"/>
<stop offset="1" stop-color="#EEF4FF"/>
</linearGradient>
<linearGradient id="paint13_linear_8044_570" x1="31.4496" y1="67.6128" x2="40.1191" y2="67.6128" gradientUnits="userSpaceOnUse">
<stop stop-color="#BBC2CD"/>
<stop offset="1" stop-color="#EEF4FF"/>
</linearGradient>
<linearGradient id="paint14_linear_8044_570" x1="34.6518" y1="53.8402" x2="39.7111" y2="53.8402" gradientUnits="userSpaceOnUse">
<stop stop-color="#BBC2CD"/>
<stop offset="1" stop-color="#EEF4FF"/>
</linearGradient>
<linearGradient id="paint15_linear_8044_570" x1="75.2414" y1="26.853" x2="81.0905" y2="19.4476" gradientUnits="userSpaceOnUse">
<stop stop-color="#BBC2CD"/>
<stop offset="1" stop-color="#EEF4FF"/>
</linearGradient>
<linearGradient id="paint16_linear_8044_570" x1="73.9104" y1="25.0954" x2="82.1944" y2="20.7596" gradientUnits="userSpaceOnUse">
<stop stop-color="#BBC2CD"/>
<stop offset="1" stop-color="#EEF4FF"/>
</linearGradient>
</defs>
</svg>
