<svg width="24" height="24" viewBox="0 0 24 24" fill="none" xmlns="http://www.w3.org/2000/svg">
<g id="Icon - Crown">
<g id="Vector">
<path d="M12.8007 5.1924C12.8007 5.46324 12.6164 5.69048 12.3677 5.75256L15.4949 12.9232L20.7808 9.3466C20.6421 9.24136 20.5524 9.07364 20.5524 8.88471C20.5524 8.56608 20.8075 8.30779 21.1223 8.30779C21.4371 8.30779 21.6923 8.56608 21.6923 8.88471C21.6923 9.20333 21.4371 9.46163 21.1223 9.46163C21.0903 9.46163 21.059 9.45896 21.0284 9.45384L18.816 17.4232H5.53154L3.38486 9.69058C3.36979 9.69179 3.35457 9.6924 3.3392 9.6924C3.02441 9.6924 2.76923 9.4341 2.76923 9.11548C2.76923 8.79685 3.02441 8.53855 3.3392 8.53855C3.65398 8.53855 3.90917 8.79685 3.90917 9.11548C3.90917 9.2572 3.85868 9.38699 3.77492 9.48743L8.85265 12.9232L11.995 5.71779C11.7978 5.62701 11.6608 5.4259 11.6608 5.1924C11.6608 4.87378 11.916 4.61548 12.2308 4.61548C12.5456 4.61548 12.8007 4.87378 12.8007 5.1924Z" fill="#FDD835"/>
<path d="M5.2771 18.9232C5.2771 18.6683 5.48125 18.4616 5.73308 18.4616H18.5005C18.7523 18.4616 18.9564 18.6683 18.9564 18.9232C18.9564 19.1781 18.7523 19.3847 18.5005 19.3847H5.73308C5.48125 19.3847 5.2771 19.1781 5.2771 18.9232Z" fill="#FDD835"/>
</g>
</g>
</svg>
